<svg xmlns="http://www.w3.org/2000/svg" viewBox="0 0 1200 520" width="1200" height="520">
  <rect width="1200" height="520" fill="transparent" />
  <rect x="20.0" y="20.0" width="145.0" height="60.0" fill="transparent" fill-opacity="0" stroke="#cbd5e1" stroke-dasharray="2,4" />
  <rect x="20.0" y="80.0" width="145.0" height="60.0" fill="transparent" fill-opacity="0" stroke="#cbd5e1" stroke-dasharray="2,4" />
  <rect x="20.0" y="140.0" width="145.0" height="60.0" fill="transparent" fill-opacity="0" stroke="#cbd5e1" stroke-dasharray="2,4" />
  <rect x="20.0" y="200.0" width="145.0" height="60.0" fill="#1f6feb" fill-opacity="0.14" stroke="#cbd5e1" stroke-dasharray="2,4" />
  <rect x="20.0" y="260.0" width="145.0" height="60.0" fill="#1f6feb" fill-opacity="0.14" stroke="#cbd5e1" stroke-dasharray="2,4" />
  <rect x="20.0" y="320.0" width="145.0" height="60.0" fill="transparent" fill-opacity="0" stroke="#cbd5e1" stroke-dasharray="2,4" />
  <rect x="20.0" y="380.0" width="145.0" height="60.0" fill="transparent" fill-opacity="0" stroke="#cbd5e1" stroke-dasharray="2,4" />
  <rect x="20.0" y="440.0" width="145.0" height="60.0" fill="transparent" fill-opacity="0" stroke="#cbd5e1" stroke-dasharray="2,4" />
  <rect x="165.0" y="20.0" width="145.0" height="60.0" fill="transparent" fill-opacity="0" stroke="#cbd5e1" stroke-dasharray="2,4" />
  <rect x="165.0" y="80.0" width="145.0" height="60.0" fill="transparent" fill-opacity="0" stroke="#cbd5e1" stroke-dasharray="2,4" />
  <rect x="165.0" y="140.0" width="145.0" height="60.0" fill="transparent" fill-opacity="0" stroke="#cbd5e1" stroke-dasharray="2,4" />
  <rect x="165.0" y="200.0" width="145.0" height="60.0" fill="#1f6feb" fill-opacity="0.14" stroke="#cbd5e1" stroke-dasharray="2,4" />
  <rect x="165.0" y="260.0" width="145.0" height="60.0" fill="#1f6feb" fill-opacity="0.14" stroke="#cbd5e1" stroke-dasharray="2,4" />
  <rect x="165.0" y="320.0" width="145.0" height="60.0" fill="transparent" fill-opacity="0" stroke="#cbd5e1" stroke-dasharray="2,4" />
  <rect x="165.0" y="380.0" width="145.0" height="60.0" fill="transparent" fill-opacity="0" stroke="#cbd5e1" stroke-dasharray="2,4" />
  <rect x="165.0" y="440.0" width="145.0" height="60.0" fill="transparent" fill-opacity="0" stroke="#cbd5e1" stroke-dasharray="2,4" />
  <rect x="310.0" y="20.0" width="145.0" height="60.0" fill="transparent" fill-opacity="0" stroke="#cbd5e1" stroke-dasharray="2,4" />
  <rect x="310.0" y="80.0" width="145.0" height="60.0" fill="transparent" fill-opacity="0" stroke="#cbd5e1" stroke-dasharray="2,4" />
  <rect x="310.0" y="140.0" width="145.0" height="60.0" fill="transparent" fill-opacity="0" stroke="#cbd5e1" stroke-dasharray="2,4" />
  <rect x="310.0" y="200.0" width="145.0" height="60.0" fill="#1f6feb" fill-opacity="0.14" stroke="#cbd5e1" stroke-dasharray="2,4" />
  <rect x="310.0" y="260.0" width="145.0" height="60.0" fill="#1f6feb" fill-opacity="0.14" stroke="#cbd5e1" stroke-dasharray="2,4" />
  <rect x="310.0" y="320.0" width="145.0" height="60.0" fill="transparent" fill-opacity="0" stroke="#cbd5e1" stroke-dasharray="2,4" />
  <rect x="310.0" y="380.0" width="145.0" height="60.0" fill="transparent" fill-opacity="0" stroke="#cbd5e1" stroke-dasharray="2,4" />
  <rect x="310.0" y="440.0" width="145.0" height="60.0" fill="transparent" fill-opacity="0" stroke="#cbd5e1" stroke-dasharray="2,4" />
  <rect x="455.0" y="20.0" width="145.0" height="60.0" fill="transparent" fill-opacity="0" stroke="#cbd5e1" stroke-dasharray="2,4" />
  <rect x="455.0" y="80.0" width="145.0" height="60.0" fill="transparent" fill-opacity="0" stroke="#cbd5e1" stroke-dasharray="2,4" />
  <rect x="455.0" y="140.0" width="145.0" height="60.0" fill="transparent" fill-opacity="0" stroke="#cbd5e1" stroke-dasharray="2,4" />
  <rect x="455.0" y="200.0" width="145.0" height="60.0" fill="#1f6feb" fill-opacity="0.14" stroke="#cbd5e1" stroke-dasharray="2,4" />
  <rect x="455.0" y="260.0" width="145.0" height="60.0" fill="#1f6feb" fill-opacity="0.14" stroke="#cbd5e1" stroke-dasharray="2,4" />
  <rect x="455.0" y="320.0" width="145.0" height="60.0" fill="transparent" fill-opacity="0" stroke="#cbd5e1" stroke-dasharray="2,4" />
  <rect x="455.0" y="380.0" width="145.0" height="60.0" fill="transparent" fill-opacity="0" stroke="#cbd5e1" stroke-dasharray="2,4" />
  <rect x="455.0" y="440.0" width="145.0" height="60.0" fill="transparent" fill-opacity="0" stroke="#cbd5e1" stroke-dasharray="2,4" />
  <rect x="600.0" y="20.0" width="145.0" height="60.0" fill="transparent" fill-opacity="0" stroke="#cbd5e1" stroke-dasharray="2,4" />
  <rect x="600.0" y="80.0" width="145.0" height="60.0" fill="transparent" fill-opacity="0" stroke="#cbd5e1" stroke-dasharray="2,4" />
  <rect x="600.0" y="140.0" width="145.0" height="60.0" fill="transparent" fill-opacity="0" stroke="#cbd5e1" stroke-dasharray="2,4" />
  <rect x="600.0" y="200.0" width="145.0" height="60.0" fill="#1f6feb" fill-opacity="0.14" stroke="#cbd5e1" stroke-dasharray="2,4" />
  <rect x="600.0" y="260.0" width="145.0" height="60.0" fill="#1f6feb" fill-opacity="0.14" stroke="#cbd5e1" stroke-dasharray="2,4" />
  <rect x="600.0" y="320.0" width="145.0" height="60.0" fill="transparent" fill-opacity="0" stroke="#cbd5e1" stroke-dasharray="2,4" />
  <rect x="600.0" y="380.0" width="145.0" height="60.0" fill="transparent" fill-opacity="0" stroke="#cbd5e1" stroke-dasharray="2,4" />
  <rect x="600.0" y="440.0" width="145.0" height="60.0" fill="transparent" fill-opacity="0" stroke="#cbd5e1" stroke-dasharray="2,4" />
  <rect x="745.0" y="20.0" width="145.0" height="60.0" fill="transparent" fill-opacity="0" stroke="#cbd5e1" stroke-dasharray="2,4" />
  <rect x="745.0" y="80.0" width="145.0" height="60.0" fill="transparent" fill-opacity="0" stroke="#cbd5e1" stroke-dasharray="2,4" />
  <rect x="745.0" y="140.0" width="145.0" height="60.0" fill="transparent" fill-opacity="0" stroke="#cbd5e1" stroke-dasharray="2,4" />
  <rect x="745.0" y="200.0" width="145.0" height="60.0" fill="#1f6feb" fill-opacity="0.14" stroke="#cbd5e1" stroke-dasharray="2,4" />
  <rect x="745.0" y="260.0" width="145.0" height="60.0" fill="#1f6feb" fill-opacity="0.14" stroke="#cbd5e1" stroke-dasharray="2,4" />
  <rect x="745.0" y="320.0" width="145.0" height="60.0" fill="transparent" fill-opacity="0" stroke="#cbd5e1" stroke-dasharray="2,4" />
  <rect x="745.0" y="380.0" width="145.0" height="60.0" fill="transparent" fill-opacity="0" stroke="#cbd5e1" stroke-dasharray="2,4" />
  <rect x="745.0" y="440.0" width="145.0" height="60.0" fill="transparent" fill-opacity="0" stroke="#cbd5e1" stroke-dasharray="2,4" />
  <rect x="890.0" y="20.0" width="145.0" height="60.0" fill="transparent" fill-opacity="0" stroke="#cbd5e1" stroke-dasharray="2,4" />
  <rect x="890.0" y="80.0" width="145.0" height="60.0" fill="transparent" fill-opacity="0" stroke="#cbd5e1" stroke-dasharray="2,4" />
  <rect x="890.0" y="140.0" width="145.0" height="60.0" fill="transparent" fill-opacity="0" stroke="#cbd5e1" stroke-dasharray="2,4" />
  <rect x="890.0" y="200.0" width="145.0" height="60.0" fill="#1f6feb" fill-opacity="0.14" stroke="#cbd5e1" stroke-dasharray="2,4" />
  <rect x="890.0" y="260.0" width="145.0" height="60.0" fill="#1f6feb" fill-opacity="0.14" stroke="#cbd5e1" stroke-dasharray="2,4" />
  <rect x="890.0" y="320.0" width="145.0" height="60.0" fill="transparent" fill-opacity="0" stroke="#cbd5e1" stroke-dasharray="2,4" />
  <rect x="890.0" y="380.0" width="145.0" height="60.0" fill="transparent" fill-opacity="0" stroke="#cbd5e1" stroke-dasharray="2,4" />
  <rect x="890.0" y="440.0" width="145.0" height="60.0" fill="transparent" fill-opacity="0" stroke="#cbd5e1" stroke-dasharray="2,4" />
  <rect x="1035.0" y="20.0" width="145.0" height="60.0" fill="transparent" fill-opacity="0" stroke="#cbd5e1" stroke-dasharray="2,4" />
  <rect x="1035.0" y="80.0" width="145.0" height="60.0" fill="transparent" fill-opacity="0" stroke="#cbd5e1" stroke-dasharray="2,4" />
  <rect x="1035.0" y="140.0" width="145.0" height="60.0" fill="transparent" fill-opacity="0" stroke="#cbd5e1" stroke-dasharray="2,4" />
  <rect x="1035.0" y="200.0" width="145.0" height="60.0" fill="#1f6feb" fill-opacity="0.14" stroke="#cbd5e1" stroke-dasharray="2,4" />
  <rect x="1035.0" y="260.0" width="145.0" height="60.0" fill="#1f6feb" fill-opacity="0.14" stroke="#cbd5e1" stroke-dasharray="2,4" />
  <rect x="1035.0" y="320.0" width="145.0" height="60.0" fill="transparent" fill-opacity="0" stroke="#cbd5e1" stroke-dasharray="2,4" />
  <rect x="1035.0" y="380.0" width="145.0" height="60.0" fill="transparent" fill-opacity="0" stroke="#cbd5e1" stroke-dasharray="2,4" />
  <rect x="1035.0" y="440.0" width="145.0" height="60.0" fill="transparent" fill-opacity="0" stroke="#cbd5e1" stroke-dasharray="2,4" />
  <circle cx="307.3" cy="288.0" r="3" fill="#0d2b5c" fill-opacity="0.75" />
  <circle cx="569.6" cy="232.9" r="3" fill="#0d2b5c" fill-opacity="0.75" />
  <circle cx="901.6" cy="270.2" r="3" fill="#0d2b5c" fill-opacity="0.75" />
  <circle cx="1034.6" cy="276.3" r="3" fill="#0d2b5c" fill-opacity="0.75" />
  <circle cx="811.1" cy="264.6" r="3" fill="#0d2b5c" fill-opacity="0.75" />
  <circle cx="544.6" cy="247.0" r="3" fill="#0d2b5c" fill-opacity="0.75" />
  <circle cx="848.0" cy="238.9" r="3" fill="#0d2b5c" fill-opacity="0.75" />
  <circle cx="216.4" cy="260.3" r="3" fill="#0d2b5c" fill-opacity="0.75" />
  <circle cx="554.7" cy="289.8" r="3" fill="#0d2b5c" fill-opacity="0.75" />
  <circle cx="938.2" cy="255.3" r="3" fill="#0d2b5c" fill-opacity="0.75" />
  <circle cx="238.3" cy="243.9" r="3" fill="#0d2b5c" fill-opacity="0.75" />
  <circle cx="825.6" cy="278.1" r="3" fill="#0d2b5c" fill-opacity="0.75" />
  <circle cx="331.1" cy="263.3" r="3" fill="#0d2b5c" fill-opacity="0.75" />
  <circle cx="752.5" cy="232.7" r="3" fill="#0d2b5c" fill-opacity="0.75" />
  <circle cx="188.4" cy="238.3" r="3" fill="#0d2b5c" fill-opacity="0.75" />
  <circle cx="651.9" cy="277.6" r="3" fill="#0d2b5c" fill-opacity="0.75" />
  <circle cx="824.7" cy="270.9" r="3" fill="#0d2b5c" fill-opacity="0.75" />
  <circle cx="827.4" cy="272.5" r="3" fill="#0d2b5c" fill-opacity="0.75" />
  <circle cx="381.0" cy="272.9" r="3" fill="#0d2b5c" fill-opacity="0.75" />
  <circle cx="774.4" cy="269.1" r="3" fill="#0d2b5c" fill-opacity="0.75" />
  <circle cx="645.1" cy="229.9" r="3" fill="#0d2b5c" fill-opacity="0.75" />
  <circle cx="451.9" cy="244.1" r="3" fill="#0d2b5c" fill-opacity="0.75" />
  <circle cx="1104.5" cy="258.1" r="3" fill="#0d2b5c" fill-opacity="0.75" />
  <circle cx="272.5" cy="251.1" r="3" fill="#0d2b5c" fill-opacity="0.75" />
  <circle cx="612.1" cy="263.5" r="3" fill="#0d2b5c" fill-opacity="0.75" />
  <circle cx="480.1" cy="228.6" r="3" fill="#0d2b5c" fill-opacity="0.75" />
  <circle cx="988.1" cy="231.6" r="3" fill="#0d2b5c" fill-opacity="0.75" />
  <circle cx="456.3" cy="275.3" r="3" fill="#0d2b5c" fill-opacity="0.75" />
  <circle cx="721.2" cy="270.3" r="3" fill="#0d2b5c" fill-opacity="0.75" />
  <circle cx="382.2" cy="291.8" r="3" fill="#0d2b5c" fill-opacity="0.75" />
  <circle cx="486.0" cy="236.3" r="3" fill="#0d2b5c" fill-opacity="0.75" />
  <circle cx="520.4" cy="232.7" r="3" fill="#0d2b5c" fill-opacity="0.75" />
  <circle cx="848.0" cy="286.9" r="3" fill="#0d2b5c" fill-opacity="0.75" />
  <circle cx="291.8" cy="236.0" r="3" fill="#0d2b5c" fill-opacity="0.75" />
  <circle cx="555.0" cy="256.5" r="3" fill="#0d2b5c" fill-opacity="0.75" />
  <circle cx="706.3" cy="226.1" r="3" fill="#0d2b5c" fill-opacity="0.75" />
  <circle cx="665.9" cy="268.9" r="3" fill="#0d2b5c" fill-opacity="0.75" />
  <circle cx="508.5" cy="257.2" r="3" fill="#0d2b5c" fill-opacity="0.75" />
  <circle cx="547.0" cy="244.0" r="3" fill="#0d2b5c" fill-opacity="0.75" />
  <circle cx="406.4" cy="248.7" r="3" fill="#0d2b5c" fill-opacity="0.75" />
  <circle cx="790.6" cy="249.7" r="3" fill="#0d2b5c" fill-opacity="0.75" />
  <circle cx="967.9" cy="236.7" r="3" fill="#0d2b5c" fill-opacity="0.75" />
  <circle cx="844.2" cy="265.3" r="3" fill="#0d2b5c" fill-opacity="0.75" />
  <circle cx="258.2" cy="256.2" r="3" fill="#0d2b5c" fill-opacity="0.75" />
  <circle cx="121.7" cy="237.8" r="3" fill="#0d2b5c" fill-opacity="0.75" />
  <circle cx="179.1" cy="258.5" r="3" fill="#0d2b5c" fill-opacity="0.75" />
  <circle cx="689.3" cy="260.4" r="3" fill="#0d2b5c" fill-opacity="0.75" />
  <circle cx="688.4" cy="281.8" r="3" fill="#0d2b5c" fill-opacity="0.75" />
  <circle cx="945.9" cy="267.3" r="3" fill="#0d2b5c" fill-opacity="0.75" />
  <circle cx="664.3" cy="272.7" r="3" fill="#0d2b5c" fill-opacity="0.75" />
  <circle cx="758.4" cy="274.0" r="3" fill="#0d2b5c" fill-opacity="0.75" />
  <circle cx="425.4" cy="239.9" r="3" fill="#0d2b5c" fill-opacity="0.75" />
  <circle cx="686.4" cy="283.4" r="3" fill="#0d2b5c" fill-opacity="0.75" />
  <circle cx="795.6" cy="248.9" r="3" fill="#0d2b5c" fill-opacity="0.75" />
  <circle cx="927.2" cy="234.1" r="3" fill="#0d2b5c" fill-opacity="0.75" />
  <circle cx="509.9" cy="285.1" r="3" fill="#0d2b5c" fill-opacity="0.75" />
  <circle cx="963.8" cy="244.7" r="3" fill="#0d2b5c" fill-opacity="0.75" />
  <circle cx="171.8" cy="275.9" r="3" fill="#0d2b5c" fill-opacity="0.75" />
  <circle cx="268.3" cy="267.4" r="3" fill="#0d2b5c" fill-opacity="0.75" />
  <circle cx="734.0" cy="252.5" r="3" fill="#0d2b5c" fill-opacity="0.75" />
  <circle cx="289.2" cy="252.5" r="3" fill="#0d2b5c" fill-opacity="0.75" />
  <circle cx="943.2" cy="254.6" r="3" fill="#0d2b5c" fill-opacity="0.75" />
  <circle cx="787.0" cy="273.5" r="3" fill="#0d2b5c" fill-opacity="0.75" />
  <circle cx="572.7" cy="228.2" r="3" fill="#0d2b5c" fill-opacity="0.75" />
  <circle cx="548.4" cy="257.7" r="3" fill="#0d2b5c" fill-opacity="0.75" />
  <circle cx="1061.9" cy="274.1" r="3" fill="#0d2b5c" fill-opacity="0.75" />
  <circle cx="317.9" cy="260.8" r="3" fill="#0d2b5c" fill-opacity="0.75" />
  <circle cx="587.6" cy="265.3" r="3" fill="#0d2b5c" fill-opacity="0.75" />
  <circle cx="637.0" cy="241.8" r="3" fill="#0d2b5c" fill-opacity="0.75" />
  <circle cx="569.7" cy="260.6" r="3" fill="#0d2b5c" fill-opacity="0.75" />
  <circle cx="721.8" cy="292.5" r="3" fill="#0d2b5c" fill-opacity="0.75" />
  <circle cx="781.2" cy="239.0" r="3" fill="#0d2b5c" fill-opacity="0.75" />
  <circle cx="369.3" cy="263.5" r="3" fill="#0d2b5c" fill-opacity="0.75" />
  <circle cx="817.9" cy="277.1" r="3" fill="#0d2b5c" fill-opacity="0.75" />
  <circle cx="719.7" cy="266.4" r="3" fill="#0d2b5c" fill-opacity="0.75" />
  <circle cx="430.2" cy="286.5" r="3" fill="#0d2b5c" fill-opacity="0.75" />
  <circle cx="584.9" cy="276.2" r="3" fill="#0d2b5c" fill-opacity="0.75" />
  <circle cx="1141.9" cy="256.9" r="3" fill="#0d2b5c" fill-opacity="0.75" />
  <circle cx="508.4" cy="264.9" r="3" fill="#0d2b5c" fill-opacity="0.75" />
  <circle cx="901.6" cy="265.8" r="3" fill="#0d2b5c" fill-opacity="0.75" />
  <circle cx="962.4" cy="258.3" r="3" fill="#0d2b5c" fill-opacity="0.75" />
  <circle cx="1033.9" cy="258.6" r="3" fill="#0d2b5c" fill-opacity="0.75" />
  <circle cx="563.2" cy="258.9" r="3" fill="#0d2b5c" fill-opacity="0.75" />
  <circle cx="395.2" cy="248.0" r="3" fill="#0d2b5c" fill-opacity="0.75" />
  <circle cx="566.2" cy="274.7" r="3" fill="#0d2b5c" fill-opacity="0.75" />
  <circle cx="776.3" cy="252.1" r="3" fill="#0d2b5c" fill-opacity="0.75" />
  <circle cx="661.5" cy="253.9" r="3" fill="#0d2b5c" fill-opacity="0.75" />
  <circle cx="719.4" cy="283.5" r="3" fill="#0d2b5c" fill-opacity="0.75" />
  <circle cx="624.3" cy="243.5" r="3" fill="#0d2b5c" fill-opacity="0.75" />
  <circle cx="535.2" cy="265.9" r="3" fill="#0d2b5c" fill-opacity="0.75" />
  <circle cx="633.8" cy="269.6" r="3" fill="#0d2b5c" fill-opacity="0.75" />
  <circle cx="964.9" cy="242.9" r="3" fill="#0d2b5c" fill-opacity="0.75" />
  <circle cx="990.4" cy="272.7" r="3" fill="#0d2b5c" fill-opacity="0.75" />
  <circle cx="428.3" cy="256.2" r="3" fill="#0d2b5c" fill-opacity="0.75" />
  <circle cx="831.5" cy="250.4" r="3" fill="#0d2b5c" fill-opacity="0.75" />
  <circle cx="698.9" cy="243.1" r="3" fill="#0d2b5c" fill-opacity="0.75" />
  <circle cx="848.1" cy="255.7" r="3" fill="#0d2b5c" fill-opacity="0.75" />
  <circle cx="561.4" cy="274.7" r="3" fill="#0d2b5c" fill-opacity="0.75" />
  <circle cx="805.3" cy="288.7" r="3" fill="#0d2b5c" fill-opacity="0.75" />
  <circle cx="614.1" cy="251.9" r="3" fill="#0d2b5c" fill-opacity="0.75" />
  <circle cx="640.3" cy="259.5" r="3" fill="#0d2b5c" fill-opacity="0.75" />
  <circle cx="530.5" cy="229.8" r="3" fill="#0d2b5c" fill-opacity="0.75" />
  <circle cx="212.6" cy="267.2" r="3" fill="#0d2b5c" fill-opacity="0.75" />
  <circle cx="129.9" cy="278.2" r="3" fill="#0d2b5c" fill-opacity="0.75" />
  <circle cx="699.3" cy="236.5" r="3" fill="#0d2b5c" fill-opacity="0.75" />
  <circle cx="903.0" cy="234.2" r="3" fill="#0d2b5c" fill-opacity="0.75" />
  <circle cx="448.6" cy="262.8" r="3" fill="#0d2b5c" fill-opacity="0.75" />
  <circle cx="491.9" cy="252.9" r="3" fill="#0d2b5c" fill-opacity="0.75" />
  <circle cx="599.8" cy="272.7" r="3" fill="#0d2b5c" fill-opacity="0.75" />
  <circle cx="1149.7" cy="258.3" r="3" fill="#0d2b5c" fill-opacity="0.75" />
  <circle cx="464.8" cy="240.5" r="3" fill="#0d2b5c" fill-opacity="0.75" />
  <circle cx="802.9" cy="270.8" r="3" fill="#0d2b5c" fill-opacity="0.75" />
  <circle cx="743.0" cy="287.0" r="3" fill="#0d2b5c" fill-opacity="0.75" />
  <circle cx="560.3" cy="241.7" r="3" fill="#0d2b5c" fill-opacity="0.75" />
  <circle cx="347.6" cy="253.3" r="3" fill="#0d2b5c" fill-opacity="0.75" />
  <circle cx="1059.4" cy="267.5" r="3" fill="#0d2b5c" fill-opacity="0.75" />
  <circle cx="640.6" cy="268.0" r="3" fill="#0d2b5c" fill-opacity="0.75" />
  <circle cx="636.1" cy="278.3" r="3" fill="#0d2b5c" fill-opacity="0.75" />
  <circle cx="592.7" cy="252.2" r="3" fill="#0d2b5c" fill-opacity="0.75" />
  <circle cx="632.4" cy="281.3" r="3" fill="#0d2b5c" fill-opacity="0.75" />
  <circle cx="436.4" cy="249.0" r="3" fill="#0d2b5c" fill-opacity="0.75" />
  <circle cx="916.9" cy="268.3" r="3" fill="#0d2b5c" fill-opacity="0.75" />
  <circle cx="594.5" cy="242.1" r="3" fill="#0d2b5c" fill-opacity="0.75" />
  <circle cx="236.4" cy="214.3" r="3" fill="#0d2b5c" fill-opacity="0.75" />
  <circle cx="635.9" cy="277.2" r="3" fill="#0d2b5c" fill-opacity="0.75" />
  <circle cx="304.6" cy="251.1" r="3" fill="#0d2b5c" fill-opacity="0.75" />
  <circle cx="370.5" cy="239.8" r="3" fill="#0d2b5c" fill-opacity="0.75" />
  <circle cx="347.6" cy="242.4" r="3" fill="#0d2b5c" fill-opacity="0.75" />
  <circle cx="548.1" cy="279.9" r="3" fill="#0d2b5c" fill-opacity="0.75" />
  <circle cx="367.5" cy="269.2" r="3" fill="#0d2b5c" fill-opacity="0.75" />
  <circle cx="496.0" cy="258.0" r="3" fill="#0d2b5c" fill-opacity="0.75" />
  <circle cx="93.3" cy="243.8" r="3" fill="#0d2b5c" fill-opacity="0.75" />
  <circle cx="466.3" cy="246.3" r="3" fill="#0d2b5c" fill-opacity="0.75" />
  <circle cx="569.9" cy="273.1" r="3" fill="#0d2b5c" fill-opacity="0.75" />
  <circle cx="749.8" cy="282.8" r="3" fill="#0d2b5c" fill-opacity="0.75" />
  <circle cx="634.3" cy="261.4" r="3" fill="#0d2b5c" fill-opacity="0.75" />
  <circle cx="549.8" cy="241.9" r="3" fill="#0d2b5c" fill-opacity="0.75" />
  <circle cx="1009.6" cy="261.2" r="3" fill="#0d2b5c" fill-opacity="0.75" />
  <circle cx="488.7" cy="278.2" r="3" fill="#0d2b5c" fill-opacity="0.75" />
  <circle cx="975.8" cy="271.4" r="3" fill="#0d2b5c" fill-opacity="0.75" />
  <circle cx="428.3" cy="257.6" r="3" fill="#0d2b5c" fill-opacity="0.75" />
  <circle cx="601.5" cy="269.3" r="3" fill="#0d2b5c" fill-opacity="0.75" />
  <circle cx="246.8" cy="247.9" r="3" fill="#0d2b5c" fill-opacity="0.75" />
  <circle cx="783.7" cy="249.7" r="3" fill="#0d2b5c" fill-opacity="0.75" />
  <circle cx="533.7" cy="244.6" r="3" fill="#0d2b5c" fill-opacity="0.75" />
  <circle cx="255.0" cy="241.4" r="3" fill="#0d2b5c" fill-opacity="0.75" />
  <circle cx="538.1" cy="258.8" r="3" fill="#0d2b5c" fill-opacity="0.75" />
  <circle cx="657.0" cy="248.3" r="3" fill="#0d2b5c" fill-opacity="0.75" />
  <circle cx="637.0" cy="271.4" r="3" fill="#0d2b5c" fill-opacity="0.75" />
  <circle cx="491.5" cy="263.9" r="3" fill="#0d2b5c" fill-opacity="0.75" />
  <circle cx="880.4" cy="267.7" r="3" fill="#0d2b5c" fill-opacity="0.75" />
  <circle cx="357.4" cy="257.5" r="3" fill="#0d2b5c" fill-opacity="0.75" />
  <circle cx="614.7" cy="290.6" r="3" fill="#0d2b5c" fill-opacity="0.75" />
  <circle cx="537.9" cy="264.4" r="3" fill="#0d2b5c" fill-opacity="0.75" />
  <circle cx="1048.5" cy="260.4" r="3" fill="#0d2b5c" fill-opacity="0.75" />
  <circle cx="526.4" cy="270.9" r="3" fill="#0d2b5c" fill-opacity="0.75" />
  <circle cx="429.9" cy="284.1" r="3" fill="#0d2b5c" fill-opacity="0.75" />
  <circle cx="405.7" cy="265.8" r="3" fill="#0d2b5c" fill-opacity="0.75" />
  <circle cx="1040.2" cy="258.4" r="3" fill="#0d2b5c" fill-opacity="0.75" />
  <circle cx="349.9" cy="231.1" r="3" fill="#0d2b5c" fill-opacity="0.75" />
  <circle cx="334.0" cy="273.7" r="3" fill="#0d2b5c" fill-opacity="0.75" />
  <circle cx="926.5" cy="233.0" r="3" fill="#0d2b5c" fill-opacity="0.75" />
  <circle cx="758.9" cy="254.3" r="3" fill="#0d2b5c" fill-opacity="0.75" />
  <circle cx="720.1" cy="243.0" r="3" fill="#0d2b5c" fill-opacity="0.75" />
  <circle cx="282.3" cy="262.4" r="3" fill="#0d2b5c" fill-opacity="0.75" />
  <circle cx="741.4" cy="251.0" r="3" fill="#0d2b5c" fill-opacity="0.75" />
  <circle cx="922.0" cy="238.0" r="3" fill="#0d2b5c" fill-opacity="0.75" />
  <circle cx="329.6" cy="283.4" r="3" fill="#0d2b5c" fill-opacity="0.75" />
  <circle cx="575.3" cy="264.9" r="3" fill="#0d2b5c" fill-opacity="0.75" />
  <circle cx="295.9" cy="263.8" r="3" fill="#0d2b5c" fill-opacity="0.75" />
  <circle cx="669.9" cy="248.4" r="3" fill="#0d2b5c" fill-opacity="0.75" />
  <circle cx="278.2" cy="241.9" r="3" fill="#0d2b5c" fill-opacity="0.75" />
  <circle cx="708.7" cy="237.1" r="3" fill="#0d2b5c" fill-opacity="0.75" />
  <circle cx="273.5" cy="272.3" r="3" fill="#0d2b5c" fill-opacity="0.75" />
  <circle cx="925.0" cy="259.8" r="3" fill="#0d2b5c" fill-opacity="0.75" />
  <circle cx="606.8" cy="227.5" r="3" fill="#0d2b5c" fill-opacity="0.75" />
  <circle cx="454.8" cy="254.4" r="3" fill="#0d2b5c" fill-opacity="0.75" />
  <circle cx="501.6" cy="253.3" r="3" fill="#0d2b5c" fill-opacity="0.75" />
  <circle cx="430.3" cy="253.4" r="3" fill="#0d2b5c" fill-opacity="0.75" />
  <circle cx="820.4" cy="244.4" r="3" fill="#0d2b5c" fill-opacity="0.75" />
  <circle cx="660.1" cy="269.1" r="3" fill="#0d2b5c" fill-opacity="0.75" />
  <circle cx="332.9" cy="249.3" r="3" fill="#0d2b5c" fill-opacity="0.75" />
  <circle cx="552.9" cy="251.2" r="3" fill="#0d2b5c" fill-opacity="0.75" />
  <circle cx="882.6" cy="263.1" r="3" fill="#0d2b5c" fill-opacity="0.75" />
  <circle cx="745.2" cy="277.3" r="3" fill="#0d2b5c" fill-opacity="0.75" />
  <circle cx="1006.9" cy="243.8" r="3" fill="#0d2b5c" fill-opacity="0.75" />
  <circle cx="757.1" cy="248.4" r="3" fill="#0d2b5c" fill-opacity="0.75" />
  <circle cx="670.9" cy="236.4" r="3" fill="#0d2b5c" fill-opacity="0.75" />
  <circle cx="445.4" cy="255.6" r="3" fill="#0d2b5c" fill-opacity="0.75" />
  <circle cx="439.5" cy="270.7" r="3" fill="#0d2b5c" fill-opacity="0.75" />
  <circle cx="329.6" cy="266.9" r="3" fill="#0d2b5c" fill-opacity="0.75" />
  <circle cx="405.8" cy="254.2" r="3" fill="#0d2b5c" fill-opacity="0.75" />
  <circle cx="765.9" cy="252.3" r="3" fill="#0d2b5c" fill-opacity="0.75" />
  <circle cx="45.5" cy="245.8" r="3" fill="#0d2b5c" fill-opacity="0.75" />
  <circle cx="827.0" cy="275.5" r="3" fill="#0d2b5c" fill-opacity="0.75" />
  <circle cx="545.3" cy="259.5" r="3" fill="#0d2b5c" fill-opacity="0.75" />
  <circle cx="632.8" cy="279.9" r="3" fill="#0d2b5c" fill-opacity="0.75" />
  <circle cx="470.3" cy="256.0" r="3" fill="#0d2b5c" fill-opacity="0.75" />
  <circle cx="700.2" cy="263.5" r="3" fill="#0d2b5c" fill-opacity="0.75" />
  <circle cx="141.0" cy="255.2" r="3" fill="#0d2b5c" fill-opacity="0.75" />
  <circle cx="801.7" cy="266.7" r="3" fill="#0d2b5c" fill-opacity="0.75" />
  <circle cx="307.7" cy="251.4" r="3" fill="#0d2b5c" fill-opacity="0.75" />
  <circle cx="695.9" cy="245.1" r="3" fill="#0d2b5c" fill-opacity="0.75" />
  <circle cx="691.1" cy="264.5" r="3" fill="#0d2b5c" fill-opacity="0.75" />
  <circle cx="949.0" cy="257.3" r="3" fill="#0d2b5c" fill-opacity="0.75" />
  <circle cx="313.5" cy="289.7" r="3" fill="#0d2b5c" fill-opacity="0.75" />
  <circle cx="428.5" cy="257.0" r="3" fill="#0d2b5c" fill-opacity="0.75" />
  <circle cx="914.8" cy="269.1" r="3" fill="#0d2b5c" fill-opacity="0.75" />
  <circle cx="500.8" cy="255.5" r="3" fill="#0d2b5c" fill-opacity="0.75" />
  <circle cx="49.7" cy="248.7" r="3" fill="#0d2b5c" fill-opacity="0.75" />
  <circle cx="702.2" cy="254.6" r="3" fill="#0d2b5c" fill-opacity="0.75" />
  <circle cx="1045.3" cy="253.7" r="3" fill="#0d2b5c" fill-opacity="0.75" />
  <circle cx="688.6" cy="253.5" r="3" fill="#0d2b5c" fill-opacity="0.75" />
  <circle cx="1030.8" cy="283.1" r="3" fill="#0d2b5c" fill-opacity="0.75" />
  <circle cx="523.9" cy="257.4" r="3" fill="#0d2b5c" fill-opacity="0.75" />
  <circle cx="1059.8" cy="260.9" r="3" fill="#0d2b5c" fill-opacity="0.75" />
  <circle cx="288.6" cy="254.5" r="3" fill="#0d2b5c" fill-opacity="0.75" />
  <circle cx="288.1" cy="235.9" r="3" fill="#0d2b5c" fill-opacity="0.75" />
  <circle cx="869.5" cy="265.7" r="3" fill="#0d2b5c" fill-opacity="0.75" />
  <circle cx="888.5" cy="230.9" r="3" fill="#0d2b5c" fill-opacity="0.75" />
  <circle cx="127.5" cy="258.1" r="3" fill="#0d2b5c" fill-opacity="0.75" />
  <circle cx="491.1" cy="244.3" r="3" fill="#0d2b5c" fill-opacity="0.75" />
  <circle cx="628.9" cy="266.0" r="3" fill="#0d2b5c" fill-opacity="0.75" />
  <circle cx="1095.1" cy="236.5" r="3" fill="#0d2b5c" fill-opacity="0.75" />
  <circle cx="267.7" cy="238.8" r="3" fill="#0d2b5c" fill-opacity="0.75" />
  <circle cx="935.4" cy="266.8" r="3" fill="#0d2b5c" fill-opacity="0.75" />
  <circle cx="309.8" cy="263.1" r="3" fill="#0d2b5c" fill-opacity="0.75" />
  <circle cx="509.9" cy="279.2" r="3" fill="#0d2b5c" fill-opacity="0.75" />
  <circle cx="428.4" cy="247.1" r="3" fill="#0d2b5c" fill-opacity="0.75" />
  <circle cx="564.1" cy="260.7" r="3" fill="#0d2b5c" fill-opacity="0.75" />
  <circle cx="432.6" cy="274.1" r="3" fill="#0d2b5c" fill-opacity="0.75" />
  <circle cx="868.2" cy="255.9" r="3" fill="#0d2b5c" fill-opacity="0.75" />
  <circle cx="626.7" cy="280.6" r="3" fill="#0d2b5c" fill-opacity="0.75" />
  <circle cx="454.3" cy="273.4" r="3" fill="#0d2b5c" fill-opacity="0.75" />
  <circle cx="647.9" cy="252.0" r="3" fill="#0d2b5c" fill-opacity="0.75" />
  <circle cx="862.1" cy="255.0" r="3" fill="#0d2b5c" fill-opacity="0.75" />
  <circle cx="530.9" cy="276.6" r="3" fill="#0d2b5c" fill-opacity="0.75" />
  <circle cx="743.4" cy="256.1" r="3" fill="#0d2b5c" fill-opacity="0.75" />
  <circle cx="581.8" cy="260.2" r="3" fill="#0d2b5c" fill-opacity="0.75" />
  <circle cx="716.7" cy="223.4" r="3" fill="#0d2b5c" fill-opacity="0.75" />
  <circle cx="1043.5" cy="291.3" r="3" fill="#0d2b5c" fill-opacity="0.75" />
  <circle cx="1042.1" cy="271.2" r="3" fill="#0d2b5c" fill-opacity="0.75" />
  <circle cx="900.7" cy="288.1" r="3" fill="#0d2b5c" fill-opacity="0.75" />
  <circle cx="702.0" cy="250.3" r="3" fill="#0d2b5c" fill-opacity="0.75" />
  <circle cx="575.9" cy="256.7" r="3" fill="#0d2b5c" fill-opacity="0.75" />
  <circle cx="816.5" cy="261.6" r="3" fill="#0d2b5c" fill-opacity="0.75" />
  <circle cx="73.3" cy="253.0" r="3" fill="#0d2b5c" fill-opacity="0.75" />
  <circle cx="620.4" cy="254.1" r="3" fill="#0d2b5c" fill-opacity="0.75" />
  <circle cx="1092.9" cy="275.4" r="3" fill="#0d2b5c" fill-opacity="0.75" />
  <circle cx="744.2" cy="246.2" r="3" fill="#0d2b5c" fill-opacity="0.75" />
  <circle cx="901.3" cy="284.1" r="3" fill="#0d2b5c" fill-opacity="0.75" />
  <circle cx="266.4" cy="254.5" r="3" fill="#0d2b5c" fill-opacity="0.75" />
  <circle cx="303.0" cy="269.7" r="3" fill="#0d2b5c" fill-opacity="0.75" />
  <circle cx="519.5" cy="269.1" r="3" fill="#0d2b5c" fill-opacity="0.75" />
  <circle cx="683.9" cy="296.5" r="3" fill="#0d2b5c" fill-opacity="0.75" />
  <circle cx="358.6" cy="271.2" r="3" fill="#0d2b5c" fill-opacity="0.75" />
  <circle cx="656.0" cy="296.6" r="3" fill="#0d2b5c" fill-opacity="0.75" />
  <circle cx="649.4" cy="263.7" r="3" fill="#0d2b5c" fill-opacity="0.75" />
  <circle cx="702.2" cy="263.0" r="3" fill="#0d2b5c" fill-opacity="0.75" />
  <circle cx="423.8" cy="264.2" r="3" fill="#0d2b5c" fill-opacity="0.75" />
  <circle cx="464.9" cy="248.3" r="3" fill="#0d2b5c" fill-opacity="0.75" />
  <circle cx="699.2" cy="245.3" r="3" fill="#0d2b5c" fill-opacity="0.75" />
  <circle cx="341.5" cy="256.4" r="3" fill="#0d2b5c" fill-opacity="0.75" />
  <circle cx="671.8" cy="276.3" r="3" fill="#0d2b5c" fill-opacity="0.75" />
  <circle cx="830.4" cy="251.7" r="3" fill="#0d2b5c" fill-opacity="0.75" />
  <circle cx="19.8" cy="227.3" r="3" fill="#0d2b5c" fill-opacity="0.75" />
  <circle cx="983.9" cy="260.8" r="3" fill="#0d2b5c" fill-opacity="0.75" />
  <circle cx="821.2" cy="233.5" r="3" fill="#0d2b5c" fill-opacity="0.75" />
  <circle cx="721.5" cy="261.1" r="3" fill="#0d2b5c" fill-opacity="0.75" />
  <circle cx="454.4" cy="241.9" r="3" fill="#0d2b5c" fill-opacity="0.75" />
  <circle cx="1073.1" cy="266.1" r="3" fill="#0d2b5c" fill-opacity="0.75" />
  <circle cx="403.5" cy="235.6" r="3" fill="#0d2b5c" fill-opacity="0.75" />
  <circle cx="820.6" cy="252.8" r="3" fill="#0d2b5c" fill-opacity="0.75" />
  <circle cx="469.1" cy="276.3" r="3" fill="#0d2b5c" fill-opacity="0.75" />
  <circle cx="949.7" cy="259.8" r="3" fill="#0d2b5c" fill-opacity="0.75" />
  <circle cx="543.0" cy="248.1" r="3" fill="#0d2b5c" fill-opacity="0.75" />
  <circle cx="1054.8" cy="254.9" r="3" fill="#0d2b5c" fill-opacity="0.75" />
  <circle cx="309.1" cy="249.5" r="3" fill="#0d2b5c" fill-opacity="0.75" />
  <circle cx="868.5" cy="276.7" r="3" fill="#0d2b5c" fill-opacity="0.75" />
  <circle cx="678.4" cy="253.5" r="3" fill="#0d2b5c" fill-opacity="0.75" />
  <circle cx="356.8" cy="273.1" r="3" fill="#0d2b5c" fill-opacity="0.75" />
  <circle cx="590.8" cy="288.1" r="3" fill="#0d2b5c" fill-opacity="0.75" />
  <circle cx="744.9" cy="251.2" r="3" fill="#0d2b5c" fill-opacity="0.75" />
  <circle cx="782.6" cy="282.9" r="3" fill="#0d2b5c" fill-opacity="0.75" />
  <circle cx="668.3" cy="244.7" r="3" fill="#0d2b5c" fill-opacity="0.75" />
  <circle cx="358.5" cy="275.6" r="3" fill="#0d2b5c" fill-opacity="0.75" />
  <circle cx="622.7" cy="279.0" r="3" fill="#0d2b5c" fill-opacity="0.75" />
  <circle cx="535.2" cy="267.0" r="3" fill="#0d2b5c" fill-opacity="0.75" />
  <circle cx="606.0" cy="240.8" r="3" fill="#0d2b5c" fill-opacity="0.75" />
  <circle cx="639.2" cy="243.8" r="3" fill="#0d2b5c" fill-opacity="0.75" />
  <circle cx="859.9" cy="264.9" r="3" fill="#0d2b5c" fill-opacity="0.75" />
  <circle cx="976.9" cy="280.3" r="3" fill="#0d2b5c" fill-opacity="0.75" />
  <circle cx="407.0" cy="279.6" r="3" fill="#0d2b5c" fill-opacity="0.75" />
  <circle cx="426.5" cy="294.5" r="3" fill="#0d2b5c" fill-opacity="0.75" />
  <circle cx="20.9" cy="269.2" r="3" fill="#0d2b5c" fill-opacity="0.75" />
  <circle cx="100.1" cy="251.4" r="3" fill="#0d2b5c" fill-opacity="0.75" />
  <circle cx="559.1" cy="261.3" r="3" fill="#0d2b5c" fill-opacity="0.75" />
  <circle cx="675.4" cy="274.5" r="3" fill="#0d2b5c" fill-opacity="0.75" />
  <circle cx="1030.8" cy="239.2" r="3" fill="#0d2b5c" fill-opacity="0.75" />
  <circle cx="472.5" cy="228.0" r="3" fill="#0d2b5c" fill-opacity="0.75" />
  <text x="24" y="496" font-family="Inter, system-ui, sans-serif" font-size="14" fill="#64748b">After rotation — variance spread evenly, cells carry information.</text>
</svg>
