<svg xmlns="http://www.w3.org/2000/svg" viewBox="0 0 1200 520" width="1200" height="520">
  <rect width="1200" height="520" fill="transparent" />
  <rect x="20.0" y="20.0" width="145.0" height="60.0" fill="transparent" fill-opacity="0" stroke="#cbd5e1" stroke-dasharray="2,4" />
  <rect x="20.0" y="80.0" width="145.0" height="60.0" fill="transparent" fill-opacity="0" stroke="#cbd5e1" stroke-dasharray="2,4" />
  <rect x="20.0" y="140.0" width="145.0" height="60.0" fill="transparent" fill-opacity="0" stroke="#cbd5e1" stroke-dasharray="2,4" />
  <rect x="20.0" y="200.0" width="145.0" height="60.0" fill="transparent" fill-opacity="0" stroke="#cbd5e1" stroke-dasharray="2,4" />
  <rect x="20.0" y="260.0" width="145.0" height="60.0" fill="transparent" fill-opacity="0" stroke="#cbd5e1" stroke-dasharray="2,4" />
  <rect x="20.0" y="320.0" width="145.0" height="60.0" fill="transparent" fill-opacity="0" stroke="#cbd5e1" stroke-dasharray="2,4" />
  <rect x="20.0" y="380.0" width="145.0" height="60.0" fill="#1f6feb" fill-opacity="0.14" stroke="#cbd5e1" stroke-dasharray="2,4" />
  <rect x="20.0" y="440.0" width="145.0" height="60.0" fill="transparent" fill-opacity="0" stroke="#cbd5e1" stroke-dasharray="2,4" />
  <rect x="165.0" y="20.0" width="145.0" height="60.0" fill="transparent" fill-opacity="0" stroke="#cbd5e1" stroke-dasharray="2,4" />
  <rect x="165.0" y="80.0" width="145.0" height="60.0" fill="transparent" fill-opacity="0" stroke="#cbd5e1" stroke-dasharray="2,4" />
  <rect x="165.0" y="140.0" width="145.0" height="60.0" fill="transparent" fill-opacity="0" stroke="#cbd5e1" stroke-dasharray="2,4" />
  <rect x="165.0" y="200.0" width="145.0" height="60.0" fill="transparent" fill-opacity="0" stroke="#cbd5e1" stroke-dasharray="2,4" />
  <rect x="165.0" y="260.0" width="145.0" height="60.0" fill="transparent" fill-opacity="0" stroke="#cbd5e1" stroke-dasharray="2,4" />
  <rect x="165.0" y="320.0" width="145.0" height="60.0" fill="#1f6feb" fill-opacity="0.14" stroke="#cbd5e1" stroke-dasharray="2,4" />
  <rect x="165.0" y="380.0" width="145.0" height="60.0" fill="#1f6feb" fill-opacity="0.14" stroke="#cbd5e1" stroke-dasharray="2,4" />
  <rect x="165.0" y="440.0" width="145.0" height="60.0" fill="transparent" fill-opacity="0" stroke="#cbd5e1" stroke-dasharray="2,4" />
  <rect x="310.0" y="20.0" width="145.0" height="60.0" fill="transparent" fill-opacity="0" stroke="#cbd5e1" stroke-dasharray="2,4" />
  <rect x="310.0" y="80.0" width="145.0" height="60.0" fill="transparent" fill-opacity="0" stroke="#cbd5e1" stroke-dasharray="2,4" />
  <rect x="310.0" y="140.0" width="145.0" height="60.0" fill="transparent" fill-opacity="0" stroke="#cbd5e1" stroke-dasharray="2,4" />
  <rect x="310.0" y="200.0" width="145.0" height="60.0" fill="transparent" fill-opacity="0" stroke="#cbd5e1" stroke-dasharray="2,4" />
  <rect x="310.0" y="260.0" width="145.0" height="60.0" fill="#1f6feb" fill-opacity="0.14" stroke="#cbd5e1" stroke-dasharray="2,4" />
  <rect x="310.0" y="320.0" width="145.0" height="60.0" fill="#1f6feb" fill-opacity="0.14" stroke="#cbd5e1" stroke-dasharray="2,4" />
  <rect x="310.0" y="380.0" width="145.0" height="60.0" fill="#1f6feb" fill-opacity="0.14" stroke="#cbd5e1" stroke-dasharray="2,4" />
  <rect x="310.0" y="440.0" width="145.0" height="60.0" fill="transparent" fill-opacity="0" stroke="#cbd5e1" stroke-dasharray="2,4" />
  <rect x="455.0" y="20.0" width="145.0" height="60.0" fill="transparent" fill-opacity="0" stroke="#cbd5e1" stroke-dasharray="2,4" />
  <rect x="455.0" y="80.0" width="145.0" height="60.0" fill="transparent" fill-opacity="0" stroke="#cbd5e1" stroke-dasharray="2,4" />
  <rect x="455.0" y="140.0" width="145.0" height="60.0" fill="transparent" fill-opacity="0" stroke="#cbd5e1" stroke-dasharray="2,4" />
  <rect x="455.0" y="200.0" width="145.0" height="60.0" fill="#1f6feb" fill-opacity="0.14" stroke="#cbd5e1" stroke-dasharray="2,4" />
  <rect x="455.0" y="260.0" width="145.0" height="60.0" fill="#1f6feb" fill-opacity="0.14" stroke="#cbd5e1" stroke-dasharray="2,4" />
  <rect x="455.0" y="320.0" width="145.0" height="60.0" fill="#1f6feb" fill-opacity="0.14" stroke="#cbd5e1" stroke-dasharray="2,4" />
  <rect x="455.0" y="380.0" width="145.0" height="60.0" fill="transparent" fill-opacity="0" stroke="#cbd5e1" stroke-dasharray="2,4" />
  <rect x="455.0" y="440.0" width="145.0" height="60.0" fill="transparent" fill-opacity="0" stroke="#cbd5e1" stroke-dasharray="2,4" />
  <rect x="600.0" y="20.0" width="145.0" height="60.0" fill="transparent" fill-opacity="0" stroke="#cbd5e1" stroke-dasharray="2,4" />
  <rect x="600.0" y="80.0" width="145.0" height="60.0" fill="transparent" fill-opacity="0" stroke="#cbd5e1" stroke-dasharray="2,4" />
  <rect x="600.0" y="140.0" width="145.0" height="60.0" fill="#1f6feb" fill-opacity="0.14" stroke="#cbd5e1" stroke-dasharray="2,4" />
  <rect x="600.0" y="200.0" width="145.0" height="60.0" fill="#1f6feb" fill-opacity="0.14" stroke="#cbd5e1" stroke-dasharray="2,4" />
  <rect x="600.0" y="260.0" width="145.0" height="60.0" fill="#1f6feb" fill-opacity="0.14" stroke="#cbd5e1" stroke-dasharray="2,4" />
  <rect x="600.0" y="320.0" width="145.0" height="60.0" fill="transparent" fill-opacity="0" stroke="#cbd5e1" stroke-dasharray="2,4" />
  <rect x="600.0" y="380.0" width="145.0" height="60.0" fill="transparent" fill-opacity="0" stroke="#cbd5e1" stroke-dasharray="2,4" />
  <rect x="600.0" y="440.0" width="145.0" height="60.0" fill="transparent" fill-opacity="0" stroke="#cbd5e1" stroke-dasharray="2,4" />
  <rect x="745.0" y="20.0" width="145.0" height="60.0" fill="transparent" fill-opacity="0" stroke="#cbd5e1" stroke-dasharray="2,4" />
  <rect x="745.0" y="80.0" width="145.0" height="60.0" fill="#1f6feb" fill-opacity="0.14" stroke="#cbd5e1" stroke-dasharray="2,4" />
  <rect x="745.0" y="140.0" width="145.0" height="60.0" fill="#1f6feb" fill-opacity="0.14" stroke="#cbd5e1" stroke-dasharray="2,4" />
  <rect x="745.0" y="200.0" width="145.0" height="60.0" fill="#1f6feb" fill-opacity="0.14" stroke="#cbd5e1" stroke-dasharray="2,4" />
  <rect x="745.0" y="260.0" width="145.0" height="60.0" fill="transparent" fill-opacity="0" stroke="#cbd5e1" stroke-dasharray="2,4" />
  <rect x="745.0" y="320.0" width="145.0" height="60.0" fill="transparent" fill-opacity="0" stroke="#cbd5e1" stroke-dasharray="2,4" />
  <rect x="745.0" y="380.0" width="145.0" height="60.0" fill="transparent" fill-opacity="0" stroke="#cbd5e1" stroke-dasharray="2,4" />
  <rect x="745.0" y="440.0" width="145.0" height="60.0" fill="transparent" fill-opacity="0" stroke="#cbd5e1" stroke-dasharray="2,4" />
  <rect x="890.0" y="20.0" width="145.0" height="60.0" fill="transparent" fill-opacity="0" stroke="#cbd5e1" stroke-dasharray="2,4" />
  <rect x="890.0" y="80.0" width="145.0" height="60.0" fill="#1f6feb" fill-opacity="0.14" stroke="#cbd5e1" stroke-dasharray="2,4" />
  <rect x="890.0" y="140.0" width="145.0" height="60.0" fill="#1f6feb" fill-opacity="0.14" stroke="#cbd5e1" stroke-dasharray="2,4" />
  <rect x="890.0" y="200.0" width="145.0" height="60.0" fill="transparent" fill-opacity="0" stroke="#cbd5e1" stroke-dasharray="2,4" />
  <rect x="890.0" y="260.0" width="145.0" height="60.0" fill="transparent" fill-opacity="0" stroke="#cbd5e1" stroke-dasharray="2,4" />
  <rect x="890.0" y="320.0" width="145.0" height="60.0" fill="transparent" fill-opacity="0" stroke="#cbd5e1" stroke-dasharray="2,4" />
  <rect x="890.0" y="380.0" width="145.0" height="60.0" fill="transparent" fill-opacity="0" stroke="#cbd5e1" stroke-dasharray="2,4" />
  <rect x="890.0" y="440.0" width="145.0" height="60.0" fill="transparent" fill-opacity="0" stroke="#cbd5e1" stroke-dasharray="2,4" />
  <rect x="1035.0" y="20.0" width="145.0" height="60.0" fill="transparent" fill-opacity="0" stroke="#cbd5e1" stroke-dasharray="2,4" />
  <rect x="1035.0" y="80.0" width="145.0" height="60.0" fill="transparent" fill-opacity="0" stroke="#cbd5e1" stroke-dasharray="2,4" />
  <rect x="1035.0" y="140.0" width="145.0" height="60.0" fill="transparent" fill-opacity="0" stroke="#cbd5e1" stroke-dasharray="2,4" />
  <rect x="1035.0" y="200.0" width="145.0" height="60.0" fill="transparent" fill-opacity="0" stroke="#cbd5e1" stroke-dasharray="2,4" />
  <rect x="1035.0" y="260.0" width="145.0" height="60.0" fill="transparent" fill-opacity="0" stroke="#cbd5e1" stroke-dasharray="2,4" />
  <rect x="1035.0" y="320.0" width="145.0" height="60.0" fill="transparent" fill-opacity="0" stroke="#cbd5e1" stroke-dasharray="2,4" />
  <rect x="1035.0" y="380.0" width="145.0" height="60.0" fill="transparent" fill-opacity="0" stroke="#cbd5e1" stroke-dasharray="2,4" />
  <rect x="1035.0" y="440.0" width="145.0" height="60.0" fill="transparent" fill-opacity="0" stroke="#cbd5e1" stroke-dasharray="2,4" />
  <circle cx="441.0" cy="365.5" r="3" fill="#0d2b5c" fill-opacity="0.75" />
  <circle cx="532.2" cy="249.7" r="3" fill="#0d2b5c" fill-opacity="0.75" />
  <circle cx="830.7" cy="179.0" r="3" fill="#0d2b5c" fill-opacity="0.75" />
  <circle cx="935.2" cy="144.4" r="3" fill="#0d2b5c" fill-opacity="0.75" />
  <circle cx="757.1" cy="201.5" r="3" fill="#0d2b5c" fill-opacity="0.75" />
  <circle cx="538.5" cy="267.0" r="3" fill="#0d2b5c" fill-opacity="0.75" />
  <circle cx="739.4" cy="172.5" r="3" fill="#0d2b5c" fill-opacity="0.75" />
  <circle cx="329.3" cy="372.5" r="3" fill="#0d2b5c" fill-opacity="0.75" />
  <circle cx="618.9" cy="294.3" r="3" fill="#0d2b5c" fill-opacity="0.75" />
  <circle cx="831.1" cy="157.7" r="3" fill="#0d2b5c" fill-opacity="0.75" />
  <circle cx="316.6" cy="354.4" r="3" fill="#0d2b5c" fill-opacity="0.75" />
  <circle cx="790.4" cy="206.8" r="3" fill="#0d2b5c" fill-opacity="0.75" />
  <circle cx="415.4" cy="341.0" r="3" fill="#0d2b5c" fill-opacity="0.75" />
  <circle cx="661.2" cy="196.1" r="3" fill="#0d2b5c" fill-opacity="0.75" />
  <circle cx="271.8" cy="365.1" r="3" fill="#0d2b5c" fill-opacity="0.75" />
  <circle cx="666.9" cy="257.3" r="3" fill="#0d2b5c" fill-opacity="0.75" />
  <circle cx="777.5" cy="201.9" r="3" fill="#0d2b5c" fill-opacity="0.75" />
  <circle cx="782.1" cy="202.3" r="3" fill="#0d2b5c" fill-opacity="0.75" />
  <circle cx="467.2" cy="333.2" r="3" fill="#0d2b5c" fill-opacity="0.75" />
  <circle cx="738.9" cy="215.4" r="3" fill="#0d2b5c" fill-opacity="0.75" />
  <circle cx="580.4" cy="225.5" r="3" fill="#0d2b5c" fill-opacity="0.75" />
  <circle cx="468.2" cy="292.1" r="3" fill="#0d2b5c" fill-opacity="0.75" />
  <circle cx="953.5" cy="111.1" r="3" fill="#0d2b5c" fill-opacity="0.75" />
  <circle cx="353.3" cy="349.6" r="3" fill="#0d2b5c" fill-opacity="0.75" />
  <circle cx="614.5" cy="258.9" r="3" fill="#0d2b5c" fill-opacity="0.75" />
  <circle cx="461.6" cy="272.9" r="3" fill="#0d2b5c" fill-opacity="0.75" />
  <circle cx="825.8" cy="126.3" r="3" fill="#0d2b5c" fill-opacity="0.75" />
  <circle cx="524.6" cy="312.9" r="3" fill="#0d2b5c" fill-opacity="0.75" />
  <circle cx="703.4" cy="231.8" r="3" fill="#0d2b5c" fill-opacity="0.75" />
  <circle cx="500.4" cy="346.3" r="3" fill="#0d2b5c" fill-opacity="0.75" />
  <circle cx="478.8" cy="276.6" r="3" fill="#0d2b5c" fill-opacity="0.75" />
  <circle cx="497.1" cy="264.0" r="3" fill="#0d2b5c" fill-opacity="0.75" />
  <circle cx="821.4" cy="206.5" r="3" fill="#0d2b5c" fill-opacity="0.75" />
  <circle cx="341.1" cy="333.2" r="3" fill="#0d2b5c" fill-opacity="0.75" />
  <circle cx="562.3" cy="270.7" r="3" fill="#0d2b5c" fill-opacity="0.75" />
  <circle cx="617.3" cy="204.9" r="3" fill="#0d2b5c" fill-opacity="0.75" />
  <circle cx="661.8" cy="247.0" r="3" fill="#0d2b5c" fill-opacity="0.75" />
  <circle cx="530.5" cy="284.8" r="3" fill="#0d2b5c" fill-opacity="0.75" />
  <circle cx="535.1" cy="264.2" r="3" fill="#0d2b5c" fill-opacity="0.75" />
  <circle cx="443.8" cy="308.6" r="3" fill="#0d2b5c" fill-opacity="0.75" />
  <circle cx="717.1" cy="196.9" r="3" fill="#0d2b5c" fill-opacity="0.75" />
  <circle cx="820.3" cy="135.9" r="3" fill="#0d2b5c" fill-opacity="0.75" />
  <circle cx="781.8" cy="192.3" r="3" fill="#0d2b5c" fill-opacity="0.75" />
  <circle cx="351.9" cy="357.3" r="3" fill="#0d2b5c" fill-opacity="0.75" />
  <circle cx="223.8" cy="384.2" r="3" fill="#0d2b5c" fill-opacity="0.75" />
  <circle cx="299.8" cy="382.1" r="3" fill="#0d2b5c" fill-opacity="0.75" />
  <circle cx="663.8" cy="234.1" r="3" fill="#0d2b5c" fill-opacity="0.75" />
  <circle cx="699.7" cy="249.5" r="3" fill="#0d2b5c" fill-opacity="0.75" />
  <circle cx="857.2" cy="164.0" r="3" fill="#0d2b5c" fill-opacity="0.75" />
  <circle cx="667.1" cy="250.1" r="3" fill="#0d2b5c" fill-opacity="0.75" />
  <circle cx="736.0" cy="223.6" r="3" fill="#0d2b5c" fill-opacity="0.75" />
  <circle cx="442.1" cy="296.8" r="3" fill="#0d2b5c" fill-opacity="0.75" />
  <circle cx="701.1" cy="251.3" r="3" fill="#0d2b5c" fill-opacity="0.75" />
  <circle cx="719.3" cy="194.9" r="3" fill="#0d2b5c" fill-opacity="0.75" />
  <circle cx="787.1" cy="145.9" r="3" fill="#0d2b5c" fill-opacity="0.75" />
  <circle cx="579.2" cy="304.1" r="3" fill="#0d2b5c" fill-opacity="0.75" />
  <circle cx="831.1" cy="142.7" r="3" fill="#0d2b5c" fill-opacity="0.75" />
  <circle cx="324.3" cy="396.5" r="3" fill="#0d2b5c" fill-opacity="0.75" />
  <circle cx="378.1" cy="362.3" r="3" fill="#0d2b5c" fill-opacity="0.75" />
  <circle cx="682.0" cy="215.5" r="3" fill="#0d2b5c" fill-opacity="0.75" />
  <circle cx="367.5" cy="345.6" r="3" fill="#0d2b5c" fill-opacity="0.75" />
  <circle cx="833.5" cy="155.8" r="3" fill="#0d2b5c" fill-opacity="0.75" />
  <circle cx="755.3" cy="214.8" r="3" fill="#0d2b5c" fill-opacity="0.75" />
  <circle cx="526.4" cy="245.5" r="3" fill="#0d2b5c" fill-opacity="0.75" />
  <circle cx="559.6" cy="273.5" r="3" fill="#0d2b5c" fill-opacity="0.75" />
  <circle cx="950.8" cy="134.8" r="3" fill="#0d2b5c" fill-opacity="0.75" />
  <circle cx="401.9" cy="343.1" r="3" fill="#0d2b5c" fill-opacity="0.75" />
  <circle cx="600.3" cy="267.4" r="3" fill="#0d2b5c" fill-opacity="0.75" />
  <circle cx="595.0" cy="236.3" r="3" fill="#0d2b5c" fill-opacity="0.75" />
  <circle cx="579.7" cy="269.3" r="3" fill="#0d2b5c" fill-opacity="0.75" />
  <circle cx="741.7" cy="247.4" r="3" fill="#0d2b5c" fill-opacity="0.75" />
  <circle cx="692.2" cy="192.1" r="3" fill="#0d2b5c" fill-opacity="0.75" />
  <circle cx="442.9" cy="330.0" r="3" fill="#0d2b5c" fill-opacity="0.75" />
  <circle cx="783.4" cy="208.4" r="3" fill="#0d2b5c" fill-opacity="0.75" />
  <circle cx="695.6" cy="229.5" r="3" fill="#0d2b5c" fill-opacity="0.75" />
  <circle cx="525.3" cy="328.4" r="3" fill="#0d2b5c" fill-opacity="0.75" />
  <circle cx="616.9" cy="275.9" r="3" fill="#0d2b5c" fill-opacity="0.75" />
  <circle cx="977.8" cy="99.2" r="3" fill="#0d2b5c" fill-opacity="0.75" />
  <circle cx="543.6" cy="290.3" r="3" fill="#0d2b5c" fill-opacity="0.75" />
  <circle cx="823.2" cy="175.9" r="3" fill="#0d2b5c" fill-opacity="0.75" />
  <circle cx="853.3" cy="152.8" r="3" fill="#0d2b5c" fill-opacity="0.75" />
  <circle cx="904.4" cy="132.0" r="3" fill="#0d2b5c" fill-opacity="0.75" />
  <circle cx="572.1" cy="270.0" r="3" fill="#0d2b5c" fill-opacity="0.75" />
  <circle cx="434.7" cy="311.4" r="3" fill="#0d2b5c" fill-opacity="0.75" />
  <circle cx="601.3" cy="280.3" r="3" fill="#0d2b5c" fill-opacity="0.75" />
  <circle cx="711.2" cy="202.9" r="3" fill="#0d2b5c" fill-opacity="0.75" />
  <circle cx="633.0" cy="237.7" r="3" fill="#0d2b5c" fill-opacity="0.75" />
  <circle cx="724.6" cy="241.7" r="3" fill="#0d2b5c" fill-opacity="0.75" />
  <circle cx="589.0" cy="241.2" r="3" fill="#0d2b5c" fill-opacity="0.75" />
  <circle cx="564.3" cy="283.2" r="3" fill="#0d2b5c" fill-opacity="0.75" />
  <circle cx="640.4" cy="256.9" r="3" fill="#0d2b5c" fill-opacity="0.75" />
  <circle cx="828.8" cy="141.2" r="3" fill="#0d2b5c" fill-opacity="0.75" />
  <circle cx="897.8" cy="154.8" r="3" fill="#0d2b5c" fill-opacity="0.75" />
  <circle cx="472.1" cy="307.6" r="3" fill="#0d2b5c" fill-opacity="0.75" />
  <circle cx="747.4" cy="185.5" r="3" fill="#0d2b5c" fill-opacity="0.75" />
  <circle cx="641.1" cy="219.1" r="3" fill="#0d2b5c" fill-opacity="0.75" />
  <circle cx="768.0" cy="184.3" r="3" fill="#0d2b5c" fill-opacity="0.75" />
  <circle cx="597.8" cy="281.7" r="3" fill="#0d2b5c" fill-opacity="0.75" />
  <circle cx="794.3" cy="220.2" r="3" fill="#0d2b5c" fill-opacity="0.75" />
  <circle cx="596.1" cy="250.1" r="3" fill="#0d2b5c" fill-opacity="0.75" />
  <circle cx="627.7" cy="247.9" r="3" fill="#0d2b5c" fill-opacity="0.75" />
  <circle cx="499.2" cy="259.0" r="3" fill="#0d2b5c" fill-opacity="0.75" />
  <circle cx="338.4" cy="378.4" r="3" fill="#0d2b5c" fill-opacity="0.75" />
  <circle cx="298.7" cy="410.5" r="3" fill="#0d2b5c" fill-opacity="0.75" />
  <circle cx="630.1" cy="214.4" r="3" fill="#0d2b5c" fill-opacity="0.75" />
  <circle cx="770.1" cy="153.1" r="3" fill="#0d2b5c" fill-opacity="0.75" />
  <circle cx="497.7" cy="306.3" r="3" fill="#0d2b5c" fill-opacity="0.75" />
  <circle cx="511.5" cy="286.6" r="3" fill="#0d2b5c" fill-opacity="0.75" />
  <circle cx="621.6" cy="269.0" r="3" fill="#0d2b5c" fill-opacity="0.75" />
  <circle cx="985.8" cy="98.0" r="3" fill="#0d2b5c" fill-opacity="0.75" />
  <circle cx="471.0" cy="285.8" r="3" fill="#0d2b5c" fill-opacity="0.75" />
  <circle cx="762.0" cy="208.3" r="3" fill="#0d2b5c" fill-opacity="0.75" />
  <circle cx="747.2" cy="237.2" r="3" fill="#0d2b5c" fill-opacity="0.75" />
  <circle cx="540.5" cy="258.7" r="3" fill="#0d2b5c" fill-opacity="0.75" />
  <circle cx="410.0" cy="329.1" r="3" fill="#0d2b5c" fill-opacity="0.75" />
  <circle cx="937.6" cy="130.9" r="3" fill="#0d2b5c" fill-opacity="0.75" />
  <circle cx="642.3" cy="253.8" r="3" fill="#0d2b5c" fill-opacity="0.75" />
  <circle cx="656.8" cy="262.4" r="3" fill="#0d2b5c" fill-opacity="0.75" />
  <circle cx="581.5" cy="256.6" r="3" fill="#0d2b5c" fill-opacity="0.75" />
  <circle cx="659.3" cy="265.6" r="3" fill="#0d2b5c" fill-opacity="0.75" />
  <circle cx="465.6" cy="300.1" r="3" fill="#0d2b5c" fill-opacity="0.75" />
  <circle cx="838.2" cy="173.1" r="3" fill="#0d2b5c" fill-opacity="0.75" />
  <circle cx="565.5" cy="248.9" r="3" fill="#0d2b5c" fill-opacity="0.75" />
  <circle cx="264.9" cy="334.1" r="3" fill="#0d2b5c" fill-opacity="0.75" />
  <circle cx="654.7" cy="261.6" r="3" fill="#0d2b5c" fill-opacity="0.75" />
  <circle cx="375.9" cy="340.2" r="3" fill="#0d2b5c" fill-opacity="0.75" />
  <circle cx="403.3" cy="312.9" r="3" fill="#0d2b5c" fill-opacity="0.75" />
  <circle cx="391.5" cy="321.4" r="3" fill="#0d2b5c" fill-opacity="0.75" />
  <circle cx="597.3" cy="289.3" r="3" fill="#0d2b5c" fill-opacity="0.75" />
  <circle cx="451.3" cy="334.5" r="3" fill="#0d2b5c" fill-opacity="0.75" />
  <circle cx="523.0" cy="289.0" r="3" fill="#0d2b5c" fill-opacity="0.75" />
  <circle cx="214.0" cy="396.8" r="3" fill="#0d2b5c" fill-opacity="0.75" />
  <circle cx="482.1" cy="289.4" r="3" fill="#0d2b5c" fill-opacity="0.75" />
  <circle cx="601.0" cy="278.1" r="3" fill="#0d2b5c" fill-opacity="0.75" />
  <circle cx="744.9" cy="232.3" r="3" fill="#0d2b5c" fill-opacity="0.75" />
  <circle cx="626.6" cy="250.9" r="3" fill="#0d2b5c" fill-opacity="0.75" />
  <circle cx="533.6" cy="261.9" r="3" fill="#0d2b5c" fill-opacity="0.75" />
  <circle cx="891.8" cy="141.0" r="3" fill="#0d2b5c" fill-opacity="0.75" />
  <circle cx="552.5" cy="305.4" r="3" fill="#0d2b5c" fill-opacity="0.75" />
  <circle cx="885.2" cy="158.1" r="3" fill="#0d2b5c" fill-opacity="0.75" />
  <circle cx="474.5" cy="308.6" r="3" fill="#0d2b5c" fill-opacity="0.75" />
  <circle cx="616.9" cy="266.1" r="3" fill="#0d2b5c" fill-opacity="0.75" />
  <circle cx="329.5" cy="354.8" r="3" fill="#0d2b5c" fill-opacity="0.75" />
  <circle cx="712.4" cy="199.0" r="3" fill="#0d2b5c" fill-opacity="0.75" />
  <circle cx="526.8" cy="268.5" r="3" fill="#0d2b5c" fill-opacity="0.75" />
  <circle cx="324.3" cy="347.8" r="3" fill="#0d2b5c" fill-opacity="0.75" />
  <circle cx="554.2" cy="277.3" r="3" fill="#0d2b5c" fill-opacity="0.75" />
  <circle cx="620.3" cy="235.0" r="3" fill="#0d2b5c" fill-opacity="0.75" />
  <circle cx="645.6" cy="257.2" r="3" fill="#0d2b5c" fill-opacity="0.75" />
  <circle cx="529.9" cy="294.5" r="3" fill="#0d2b5c" fill-opacity="0.75" />
  <circle cx="811.4" cy="183.4" r="3" fill="#0d2b5c" fill-opacity="0.75" />
  <circle cx="424.2" cy="329.2" r="3" fill="#0d2b5c" fill-opacity="0.75" />
  <circle cx="662.6" cy="277.3" r="3" fill="#0d2b5c" fill-opacity="0.75" />
  <circle cx="563.7" cy="281.3" r="3" fill="#0d2b5c" fill-opacity="0.75" />
  <circle cx="917.9" cy="129.1" r="3" fill="#0d2b5c" fill-opacity="0.75" />
  <circle cx="566.5" cy="289.2" r="3" fill="#0d2b5c" fill-opacity="0.75" />
  <circle cx="520.8" cy="326.8" r="3" fill="#0d2b5c" fill-opacity="0.75" />
  <circle cx="472.5" cy="321.0" r="3" fill="#0d2b5c" fill-opacity="0.75" />
  <circle cx="908.6" cy="130.1" r="3" fill="#0d2b5c" fill-opacity="0.75" />
  <circle cx="373.8" cy="312.8" r="3" fill="#0d2b5c" fill-opacity="0.75" />
  <circle cx="435.3" cy="347.5" r="3" fill="#0d2b5c" fill-opacity="0.75" />
  <circle cx="784.8" cy="145.4" r="3" fill="#0d2b5c" fill-opacity="0.75" />
  <circle cx="702.7" cy="209.5" r="3" fill="#0d2b5c" fill-opacity="0.75" />
  <circle cx="655.9" cy="212.8" r="3" fill="#0d2b5c" fill-opacity="0.75" />
  <circle cx="379.4" cy="354.6" r="3" fill="#0d2b5c" fill-opacity="0.75" />
  <circle cx="684.6" cy="212.3" r="3" fill="#0d2b5c" fill-opacity="0.75" />
  <circle cx="790.0" cy="150.2" r="3" fill="#0d2b5c" fill-opacity="0.75" />
  <circle cx="448.7" cy="355.6" r="3" fill="#0d2b5c" fill-opacity="0.75" />
  <circle cx="590.9" cy="270.7" r="3" fill="#0d2b5c" fill-opacity="0.75" />
  <circle cx="391.5" cy="351.7" r="3" fill="#0d2b5c" fill-opacity="0.75" />
  <circle cx="629.6" cy="231.4" r="3" fill="#0d2b5c" fill-opacity="0.75" />
  <circle cx="341.6" cy="341.4" r="3" fill="#0d2b5c" fill-opacity="0.75" />
  <circle cx="637.7" cy="212.0" r="3" fill="#0d2b5c" fill-opacity="0.75" />
  <circle cx="390.1" cy="364.2" r="3" fill="#0d2b5c" fill-opacity="0.75" />
  <circle cx="829.6" cy="164.8" r="3" fill="#0d2b5c" fill-opacity="0.75" />
  <circle cx="549.3" cy="235.0" r="3" fill="#0d2b5c" fill-opacity="0.75" />
  <circle cx="487.7" cy="298.5" r="3" fill="#0d2b5c" fill-opacity="0.75" />
  <circle cx="518.9" cy="284.0" r="3" fill="#0d2b5c" fill-opacity="0.75" />
  <circle cx="468.7" cy="305.0" r="3" fill="#0d2b5c" fill-opacity="0.75" />
  <circle cx="729.1" cy="184.5" r="3" fill="#0d2b5c" fill-opacity="0.75" />
  <circle cx="658.1" cy="248.9" r="3" fill="#0d2b5c" fill-opacity="0.75" />
  <circle cx="392.8" cy="330.6" r="3" fill="#0d2b5c" fill-opacity="0.75" />
  <circle cx="551.7" cy="267.6" r="3" fill="#0d2b5c" fill-opacity="0.75" />
  <circle cx="805.1" cy="179.5" r="3" fill="#0d2b5c" fill-opacity="0.75" />
  <circle cx="732.3" cy="229.8" r="3" fill="#0d2b5c" fill-opacity="0.75" />
  <circle cx="860.1" cy="129.5" r="3" fill="#0d2b5c" fill-opacity="0.75" />
  <circle cx="691.3" cy="205.8" r="3" fill="#0d2b5c" fill-opacity="0.75" />
  <circle cx="609.8" cy="222.6" r="3" fill="#0d2b5c" fill-opacity="0.75" />
  <circle cx="483.3" cy="302.1" r="3" fill="#0d2b5c" fill-opacity="0.75" />
  <circle cx="504.8" cy="314.5" r="3" fill="#0d2b5c" fill-opacity="0.75" />
  <circle cx="420.7" cy="344.0" r="3" fill="#0d2b5c" fill-opacity="0.75" />
  <circle cx="452.7" cy="312.7" r="3" fill="#0d2b5c" fill-opacity="0.75" />
  <circle cx="704.1" cy="206.0" r="3" fill="#0d2b5c" fill-opacity="0.75" />
  <circle cx="183.6" cy="412.2" r="3" fill="#0d2b5c" fill-opacity="0.75" />
  <circle cx="786.9" cy="204.5" r="3" fill="#0d2b5c" fill-opacity="0.75" />
  <circle cx="560.4" cy="275.6" r="3" fill="#0d2b5c" fill-opacity="0.75" />
  <circle cx="657.2" cy="264.5" r="3" fill="#0d2b5c" fill-opacity="0.75" />
  <circle cx="501.6" cy="295.1" r="3" fill="#0d2b5c" fill-opacity="0.75" />
  <circle cx="676.8" cy="233.1" r="3" fill="#0d2b5c" fill-opacity="0.75" />
  <circle cx="267.3" cy="390.9" r="3" fill="#0d2b5c" fill-opacity="0.75" />
  <circle cx="754.1" cy="205.7" r="3" fill="#0d2b5c" fill-opacity="0.75" />
  <circle cx="378.5" cy="339.4" r="3" fill="#0d2b5c" fill-opacity="0.75" />
  <circle cx="642.4" cy="221.4" r="3" fill="#0d2b5c" fill-opacity="0.75" />
  <circle cx="672.1" cy="236.5" r="3" fill="#0d2b5c" fill-opacity="0.75" />
  <circle cx="842.2" cy="156.0" r="3" fill="#0d2b5c" fill-opacity="0.75" />
  <circle cx="448.2" cy="364.9" r="3" fill="#0d2b5c" fill-opacity="0.75" />
  <circle cx="473.7" cy="308.1" r="3" fill="#0d2b5c" fill-opacity="0.75" />
  <circle cx="838.1" cy="174.3" r="3" fill="#0d2b5c" fill-opacity="0.75" />
  <circle cx="522.2" cy="285.8" r="3" fill="#0d2b5c" fill-opacity="0.75" />
  <circle cx="191.6" cy="413.0" r="3" fill="#0d2b5c" fill-opacity="0.75" />
  <circle cx="663.0" cy="226.2" r="3" fill="#0d2b5c" fill-opacity="0.75" />
  <circle cx="904.2" cy="125.3" r="3" fill="#0d2b5c" fill-opacity="0.75" />
  <circle cx="651.5" cy="229.5" r="3" fill="#0d2b5c" fill-opacity="0.75" />
  <circle cx="944.1" cy="150.3" r="3" fill="#0d2b5c" fill-opacity="0.75" />
  <circle cx="541.8" cy="280.4" r="3" fill="#0d2b5c" fill-opacity="0.75" />
  <circle cx="926.7" cy="126.1" r="3" fill="#0d2b5c" fill-opacity="0.75" />
  <circle cx="370.4" cy="347.3" r="3" fill="#0d2b5c" fill-opacity="0.75" />
  <circle cx="338.3" cy="334.2" r="3" fill="#0d2b5c" fill-opacity="0.75" />
  <circle cx="800.4" cy="185.2" r="3" fill="#0d2b5c" fill-opacity="0.75" />
  <circle cx="754.3" cy="155.1" r="3" fill="#0d2b5c" fill-opacity="0.75" />
  <circle cx="262.7" cy="396.9" r="3" fill="#0d2b5c" fill-opacity="0.75" />
  <circle cx="496.2" cy="280.8" r="3" fill="#0d2b5c" fill-opacity="0.75" />
  <circle cx="630.8" cy="255.8" r="3" fill="#0d2b5c" fill-opacity="0.75" />
  <circle cx="910.0" cy="98.5" r="3" fill="#0d2b5c" fill-opacity="0.75" />
  <circle cx="328.8" cy="342.3" r="3" fill="#0d2b5c" fill-opacity="0.75" />
  <circle cx="848.8" cy="166.7" r="3" fill="#0d2b5c" fill-opacity="0.75" />
  <circle cx="400.2" cy="347.1" r="3" fill="#0d2b5c" fill-opacity="0.75" />
  <circle cx="569.1" cy="299.9" r="3" fill="#0d2b5c" fill-opacity="0.75" />
  <circle cx="456.7" cy="301.1" r="3" fill="#0d2b5c" fill-opacity="0.75" />
  <circle cx="575.7" cy="271.0" r="3" fill="#0d2b5c" fill-opacity="0.75" />
  <circle cx="505.7" cy="318.9" r="3" fill="#0d2b5c" fill-opacity="0.75" />
  <circle cx="782.5" cy="178.6" r="3" fill="#0d2b5c" fill-opacity="0.75" />
  <circle cx="654.1" cy="266.7" r="3" fill="#0d2b5c" fill-opacity="0.75" />
  <circle cx="519.8" cy="312.1" r="3" fill="#0d2b5c" fill-opacity="0.75" />
  <circle cx="620.2" cy="240.3" r="3" fill="#0d2b5c" fill-opacity="0.75" />
  <circle cx="776.9" cy="179.8" r="3" fill="#0d2b5c" fill-opacity="0.75" />
  <circle cx="579.5" cy="291.9" r="3" fill="#0d2b5c" fill-opacity="0.75" />
  <circle cx="694.8" cy="215.3" r="3" fill="#0d2b5c" fill-opacity="0.75" />
  <circle cx="587.5" cy="265.5" r="3" fill="#0d2b5c" fill-opacity="0.75" />
  <circle cx="620.0" cy="200.0" r="3" fill="#0d2b5c" fill-opacity="0.75" />
  <circle cx="967.0" cy="152.4" r="3" fill="#0d2b5c" fill-opacity="0.75" />
  <circle cx="931.8" cy="138.6" r="3" fill="#0d2b5c" fill-opacity="0.75" />
  <circle cx="860.7" cy="191.9" r="3" fill="#0d2b5c" fill-opacity="0.75" />
  <circle cx="655.6" cy="223.3" r="3" fill="#0d2b5c" fill-opacity="0.75" />
  <circle cx="577.2" cy="264.7" r="3" fill="#0d2b5c" fill-opacity="0.75" />
  <circle cx="755.9" cy="197.8" r="3" fill="#0d2b5c" fill-opacity="0.75" />
  <circle cx="215.6" cy="409.2" r="3" fill="#0d2b5c" fill-opacity="0.75" />
  <circle cx="604.4" cy="249.8" r="3" fill="#0d2b5c" fill-opacity="0.75" />
  <circle cx="974.8" cy="126.6" r="3" fill="#0d2b5c" fill-opacity="0.75" />
  <circle cx="678.3" cy="208.0" r="3" fill="#0d2b5c" fill-opacity="0.75" />
  <circle cx="854.2" cy="188.9" r="3" fill="#0d2b5c" fill-opacity="0.75" />
  <circle cx="354.7" cy="353.7" r="3" fill="#0d2b5c" fill-opacity="0.75" />
  <circle cx="406.6" cy="353.8" r="3" fill="#0d2b5c" fill-opacity="0.75" />
  <circle cx="558.7" cy="290.0" r="3" fill="#0d2b5c" fill-opacity="0.75" />
  <circle cx="721.7" cy="261.2" r="3" fill="#0d2b5c" fill-opacity="0.75" />
  <circle cx="448.3" cy="338.5" r="3" fill="#0d2b5c" fill-opacity="0.75" />
  <circle cx="702.1" cy="269.5" r="3" fill="#0d2b5c" fill-opacity="0.75" />
  <circle cx="641.2" cy="248.1" r="3" fill="#0d2b5c" fill-opacity="0.75" />
  <circle cx="677.5" cy="232.2" r="3" fill="#0d2b5c" fill-opacity="0.75" />
  <circle cx="482.5" cy="314.5" r="3" fill="#0d2b5c" fill-opacity="0.75" />
  <circle cx="484.4" cy="291.3" r="3" fill="#0d2b5c" fill-opacity="0.75" />
  <circle cx="645.1" cy="220.6" r="3" fill="#0d2b5c" fill-opacity="0.75" />
  <circle cx="411.0" cy="333.1" r="3" fill="#0d2b5c" fill-opacity="0.75" />
  <circle cx="678.6" cy="250.5" r="3" fill="#0d2b5c" fill-opacity="0.75" />
  <circle cx="748.8" cy="186.7" r="3" fill="#0d2b5c" fill-opacity="0.75" />
  <circle cx="133.8" cy="406.6" r="3" fill="#0d2b5c" fill-opacity="0.75" />
  <circle cx="872.8" cy="148.2" r="3" fill="#0d2b5c" fill-opacity="0.75" />
  <circle cx="711.1" cy="176.6" r="3" fill="#0d2b5c" fill-opacity="0.75" />
  <circle cx="687.7" cy="225.2" r="3" fill="#0d2b5c" fill-opacity="0.75" />
  <circle cx="466.2" cy="289.8" r="3" fill="#0d2b5c" fill-opacity="0.75" />
  <circle cx="945.0" cy="125.9" r="3" fill="#0d2b5c" fill-opacity="0.75" />
  <circle cx="419.3" cy="300.2" r="3" fill="#0d2b5c" fill-opacity="0.75" />
  <circle cx="743.8" cy="190.4" r="3" fill="#0d2b5c" fill-opacity="0.75" />
  <circle cx="535.3" cy="309.8" r="3" fill="#0d2b5c" fill-opacity="0.75" />
  <circle cx="846.9" cy="157.5" r="3" fill="#0d2b5c" fill-opacity="0.75" />
  <circle cx="539.4" cy="268.3" r="3" fill="#0d2b5c" fill-opacity="0.75" />
  <circle cx="912.8" cy="123.3" r="3" fill="#0d2b5c" fill-opacity="0.75" />
  <circle cx="376.3" cy="337.7" r="3" fill="#0d2b5c" fill-opacity="0.75" />
  <circle cx="818.4" cy="193.3" r="3" fill="#0d2b5c" fill-opacity="0.75" />
  <circle cx="644.3" cy="232.5" r="3" fill="#0d2b5c" fill-opacity="0.75" />
  <circle cx="450.4" cy="340.4" r="3" fill="#0d2b5c" fill-opacity="0.75" />
  <circle cx="641.5" cy="282.5" r="3" fill="#0d2b5c" fill-opacity="0.75" />
  <circle cx="687.5" cy="211.4" r="3" fill="#0d2b5c" fill-opacity="0.75" />
  <circle cx="768.3" cy="222.8" r="3" fill="#0d2b5c" fill-opacity="0.75" />
  <circle cx="622.1" cy="229.2" r="3" fill="#0d2b5c" fill-opacity="0.75" />
  <circle cx="455.8" cy="341.7" r="3" fill="#0d2b5c" fill-opacity="0.75" />
  <circle cx="648.5" cy="266.8" r="3" fill="#0d2b5c" fill-opacity="0.75" />
  <circle cx="566.2" cy="283.9" r="3" fill="#0d2b5c" fill-opacity="0.75" />
  <circle cx="571.4" cy="244.6" r="3" fill="#0d2b5c" fill-opacity="0.75" />
  <circle cx="600.0" cy="237.1" r="3" fill="#0d2b5c" fill-opacity="0.75" />
  <circle cx="792.2" cy="187.4" r="3" fill="#0d2b5c" fill-opacity="0.75" />
  <circle cx="901.2" cy="164.1" r="3" fill="#0d2b5c" fill-opacity="0.75" />
  <circle cx="497.0" cy="330.3" r="3" fill="#0d2b5c" fill-opacity="0.75" />
  <circle cx="536.3" cy="335.1" r="3" fill="#0d2b5c" fill-opacity="0.75" />
  <circle cx="206.2" cy="435.9" r="3" fill="#0d2b5c" fill-opacity="0.75" />
  <circle cx="231.9" cy="400.2" r="3" fill="#0d2b5c" fill-opacity="0.75" />
  <circle cx="573.3" cy="272.9" r="3" fill="#0d2b5c" fill-opacity="0.75" />
  <circle cx="678.2" cy="248.2" r="3" fill="#0d2b5c" fill-opacity="0.75" />
  <circle cx="869.1" cy="119.2" r="3" fill="#0d2b5c" fill-opacity="0.75" />
  <circle cx="455.1" cy="274.7" r="3" fill="#0d2b5c" fill-opacity="0.75" />
  <text x="24" y="496" font-family="Inter, system-ui, sans-serif" font-size="14" fill="#64748b">Lopsided variance — most grid cells wasted on empty space.</text>
</svg>
