<?xml version="1.0" encoding="UTF-8" standalone="no"?>
<svg
   xmlns:dc="http://purl.org/dc/elements/1.1/"
   xmlns:cc="http://creativecommons.org/ns#"
   xmlns:rdf="http://www.w3.org/1999/02/22-rdf-syntax-ns#"
   xmlns:svg="http://www.w3.org/2000/svg"
   xmlns="http://www.w3.org/2000/svg"
   xmlns:sodipodi="http://sodipodi.sourceforge.net/DTD/sodipodi-0.dtd"
   xmlns:inkscape="http://www.inkscape.org/namespaces/inkscape"
   width="128.14999"
   height="113.63607"
   version="1.1"
   id="svg845"
   sodipodi:docname="2g.svg"
   inkscape:version="1.0.1 (c497b03c, 2020-09-10)">
  <metadata
     id="metadata851">
    <rdf:RDF>
      <cc:Work
         rdf:about="">
        <dc:format>image/svg+xml</dc:format>
        <dc:type
           rdf:resource="http://purl.org/dc/dcmitype/StillImage" />
      </cc:Work>
    </rdf:RDF>
  </metadata>
  <defs
     id="defs849" />
  <sodipodi:namedview
     pagecolor="#ffffff"
     bordercolor="#666666"
     borderopacity="1"
     objecttolerance="10"
     gridtolerance="10"
     guidetolerance="10"
     inkscape:pageopacity="0"
     inkscape:pageshadow="2"
     inkscape:window-width="1491"
     inkscape:window-height="902"
     id="namedview847"
     showgrid="false"
     inkscape:zoom="1.825"
     inkscape:cx="64.2125"
     inkscape:cy="57.027051"
     inkscape:window-x="0"
     inkscape:window-y="23"
     inkscape:window-maximized="0"
     inkscape:current-layer="svg845" />
  <path
     fill="#fb051b"
     d="M 8.35,0.43606798 A 12.2,12.2 0 0 0 1.15,6.436068 c -1,2 -1,2 -1,14.8 v 13 h 64 l 64,-0.2 v -25 l -1,-2 a 12.2,12.2 0 0 0 -6.4,-6.20000002 c -2,-0.8 -109.8,-1.2 -112.2,-0.4 M 80.75,10.836068 c 2.6,0.6 3.6,3.4 1.4,3.4 -0.8,0 -1,0 -1,-0.6 0,-0.6 -1.6,-1 -3,-0.8 -2.2,0.6 -1,2 2.8,2.8 4,0.8 4,5.2 0,6.2 -2.8,0.8 -6,-0.6 -6,-2.6 0,-1 2,-1 2.6,0 0.8,1.4 4,0.8 4,-0.6 -0.2,-0.4 -1,-0.8 -2.8,-1.4 -4.6,-1.2 -5.2,-6 -0.8,-6.6 h 2.8 m -27.8,1.2 c 0,0.4 0,1 -0.4,1 h -2.8 v 4.6 l -0.2,4.6 h -2.2 v -4.8 l -0.2,-4.6 h -1.6 c -1.6,0 -2,-0.4 -1.6,-1.4 0,-0.6 1.2,-0.6 4.6,-0.6 h 4.4 v 1 m 4,3.2 c 0,4.2 0.2,5 1.8,5 1.8,0 2,-0.6 2,-5 v -4.2 h 2.2 v 4.6 c 0,5.8 -0.4,6.6 -4,6.6 -4,0 -4.6,-0.8 -4.8,-6.6 v -4.6 h 2.6 v 4 m 16.6,-3 c 0,0.8 0,0.8 -2.8,0.8 h -3 v 2.8 h 2.8 c 2.6,0 2.6,0 2.6,1 0,0.8 0,1 -2.6,1 h -2.8 v 2.8 h 3 c 3,0 3,0 3.2,1 v 1.2 h -8.4 v -11.2 h 8 v 1"
     id="path835"
     style="fill-rule:evenodd;stroke-width:2" />
  <path
     fill="#060606"
     d="m 76.35,41.836068 c -7.2,2 -12.8,7.6 -15.6,15.6 -2,6.4 -1.4,17.2 1.4,23 6.2,12.6 23.4,16.4 32.8,7.2 2.8,-2.8 2.4,-2.8 2.8,0 0.4,4 0.2,4 4,4 h 3.2 v -26.6 h -20.2 v 4 l -0.2,4 h 11.6 l -0.4,1.2 c -2,9.6 -13.8,13 -21.4,6.4 -6.6,-5.6 -5.8,-23.2 1,-28.6 6.6,-4.8 16.4,-3 19,4 l 0.6,1.6 h 10 l -0.2,-1.2 c -2.6,-11.4 -15.2,-18 -28.2,-14.6 m -42.8,1.2 c -7.2,1.2 -11.4,6.4 -12.4,15.2 v 1.8 h 8.8 l 0.6,-3 c 1.4,-9 13.2,-8.4 13.2,0.8 0,4.4 -1.8,6.8 -10,12.8 -9.2,7 -12.2,11.4 -13,18.6 l -0.2,2.2 h 33 v -8 h -10.6 c -7,0 -10.4,0 -10.4,-0.4 0,-0.8 3.2,-3.6 8.4,-7.2 10.4,-7.4 13.2,-12 12.2,-20 a 16,16 0 0 0 -17,-13.2 l -2.6,0.4"
     id="path837"
     style="fill-rule:evenodd;stroke-width:2" />
  <path
     fill="#8e8e8e"
     d="m 56.55,14.836068 c 0,2 0,3 0.2,2 v -4 2 m 12.6,5 h 2.8 -2.8 m 58,14.2 -1,0.2 v 70.400002 l -0.8,2 c -1.2,2.2 -3.2,4 -5.2,4.8 -1.2,0.2 -16.4,0.4 -56.6,0.4 -61.6,0 -56.6,0.2 -59.4,-2.8 -2.6,-2.6 -2.4,-0.6 -2.4,-38.600002 0,-36 0,-36.2 -1.2,-36.2 -1,0 -1,70.200002 0,72.600002 1,2.2 3.6,4.8 6,5.8 l 2,1 h 55.2 c 53.4,0 55.4,0 57.2,-0.8 a 11.6,11.6 0 0 0 6,-5.8 l 1,-2 V 33.836068 l -1,0.2 m -44.8,7.2 h 2.6 -2.6 m -56.4,5.8 -1.4,1.4 1.4,-1.4 c 1.4,-1.2 1.8,-1.4 1.4,-1.4 l -1.4,1.4 m 40.8,0.6 -1.6,1.8 2,-1.8 1.4,-1.6 -2,1.6 m 16.4,2 h 2 -2 m -8.6,3.6 -1.2,1.2 1.2,-1.2 c 1.2,-1 1.6,-1.4 1.2,-1.4 l -1.2,1.4 m -20.8,3.6 v 0.8 -1.4 0.6 m -9.6,1.2 v 0.6 -1.2 0.6 m -13.6,0.6 v 1.4 h -9 l 4.6,0.2 c 4.8,0 5,0 4.6,-2 v 0.4 m 28.8,8.6 v 1.2 -2.4 1.2 m 45.6,11 c 0,7.4 0,10.4 0.2,6.6 a 485.8,485.8 0 0 0 0,-6.6 m -15.2,-5 c 3.8,0 5.6,0.4 5.8,0.6 0,0.4 0.2,0.4 0.2,0 0,-0.8 -0.4,-0.8 -5.8,-0.8 h -6 l 5.8,0.2 m -62.8,3 -2,2 2,-2 2,-2 -2,2 m 45.4,2.6 1.4,1.4 1.2,1 -1.2,-1.2 c -1,-1.2 -1.4,-1.4 -1.4,-1.2 m 19.4,2 -1.2,1.2 1.4,-1.2 1.2,-1.2 c 0,-0.2 -0.4,0 -1.4,1.2 m -9.4,3.2 h 2.2 -2.2 m 14,1.8 c 0,0 0,0.2 0,0 0.4,0 0.6,0 0.8,0.6 v -0.2 c 0.2,-1 -0.4,-1.2 -0.8,-0.4 m -15.4,7 h 1.4 -1.4"
     id="path839"
     style="fill-rule:evenodd;stroke-width:2" />
  <path
     fill="#ffffff"
     d="m 76.95,11.236068 c -3,1.8 -2,5.4 2,6 2.2,0.2 3,0.8 2.8,2 -0.6,1.6 -5,1.2 -5,-0.4 0,-0.4 -1.2,-0.4 -1.6,0 -1,1 2,3.2 4.6,3.2 4.8,0 5.4,-5.2 0.6,-6.2 -3,-0.8 -4,-1.6 -3,-2.6 1,-1.2 2.6,-1.2 3.6,0 0.8,1.2 2.6,1.4 2.2,0.4 v -1 c 0,-1.2 -4.4,-2.4 -6,-1.4 m -33,0.8 c 0,0.6 0.2,0.6 1.8,0.6 h 1.6 v 9 h 2 v -9 h 1.6 c 1.2,0 1.4,0 1.4,-0.6 0,-0.8 0,-0.8 -4,-0.8 -4,0 -4.4,0 -4.4,0.8 m 10.4,3.4 c 0,5.8 2,7.8 6.2,6 2.4,-0.8 3.6,-10.2 1.2,-10.2 -0.8,0 -0.8,0 -1,3.4 0,4 -0.2,5 -1.4,5.6 -2.4,0.8 -3,-0.4 -3,-5 v -4 h -2 v 4 m 10.8,1.2 v 5.2 h 4 c 3.8,0 4,0 4,-0.8 0,-0.8 -0.2,-0.8 -3,-0.8 l -3,-0.2 v -2.8 h 2.6 c 2.6,0 2.6,0 2.6,-1 0,-1 0,-1 -2.6,-1 h -2.6 v -2.4 h 2.8 c 2.6,0 2.8,0 2.8,-0.6 0,-0.8 -0.2,-0.8 -3.8,-0.8 h -4 v 5.2 m -63.2,53.4 c 0.2,39.800002 0,36.600002 2.8,39.400002 3,2.8 -0.8,2.6 60,2.4 61.4,0 56.2,0.2 59,-2.8 2.8,-3 2.6,-1.6 2.6,-40.000002 v -34.6 H 1.95 v 35.6 m 87.4,-28.4 c 7.4,1.4 13.4,6.6 15.2,13.4 0.8,3.2 1.2,3 -4.8,2.8 h -5.2 l -0.4,-1.6 c -2.8,-8.4 -16.8,-8.6 -21.6,0 a 26.8,26.8 0 0 0 0,21.6 c 5.4,9.4 20.6,7.4 22.8,-3 l 0.4,-1.2 h -11.4 v -8.4 h 20.8 v 13.2 l -0.2,13.4 h -7 l -0.6,-3 -0.4,-2.8 -2,2 c -11,11 -30.8,4 -35,-12.4 -5.6,-20.8 9.4,-38.2 29.2,-34 m -45.4,2.2 c 6.8,2.6 10,8 9.8,15.4 -0.4,6.8 -2.6,9.8 -13.2,17.4 a 59.4,59.4 0 0 0 -6.8,5.6 l -0.8,1 h 21.6 v 8.6 h -16.8 c -19.2,0.2 -17.4,0.6 -16.4,-4 1.4,-6.8 4.2,-10.6 12.8,-17 9,-6.8 11.2,-10 9.6,-15 -2,-7.6 -11.8,-5.6 -12.6,2.4 v 2.4 h -9.6 v -1.6 c 0,-7 4,-13.6 9.6,-15.4 3.4,-1 10.2,-1 13.2,0.2"
     id="path841"
     style="fill-rule:evenodd;stroke-width:2" />
</svg>
