<svg width="883.32" height="119.43" fill="none" stroke-linecap="square" stroke-miterlimit="10" version="1.1" viewBox="0 0 883.32 119.43" xmlns="http://www.w3.org/2000/svg"><g transform="translate(-33.215 -227.84)" clip-path="url(#gecb95550f8_0_29.0)"><g fill="#eee"><g><path d="m54.609 228.79q1.4688 0 2.5156 0.5 1.0469 0.48437 1.6094 1.4219 0.57812 0.92188 0.57812 2.25 0 0.8125-0.25 1.5938-0.25 0.76563-0.78125 1.3906t-1.3906 1q-0.84375 0.35937-2.0781 0.35937h-2v4.9688h-1.8125v-13.484zm0.1875 6.7812q0.79688 0 1.3125-0.25 0.53125-0.26563 0.82812-0.65625 0.29688-0.40625 0.42188-0.85938 0.14062-0.45312 0.14062-0.79687 0-0.42188-0.14062-0.85938-0.125-0.4375-0.4375-0.79687-0.29688-0.35938-0.79688-0.59375-0.5-0.23438-1.2188-0.23438h-2.0938v5.0469zm8.4286-1.0156 0.17188 2.2344-0.09375-0.29688q0.29688-0.71875 0.85938-1.2031 0.57812-0.5 1.2031-0.76563 0.625-0.26562 1.0781-0.26562l-0.09375 1.7031q-0.875-0.0469-1.5312 0.34375-0.65625 0.39063-1.0469 1.0469-0.375 0.65625-0.375 1.3906v3.5312h-1.7188v-7.7188zm4.46 3.7812q0-1.1562 0.54688-2.0781 0.54688-0.9375 1.5156-1.4844 0.96875-0.54687 2.2031-0.54687 1.2656 0 2.2188 0.54687 0.95312 0.54688 1.4688 1.4844 0.53125 0.92187 0.53125 2.0781t-0.53125 2.1094q-0.51562 0.9375-1.4844 1.4844-0.95312 0.53125-2.2188 0.53125-1.2344 0-2.2031-0.51562-0.95312-0.51563-1.5-1.4375-0.54688-0.92188-0.54688-2.1719zm1.7344 0.0156q0 0.75 0.32812 1.3594 0.34375 0.60938 0.90625 0.96875 0.57812 0.34375 1.2656 0.34375 0.71875 0 1.2812-0.34375 0.57812-0.35937 0.89062-0.96875 0.32812-0.60937 0.32812-1.3594t-0.32812-1.3438q-0.3125-0.60938-0.89062-0.96875-0.5625-0.375-1.2812-0.375t-1.2812 0.375-0.89062 0.98437q-0.32812 0.60938-0.32812 1.3281zm13.652 4.1094q-0.875 0-1.6875-0.40625-0.8125-0.42187-1.2656-1.1094l0.125-0.53125v5.5781h-1.7188v-11.547h1.4844l0.25 1.9688-0.1875-0.54688q0.5625-0.70312 1.4062-1.1719 0.85938-0.46875 1.9375-0.46875t1.9375 0.53125q0.875 0.51562 1.375 1.4531t0.5 2.1875-0.54688 2.1719q-0.53125 0.90625-1.4844 1.4062-0.9375 0.48437-2.125 0.48437zm-0.32812-1.375q0.73438 0 1.3594-0.34375 0.625-0.35937 1-0.95312 0.375-0.60938 0.375-1.375 0-0.78125-0.35938-1.3906-0.34375-0.60937-0.9375-0.95312-0.59375-0.35938-1.3125-0.35938-0.67188 0-1.2188 0.26563-0.53125 0.25-0.89062 0.71875-0.35938 0.45312-0.5 1.0469v1.2812q0.09375 0.59375 0.4375 1.0625 0.35938 0.46875 0.89062 0.73438 0.53125 0.26562 1.1562 0.26562zm6.1725-2.75q0-1.1562 0.54688-2.0781 0.54688-0.9375 1.5156-1.4844 0.96875-0.54687 2.2031-0.54687 1.2656 0 2.2188 0.54687 0.95312 0.54688 1.4688 1.4844 0.53125 0.92187 0.53125 2.0781t-0.53125 2.1094q-0.51562 0.9375-1.4844 1.4844-0.95312 0.53125-2.2188 0.53125-1.2344 0-2.2031-0.51562-0.95312-0.51563-1.5-1.4375-0.54688-0.92188-0.54688-2.1719zm1.7344 0.0156q0 0.75 0.32812 1.3594 0.34375 0.60938 0.90625 0.96875 0.57812 0.34375 1.2656 0.34375 0.71875 0 1.2812-0.34375 0.57812-0.35937 0.89062-0.96875 0.32812-0.60937 0.32812-1.3594t-0.32812-1.3438q-0.3125-0.60938-0.89062-0.96875-0.5625-0.375-1.2812-0.375t-1.2812 0.375-0.89062 0.98437q-0.32812 0.60938-0.32812 1.3281zm11.261 4.0781q-0.8125 0-1.5938-0.28125-0.76562-0.29687-1.2812-0.875l0.73438-1.0156q0.48437 0.46875 1 0.70312 0.51562 0.23438 1.0156 0.23438 0.375 0 0.6875-0.0937t0.5-0.3125q0.20313-0.21875 0.20313-0.59375 0-0.40625-0.26563-0.64063-0.26562-0.25-0.6875-0.39062-0.42187-0.15625-0.89062-0.28125-0.95313-0.32813-1.4531-0.875-0.5-0.5625-0.5-1.375 0-0.60938 0.29688-1.1406 0.3125-0.53125 0.92187-0.85937 0.60938-0.34375 1.5-0.34375 0.8125 0 1.4375 0.20312 0.64063 0.1875 1.2031 0.64063l-0.70313 1.0781q-0.32812-0.35937-0.79687-0.51562-0.46875-0.17188-0.84375-0.1875-0.3125-0.0312-0.60938 0.0937-0.28125 0.10937-0.46875 0.3125-0.1875 0.20312-0.1875 0.48437 0 0.39063 0.26563 0.64063 0.26562 0.23437 0.67187 0.375 0.42188 0.14062 0.84375 0.28125 0.57813 0.17187 1.0156 0.45312 0.45312 0.28125 0.71875 0.70313 0.26562 0.40625 0.26562 1.0156 0 0.6875-0.32812 1.2812-0.3125 0.57813-0.98438 0.9375-0.65625 0.34375-1.6875 0.34375zm8.64 0.0312q-1.0781 0-1.9688-0.46875-0.89063-0.46875-1.4062-1.375-0.5-0.90625-0.5-2.2031 0-1.2969 0.53125-2.2344 0.54687-0.9375 1.4531-1.4375 0.90625-0.51562 1.9844-0.51562 1.0781 0 1.8281 0.5t1.1406 1.1719l-0.10938 0.29688 0.15625-1.6406h1.6094v7.7188h-1.7344v-2.0156l0.1875 0.45312q-0.0781 0.1875-0.32812 0.48438-0.25 0.28125-0.67188 0.57812-0.42187 0.29688-0.96875 0.5-0.53125 0.1875-1.2031 0.1875zm0.46875-1.4375q0.65625 0 1.1719-0.23437 0.53125-0.25 0.875-0.6875t0.46875-1.0625v-1.5q-0.14062-0.5625-0.51562-0.98438-0.375-0.42187-0.90625-0.65625-0.51563-0.23437-1.1562-0.23437-0.6875 0-1.2656 0.34375-0.57812 0.32812-0.92187 0.9375-0.34375 0.59375-0.34375 1.3906 0 0.75 0.34375 1.375 0.35937 0.60938 0.95312 0.96875 0.60938 0.34375 1.2969 0.34375zm7.2607-13.188h1.7344v14.438h-1.7344z"/><path d="m200.09 242.28v-13.484h3.6719q2 0 3.4062 0.625 1.4062 0.60938 2.2656 1.6094 0.85937 1 1.2656 2.2344 0.40625 1.2188 0.40625 2.4375 0 1.5156-0.53125 2.7344t-1.4688 2.0781q-0.9375 0.84375-2.1406 1.3125-1.2031 0.45313-2.5469 0.45313zm1.8125-1.7344h2.1562q1.125 0 2.0625-0.32812 0.95312-0.34375 1.6406-0.96875 0.70313-0.64063 1.0938-1.5625 0.39063-0.92188 0.39063-2.1094 0-1.25-0.40625-2.1875t-1.125-1.5625q-0.70313-0.64062-1.5938-0.96875-0.89063-0.32812-1.8906-0.32812h-2.3281zm11.814-5.9844h1.7344v7.7188h-1.7344zm-0.14062-2.8125q0-0.40625 0.32812-0.6875 0.32813-0.28125 0.71875-0.28125 0.39063 0 0.6875 0.28125 0.3125 0.28125 0.3125 0.6875 0 0.4375-0.3125 0.70312-0.29687 0.26563-0.6875 0.26563-0.39062 0-0.71875-0.28125-0.32812-0.28125-0.32812-0.6875zm7.0356 10.688q-0.8125 0-1.5938-0.28125-0.76563-0.29688-1.2812-0.875l0.73437-1.0156q0.48438 0.46875 1 0.70313 0.51563 0.23437 1.0156 0.23437 0.375 0 0.6875-0.0937t0.5-0.3125q0.20312-0.21875 0.20312-0.59375 0-0.40625-0.26562-0.64062-0.26563-0.25-0.6875-0.39063-0.42188-0.15625-0.89063-0.28125-0.95312-0.32812-1.4531-0.875-0.5-0.5625-0.5-1.375 0-0.60937 0.29687-1.1406 0.3125-0.53125 0.92188-0.85938 0.60937-0.34375 1.5-0.34375 0.8125 0 1.4375 0.20313 0.64062 0.1875 1.2031 0.64062l-0.70312 1.0781q-0.32813-0.35938-0.79688-0.51563-0.46875-0.17187-0.84375-0.1875-0.3125-0.0312-0.60937 0.0937-0.28125 0.10938-0.46875 0.3125-0.1875 0.20313-0.1875 0.48438 0 0.39062 0.26562 0.64062 0.26563 0.23438 0.67188 0.375 0.42187 0.14063 0.84375 0.28125 0.57812 0.17188 1.0156 0.45313 0.45313 0.28125 0.71875 0.70312 0.26563 0.40625 0.26563 1.0156 0 0.6875-0.32813 1.2812-0.3125 0.57812-0.98437 0.9375-0.65625 0.34375-1.6875 0.34375zm11.702-0.85938q-0.53125 0.40625-1.2656 0.65625-0.71875 0.23438-1.4375 0.23438-1.2656 0-2.2188-0.5-0.95313-0.51563-1.4844-1.4062-0.53125-0.90625-0.53125-2.1406 0-1.2344 0.5625-2.1406 0.57813-0.92188 1.5-1.4062 0.92188-0.5 1.9844-0.5 0.9375 0 1.6719 0.26562 0.73438 0.25 1.25 0.70313l-0.85937 1.1094q-0.32813-0.25-0.8125-0.45312-0.48438-0.21875-1.1094-0.21875-0.67187 0-1.2344 0.35937-0.5625 0.34375-0.89063 0.9375-0.32812 0.59375-0.32812 1.3438 0 0.70313 0.32812 1.3125 0.34375 0.60938 0.9375 0.95313t1.3594 0.34375q0.5 0 0.92187-0.14063 0.42188-0.15625 0.76563-0.42187zm1.5698-3.2344q0-1.1562 0.54688-2.0781 0.54687-0.9375 1.5156-1.4844 0.96875-0.54688 2.2031-0.54688 1.2656 0 2.2188 0.54688 0.95312 0.54687 1.4688 1.4844 0.53125 0.92188 0.53125 2.0781t-0.53125 2.1094q-0.51563 0.9375-1.4844 1.4844-0.95312 0.53125-2.2188 0.53125-1.2344 0-2.2031-0.51563-0.95313-0.51562-1.5-1.4375-0.54688-0.92187-0.54688-2.1719zm1.7344 0.0156q0 0.75 0.32812 1.3594 0.34375 0.60937 0.90625 0.96875 0.57813 0.34375 1.2656 0.34375 0.71875 0 1.2812-0.34375 0.57812-0.35938 0.89062-0.96875 0.32813-0.60938 0.32813-1.3594t-0.32813-1.3438q-0.3125-0.60937-0.89062-0.96875-0.5625-0.375-1.2812-0.375t-1.2812 0.375-0.89063 0.98438q-0.32812 0.60937-0.32812 1.3281zm11.988 4.1406-4.2812-7.9375h2.0469l2.9062 6.1406-1.0625-0.0469 2.6719-6.0938h1.9375l-4.125 7.9375zm9.4827-0.0312q-1.3281 0-2.2813-0.53125-0.95312-0.53125-1.4688-1.4531-0.5-0.92187-0.5-2.125 0-1.1406 0.57813-2.0625 0.57812-0.9375 1.5469-1.5t2.1563-0.5625q1.5312 0 2.5312 0.90625 1.0156 0.89063 1.375 2.4531l-6.3594 2.25-0.42188-1.0312 5.2344-1.9062-0.375 0.25q-0.21875-0.625-0.75-1.0781-0.51562-0.45312-1.3594-0.45312-0.70313 0-1.2656 0.34375-0.5625 0.34375-0.89063 0.9375-0.3125 0.59375-0.3125 1.3594 0 0.8125 0.32813 1.4219 0.34375 0.59375 0.9375 0.9375 0.59376 0.34375 1.3281 0.34375 0.51562 0 0.98437-0.17188 0.46875-0.1875 0.89063-0.5l0.79687 1.2969q-0.57812 0.39062-1.2969 0.64062-0.71875 0.23438-1.4062 0.23438zm7.67-7.9062 0.17187 2.2344-0.0937-0.29687q0.29688-0.71875 0.85938-1.2031 0.57812-0.5 1.2031-0.76562 0.625-0.26563 1.0781-0.26563l-0.0937 1.7031q-0.875-0.0469-1.5312 0.34375-0.65625 0.39062-1.0469 1.0469-0.375 0.65625-0.375 1.3906v3.5312h-1.7188v-7.7188zm6.1241 11.438 5.0781-11.438h1.6094l-4.9844 11.438zm1.8906-3.6562-3.7031-7.7812h1.9531l3.1094 6.8906z"/><path d="m490.36 242.28v-13.484h3.6719q2 0 3.4062 0.625 1.4062 0.60938 2.2656 1.6094 0.85937 1 1.2656 2.2344 0.40625 1.2188 0.40625 2.4375 0 1.5156-0.53125 2.7344t-1.4688 2.0781q-0.9375 0.84375-2.1406 1.3125-1.2031 0.45313-2.5469 0.45313zm1.8125-1.7344h2.1562q1.125 0 2.0625-0.32812 0.95312-0.34375 1.6406-0.96875 0.70313-0.64063 1.0938-1.5625 0.39063-0.92188 0.39063-2.1094 0-1.25-0.40625-2.1875t-1.125-1.5625q-0.70313-0.64062-1.5938-0.96875-0.89063-0.32812-1.8906-0.32812h-2.3281zm15.392 1.9219q-1.3281 0-2.2812-0.53125-0.95313-0.53125-1.4688-1.4531-0.5-0.92187-0.5-2.125 0-1.1406 0.57812-2.0625 0.57813-0.9375 1.5469-1.5t2.1562-0.5625q1.5312 0 2.5312 0.90625 1.0156 0.89063 1.375 2.4531l-6.3594 2.25-0.42187-1.0312 5.2344-1.9062-0.375 0.25q-0.21875-0.625-0.75-1.0781-0.51562-0.45312-1.3594-0.45312-0.70313 0-1.2656 0.34375t-0.89062 0.9375q-0.3125 0.59375-0.3125 1.3594 0 0.8125 0.32812 1.4219 0.34375 0.59375 0.9375 0.9375t1.3281 0.34375q0.51562 0 0.98437-0.17188 0.46875-0.1875 0.89063-0.5l0.79687 1.2969q-0.57812 0.39062-1.2969 0.64062-0.71875 0.23438-1.4062 0.23438zm8.9868 0.0312-4.2812-7.9375h2.0469l2.9062 6.1406-1.0625-0.0469 2.6719-6.0938h1.9375l-4.125 7.9375zm9.4827-0.0312q-1.3281 0-2.2812-0.53125-0.95313-0.53125-1.4688-1.4531-0.5-0.92187-0.5-2.125 0-1.1406 0.57812-2.0625 0.57813-0.9375 1.5469-1.5t2.1562-0.5625q1.5312 0 2.5312 0.90625 1.0156 0.89063 1.375 2.4531l-6.3594 2.25-0.42187-1.0312 5.2344-1.9062-0.375 0.25q-0.21875-0.625-0.75-1.0781-0.51562-0.45312-1.3594-0.45312-0.70313 0-1.2656 0.34375t-0.89062 0.9375q-0.3125 0.59375-0.3125 1.3594 0 0.8125 0.32812 1.4219 0.34375 0.59375 0.9375 0.9375t1.3281 0.34375q0.51562 0 0.98437-0.17188 0.46875-0.1875 0.89063-0.5l0.79687 1.2969q-0.57812 0.39062-1.2969 0.64062-0.71875 0.23438-1.4062 0.23438zm6.1231-14.625h1.7344v14.438h-1.7344zm4.0668 10.5q0-1.1562 0.54687-2.0781 0.54688-0.9375 1.5156-1.4844 0.96875-0.54688 2.2031-0.54688 1.2656 0 2.2188 0.54688 0.95313 0.54687 1.4688 1.4844 0.53125 0.92188 0.53125 2.0781t-0.53125 2.1094q-0.51562 0.9375-1.4844 1.4844-0.95313 0.53125-2.2188 0.53125-1.2344 0-2.2031-0.51563-0.95312-0.51562-1.5-1.4375-0.54687-0.92187-0.54687-2.1719zm1.7344 0.0156q0 0.75 0.32813 1.3594 0.34375 0.60937 0.90625 0.96875 0.57812 0.34375 1.2656 0.34375 0.71875 0 1.2812-0.34375 0.57813-0.35938 0.89063-0.96875 0.32812-0.60938 0.32812-1.3594t-0.32812-1.3438q-0.3125-0.60937-0.89063-0.96875-0.5625-0.375-1.2812-0.375t-1.2812 0.375-0.89062 0.98438q-0.32813 0.60937-0.32813 1.3281zm13.652 4.1094q-0.875 0-1.6875-0.40625-0.8125-0.42188-1.2656-1.1094l0.125-0.53125v5.5781h-1.7188v-11.547h1.4844l0.25 1.9688-0.1875-0.54687q0.5625-0.70313 1.4062-1.1719 0.85938-0.46875 1.9375-0.46875 1.0781 0 1.9375 0.53125 0.875 0.51563 1.375 1.4531t0.5 2.1875-0.54687 2.1719q-0.53125 0.90625-1.4844 1.4062-0.9375 0.48438-2.125 0.48438zm-0.32812-1.375q0.73437 0 1.3594-0.34375 0.625-0.35938 1-0.95313 0.375-0.60937 0.375-1.375 0-0.78125-0.35937-1.3906-0.34375-0.60938-0.9375-0.95313-0.59375-0.35937-1.3125-0.35937-0.67188 0-1.2188 0.26562-0.53125 0.25-0.89063 0.71875-0.35937 0.45313-0.5 1.0469v1.2812q0.0937 0.59375 0.4375 1.0625 0.35938 0.46875 0.89063 0.73437 0.53125 0.26563 1.1562 0.26563zm8.3913-6.5312 0.14063 1.7344-0.0625-0.15625q0.42187-0.875 1.2188-1.375 0.79687-0.5 1.8125-0.5 0.65625 0 1.1562 0.20313 0.5 0.20312 0.82812 0.59375 0.32813 0.375 0.42188 0.9375l-0.0937 0.0469q0.45312-0.84375 1.2344-1.3125 0.79688-0.46875 1.6875-0.46875 1.125 0 1.7812 0.64063 0.67188 0.64062 0.6875 1.6719v5.7031h-1.7344v-5.0938q-0.0156-0.59375-0.29688-1-0.26562-0.40625-0.9375-0.4375-0.65625 0-1.2031 0.42187-0.53125 0.40625-0.82813 1.0469-0.29687 0.64062-0.3125 1.3906v3.6719h-1.7344v-5.0938q-0.0156-0.59375-0.3125-1-0.28125-0.40625-0.95313-0.4375-0.6875 0-1.2188 0.42187-0.51562 0.40625-0.8125 1.0625-0.28125 0.64063-0.28125 1.3906v3.6562h-1.7344v-7.7188zm17.423 7.9062q-1.3281 0-2.2812-0.53125-0.95312-0.53125-1.4688-1.4531-0.5-0.92187-0.5-2.125 0-1.1406 0.57813-2.0625 0.57812-0.9375 1.5469-1.5t2.1562-0.5625q1.5312 0 2.5312 0.90625 1.0156 0.89063 1.375 2.4531l-6.3594 2.25-0.42188-1.0312 5.2344-1.9062-0.375 0.25q-0.21875-0.625-0.75-1.0781-0.51563-0.45312-1.3594-0.45312-0.70312 0-1.2656 0.34375t-0.89063 0.9375q-0.3125 0.59375-0.3125 1.3594 0 0.8125 0.32813 1.4219 0.34375 0.59375 0.9375 0.9375t1.3281 0.34375q0.51563 0 0.98438-0.17188 0.46875-0.1875 0.89062-0.5l0.79688 1.2969q-0.57813 0.39062-1.2969 0.64062-0.71875 0.23438-1.4062 0.23438zm7.67-7.9062 0.14062 1.875-0.0625-0.29688q0.35938-0.85937 1.2031-1.3594 0.84375-0.51563 1.9375-0.51563 1.1094 0 1.7969 0.64063 0.70313 0.64062 0.73438 1.6719v5.7031h-1.7656v-5.0938q-0.0156-0.64063-0.35937-1.0312-0.34375-0.40625-1.0781-0.40625-0.67187 0-1.2188 0.375-0.53125 0.375-0.84375 1.0312-0.29687 0.64062-0.29687 1.5v3.625h-1.7344v-7.7188zm9.5044-3.4062h1.75v3.4375h2.125v1.3594h-2.125v6.3281h-1.75v-6.3281h-1.4062v-1.3594h1.4062z"/><path d="m363.96 242.28v-13.484h3.6719q2 0 3.4062 0.625 1.4062 0.60938 2.2656 1.6094 0.85937 1 1.2656 2.2344 0.40625 1.2188 0.40625 2.4375 0 1.5156-0.53125 2.7344t-1.4688 2.0781q-0.9375 0.84375-2.1406 1.3125-1.2031 0.45313-2.5469 0.45313zm1.8125-1.7344h2.1562q1.125 0 2.0625-0.32812 0.95312-0.34375 1.6406-0.96875 0.70313-0.64063 1.0938-1.5625 0.39063-0.92188 0.39063-2.1094 0-1.25-0.40625-2.1875t-1.125-1.5625q-0.70313-0.64062-1.5938-0.96875-0.89063-0.32812-1.8906-0.32812h-2.3281zm15.392 1.9219q-1.3281 0-2.2812-0.53125-0.95313-0.53125-1.4688-1.4531-0.5-0.92187-0.5-2.125 0-1.1406 0.57812-2.0625 0.57813-0.9375 1.5469-1.5t2.1562-0.5625q1.5312 0 2.5312 0.90625 1.0156 0.89063 1.375 2.4531l-6.3594 2.25-0.42187-1.0312 5.2344-1.9062-0.375 0.25q-0.21875-0.625-0.75-1.0781-0.51562-0.45312-1.3594-0.45312-0.70313 0-1.2656 0.34375t-0.89062 0.9375q-0.3125 0.59375-0.3125 1.3594 0 0.8125 0.32812 1.4219 0.34375 0.59375 0.9375 0.9375t1.3281 0.34375q0.51562 0 0.98437-0.17188 0.46875-0.1875 0.89063-0.5l0.79687 1.2969q-0.57812 0.39062-1.2969 0.64062-0.71875 0.23438-1.4062 0.23438zm8.2794-0.0312q-0.8125 0-1.5938-0.28125-0.76562-0.29688-1.2812-0.875l0.73438-1.0156q0.48437 0.46875 1 0.70313 0.51562 0.23437 1.0156 0.23437 0.375 0 0.6875-0.0937t0.5-0.3125q0.20313-0.21875 0.20313-0.59375 0-0.40625-0.26563-0.64062-0.26562-0.25-0.6875-0.39063-0.42187-0.15625-0.89062-0.28125-0.95313-0.32812-1.4531-0.875-0.5-0.5625-0.5-1.375 0-0.60937 0.29688-1.1406 0.3125-0.53125 0.92187-0.85938 0.60938-0.34375 1.5-0.34375 0.8125 0 1.4375 0.20313 0.64063 0.1875 1.2031 0.64062l-0.70313 1.0781q-0.32812-0.35938-0.79687-0.51563-0.46875-0.17187-0.84375-0.1875-0.3125-0.0312-0.60938 0.0937-0.28125 0.10938-0.46875 0.3125-0.1875 0.20313-0.1875 0.48438 0 0.39062 0.26563 0.64062 0.26562 0.23438 0.67187 0.375 0.42188 0.14063 0.84375 0.28125 0.57813 0.17188 1.0156 0.45313 0.45312 0.28125 0.71875 0.70312 0.26562 0.40625 0.26562 1.0156 0 0.6875-0.32812 1.2812-0.3125 0.57812-0.98438 0.9375-0.65625 0.34375-1.6875 0.34375zm5.4369-7.875h1.7344v7.7188h-1.7344zm-0.14062-2.8125q0-0.40625 0.32812-0.6875 0.32813-0.28125 0.71875-0.28125 0.39063 0 0.6875 0.28125 0.3125 0.28125 0.3125 0.6875 0 0.4375-0.3125 0.70312-0.29687 0.26563-0.6875 0.26563-0.39062 0-0.71875-0.28125-0.32812-0.28125-0.32812-0.6875zm8.5824 14.359q-0.85938 0-1.5156-0.20312-0.64062-0.1875-1.1719-0.54688-0.53125-0.35937-1.0156-0.79687l1-1.1875q0.625 0.57812 1.25 0.89062 0.64063 0.32813 1.4219 0.32813 0.875 0 1.4844-0.29688 0.60938-0.28125 0.92188-0.79687 0.3125-0.51563 0.3125-1.1875l0.0156-2.0781 0.15625 0.32813q-0.32812 0.79687-1.2188 1.3594-0.875 0.54688-2.125 0.54688-1.0625 0-1.9531-0.53125-0.875-0.54688-1.4062-1.4688-0.53125-0.9375-0.53125-2.0938 0-1.2031 0.54687-2.125 0.5625-0.92188 1.4688-1.4688 0.92188-0.54688 2.0156-0.54688 1.0156 0 1.8594 0.42188 0.85938 0.42187 1.25 1.0781l-0.0937 0.3125 0.1875-1.4844h1.5781v7.7812q0 1.0312-0.54688 1.8906-0.53125 0.85938-1.5156 1.3594-0.98438 0.51562-2.375 0.51562zm-2.6406-7.7656q0 0.75 0.34375 1.375 0.35938 0.60937 0.96875 0.96875 0.60938 0.34375 1.3594 0.34375 0.6875 0 1.2344-0.25 0.54688-0.25 0.92188-0.6875t0.51562-1.0156v-1.5312q-0.15625-0.5625-0.54687-0.98437-0.39063-0.42188-0.9375-0.65625-0.54688-0.23438-1.1875-0.23438-0.75 0-1.3594 0.34375-0.60937 0.32813-0.96875 0.9375-0.34375 0.60938-0.34375 1.3906zm11.641-3.7812 0.14062 1.875-0.0625-0.29688q0.35938-0.85937 1.2031-1.3594 0.84375-0.51563 1.9375-0.51563 1.1094 0 1.7969 0.64063 0.70313 0.64062 0.73438 1.6719v5.7031h-1.7656v-5.0938q-0.0156-0.64063-0.35937-1.0312-0.34375-0.40625-1.0781-0.40625-0.67187 0-1.2188 0.375-0.53125 0.375-0.84375 1.0312-0.29687 0.64062-0.29687 1.5v3.625h-1.7344v-7.7188z"/><path d="m667.33 228.79h1.8125v11.75h6.8438v1.7344h-8.6562zm14.385 13.672q-1.0781 0-1.9688-0.46875-0.89063-0.46875-1.4062-1.375-0.5-0.90625-0.5-2.2031 0-1.2969 0.53125-2.2344 0.54687-0.9375 1.4531-1.4375 0.90625-0.51562 1.9844-0.51562 1.0781 0 1.8281 0.5t1.1406 1.1719l-0.10938 0.29688 0.15625-1.6406h1.6094v7.7188h-1.7344v-2.0156l0.1875 0.45312q-0.0781 0.1875-0.32812 0.48438-0.25 0.28125-0.67188 0.57812-0.42187 0.29688-0.96875 0.5-0.53125 0.1875-1.2031 0.1875zm0.46875-1.4375q0.65625 0 1.1719-0.23437 0.53125-0.25 0.875-0.6875t0.46875-1.0625v-1.5q-0.14062-0.5625-0.51562-0.98438-0.375-0.42187-0.90625-0.65625-0.51563-0.23437-1.1562-0.23437-0.6875 0-1.2656 0.34375-0.57812 0.32812-0.92187 0.9375-0.34375 0.59375-0.34375 1.3906 0 0.75 0.34375 1.375 0.35937 0.60938 0.95312 0.96875 0.60938 0.34375 1.2969 0.34375zm9.6982 1.5469q-1.0469 0-1.7344-0.64063-0.67187-0.64062-0.70312-1.6719v-5.7031h1.7344v5.0938q0.0312 0.625 0.35938 1.0156 0.32812 0.39062 1.0312 0.42187 0.65625 0 1.1719-0.375 0.51563-0.39062 0.82813-1.0469 0.3125-0.67188 0.3125-1.5156v-3.5938h1.7344v7.7188h-1.5781l-0.15625-1.9062 0.0937 0.34375q-0.21875 0.53125-0.6875 0.95313-0.45313 0.42187-1.0625 0.65625-0.60938 0.25-1.3438 0.25zm9.2957-8.0156 0.14063 1.875-0.0625-0.29687q0.35937-0.85938 1.2031-1.3594 0.84375-0.51562 1.9375-0.51562 1.1094 0 1.7969 0.64062 0.70312 0.64063 0.73437 1.6719v5.7031h-1.7656v-5.0938q-0.0156-0.64062-0.35938-1.0312-0.34375-0.40625-1.0781-0.40625-0.67188 0-1.2188 0.375-0.53125 0.375-0.84375 1.0312-0.29688 0.64063-0.29688 1.5v3.625h-1.7344v-7.7188zm15.036 7.0156q-0.53125 0.40625-1.2656 0.65625-0.71875 0.23437-1.4375 0.23437-1.2656 0-2.2188-0.5-0.95312-0.51562-1.4844-1.4062-0.53125-0.90625-0.53125-2.1406 0-1.2344 0.5625-2.1406 0.57812-0.92187 1.5-1.4062 0.92187-0.5 1.9844-0.5 0.9375 0 1.6719 0.26563 0.73437 0.25 1.25 0.70312l-0.85938 1.1094q-0.32812-0.25-0.8125-0.45313-0.48437-0.21875-1.1094-0.21875-0.67188 0-1.2344 0.35938-0.5625 0.34375-0.89062 0.9375-0.32813 0.59375-0.32813 1.3438 0 0.70312 0.32813 1.3125 0.34375 0.60937 0.9375 0.95312t1.3594 0.34375q0.5 0 0.92188-0.14062 0.42187-0.15625 0.76562-0.42188zm2.2416 0.70312v-14.438h1.6875v8.5l-0.0312-0.3125q0.39062-0.76562 1.2031-1.2656t1.9062-0.5q1.1094 0 1.7969 0.64062 0.70312 0.64063 0.73437 1.6719v5.7031h-1.7656v-5.0938q-0.0156-0.64062-0.35938-1.0312-0.34375-0.40625-1.0781-0.40625-0.67188 0-1.2188 0.39063-0.53125 0.375-0.84375 1.0312-0.29688 0.65625-0.29688 1.4844v3.625z"/><path d="m830.4 228.79h8v1.7344h-6.1875v4.3125h5.4219v1.7031h-5.4219v5.7344h-1.8125zm10.231 5.7656h1.7344v7.7188h-1.7344zm-0.14062-2.8125q0-0.40625 0.32812-0.6875 0.32813-0.28125 0.71875-0.28125 0.39063 0 0.6875 0.28125 0.3125 0.28125 0.3125 0.6875 0 0.4375-0.3125 0.70313-0.29687 0.26562-0.6875 0.26562-0.39062 0-0.71875-0.28125-0.32812-0.28125-0.32812-0.6875zm7.7855 5.6875 1.8438-2.875h1.75l-2.9531 4.1406zm3.9062 4.8438h-2.0938l-5.875-7.7188h2.1406zm-4.0938-2.875-2.0312 2.875h-1.75l2.9375-4.0312zm9.4226 3.0625q-1.3281 0-2.2812-0.53125-0.95313-0.53125-1.4688-1.4531-0.5-0.92188-0.5-2.125 0-1.1406 0.57812-2.0625 0.57813-0.9375 1.5469-1.5t2.1562-0.5625q1.5312 0 2.5312 0.90625 1.0156 0.89062 1.375 2.4531l-6.3594 2.25-0.42187-1.0312 5.2344-1.9062-0.375 0.25q-0.21875-0.625-0.75-1.0781-0.51562-0.45313-1.3594-0.45313-0.70313 0-1.2656 0.34375t-0.89062 0.9375q-0.3125 0.59375-0.3125 1.3594 0 0.8125 0.32812 1.4219 0.34375 0.59375 0.9375 0.9375t1.3281 0.34375q0.51562 0 0.98437-0.17187 0.46875-0.1875 0.89063-0.5l0.79687 1.2969q-0.57812 0.39063-1.2969 0.64063-0.71875 0.23437-1.4062 0.23437zm8.2794-0.0312q-0.8125 0-1.5938-0.28125-0.76562-0.29687-1.2812-0.875l0.73438-1.0156q0.48437 0.46875 1 0.70312 0.51562 0.23438 1.0156 0.23438 0.375 0 0.6875-0.0937t0.5-0.3125q0.20313-0.21875 0.20313-0.59375 0-0.40625-0.26563-0.64063-0.26562-0.25-0.6875-0.39062-0.42187-0.15625-0.89062-0.28125-0.95313-0.32813-1.4531-0.875-0.5-0.5625-0.5-1.375 0-0.60938 0.29688-1.1406 0.3125-0.53125 0.92187-0.85937 0.60938-0.34375 1.5-0.34375 0.8125 0 1.4375 0.20312 0.64063 0.1875 1.2031 0.64063l-0.70313 1.0781q-0.32812-0.35937-0.79687-0.51562-0.46875-0.17188-0.84375-0.1875-0.3125-0.0312-0.60938 0.0937-0.28125 0.10937-0.46875 0.3125-0.1875 0.20312-0.1875 0.48437 0 0.39063 0.26563 0.64063 0.26562 0.23437 0.67187 0.375 0.42188 0.14062 0.84375 0.28125 0.57813 0.17187 1.0156 0.45312 0.45312 0.28125 0.71875 0.70313 0.26562 0.40625 0.26562 1.0156 0 0.6875-0.32812 1.2812-0.3125 0.57813-0.98438 0.9375-0.65625 0.34375-1.6875 0.34375z"/></g><path d="m34.215 260.83h881.32v36.693h-881.32z" fill-rule="evenodd"/></g><g fill-rule="evenodd"><path d="m34.215 260.83h881.32v36.693h-881.32z" stroke="#595959" stroke-linecap="butt" stroke-linejoin="round" stroke-width="2"/></g></g></svg>
