<?xml version="1.0" encoding="UTF-8" standalone="no"?>
<svg
   xmlns:dc="http://purl.org/dc/elements/1.1/"
   xmlns:cc="http://creativecommons.org/ns#"
   xmlns:rdf="http://www.w3.org/1999/02/22-rdf-syntax-ns#"
   xmlns:svg="http://www.w3.org/2000/svg"
   xmlns="http://www.w3.org/2000/svg"
   xmlns:sodipodi="http://sodipodi.sourceforge.net/DTD/sodipodi-0.dtd"
   xmlns:inkscape="http://www.inkscape.org/namespaces/inkscape"
   version="1.1"
   viewBox="0 0 883.32288 119.43055"
   fill="none"
   stroke="none"
   stroke-linecap="square"
   stroke-miterlimit="10"
   id="svg939"
   sodipodi:docname="pathtoperf2.svg"
   width="883.32288"
   height="119.43055"
   inkscape:version="1.0.1 (c497b03c, 2020-09-10)">
  <metadata
     id="metadata945">
    <rdf:RDF>
      <cc:Work
         rdf:about="">
        <dc:format>image/svg+xml</dc:format>
        <dc:type
           rdf:resource="http://purl.org/dc/dcmitype/StillImage" />
      </cc:Work>
    </rdf:RDF>
  </metadata>
  <defs
     id="defs943" />
  <sodipodi:namedview
     pagecolor="#ffffff"
     bordercolor="#666666"
     borderopacity="1"
     objecttolerance="10"
     gridtolerance="10"
     guidetolerance="10"
     inkscape:pageopacity="0"
     inkscape:pageshadow="2"
     inkscape:window-width="2560"
     inkscape:window-height="1395"
     id="namedview941"
     showgrid="false"
     inkscape:zoom="1.1604167"
     inkscape:cx="446.78478"
     inkscape:cy="42.16187"
     inkscape:window-x="0"
     inkscape:window-y="23"
     inkscape:window-maximized="1"
     inkscape:current-layer="svg939" />
  <g
     clip-path="url(#gecb95550f8_0_29.0)"
     id="g937"
     transform="translate(-33.21522,-227.83813)">
    <path
       fill="#eeeeee"
       d="m 54.609306,228.79126 q 1.46875,0 2.515625,0.5 1.046875,0.48437 1.609375,1.42187 0.578125,0.92188 0.578125,2.25 0,0.8125 -0.25,1.59375 -0.25,0.76563 -0.78125,1.39063 -0.53125,0.625 -1.390625,1 -0.84375,0.35937 -2.078125,0.35937 h -2 v 4.96875 h -1.8125 v -13.48437 z m 0.1875,6.78125 q 0.796875,0 1.3125,-0.25 0.53125,-0.26563 0.828125,-0.65625 0.296875,-0.40625 0.421875,-0.85938 0.140625,-0.45312 0.140625,-0.79687 0,-0.42188 -0.140625,-0.85938 -0.125,-0.4375 -0.4375,-0.79687 -0.296875,-0.35938 -0.796875,-0.59375 -0.5,-0.23438 -1.21875,-0.23438 h -2.09375 v 5.04688 z m 8.428589,-1.01563 0.171875,2.23438 -0.09375,-0.29688 q 0.296875,-0.71875 0.859375,-1.20312 0.578125,-0.5 1.203125,-0.76563 0.625,-0.26562 1.078125,-0.26562 l -0.09375,1.70312 q -0.875,-0.0469 -1.53125,0.34375 -0.65625,0.39063 -1.046875,1.04688 -0.375,0.65625 -0.375,1.39062 v 3.53125 h -1.71875 v -7.71875 z m 4.460007,3.78125 q 0,-1.15625 0.546875,-2.07812 0.546875,-0.9375 1.515625,-1.48438 0.96875,-0.54687 2.203125,-0.54687 1.265625,0 2.21875,0.54687 0.953125,0.54688 1.46875,1.48438 0.53125,0.92187 0.53125,2.07812 0,1.15625 -0.53125,2.10938 -0.515625,0.9375 -1.484375,1.48437 -0.953125,0.53125 -2.21875,0.53125 -1.234375,0 -2.203125,-0.51562 -0.953125,-0.51563 -1.5,-1.4375 -0.546875,-0.92188 -0.546875,-2.17188 z m 1.734375,0.0156 q 0,0.75 0.328125,1.35937 0.34375,0.60938 0.90625,0.96875 0.578125,0.34375 1.265625,0.34375 0.71875,0 1.28125,-0.34375 0.578125,-0.35937 0.890625,-0.96875 0.328125,-0.60937 0.328125,-1.35937 0,-0.75 -0.328125,-1.34375 -0.3125,-0.60938 -0.890625,-0.96875 -0.5625,-0.375 -1.28125,-0.375 -0.71875,0 -1.28125,0.375 -0.5625,0.375 -0.890625,0.98437 -0.328125,0.60938 -0.328125,1.32813 z m 13.652039,4.10937 q -0.875,0 -1.6875,-0.40625 -0.8125,-0.42187 -1.265625,-1.10937 l 0.125,-0.53125 v 5.57812 h -1.71875 v -11.54687 h 1.484375 l 0.25,1.96875 -0.1875,-0.54688 q 0.5625,-0.70312 1.40625,-1.17187 0.859375,-0.46875 1.9375,-0.46875 1.078125,0 1.9375,0.53125 0.875,0.51562 1.375,1.45312 0.5,0.9375 0.5,2.1875 0,1.25 -0.546875,2.17188 -0.53125,0.90625 -1.484375,1.40625 -0.9375,0.48437 -2.125,0.48437 z m -0.328125,-1.375 q 0.734375,0 1.359375,-0.34375 0.625,-0.35937 1,-0.95312 0.375,-0.60938 0.375,-1.375 0,-0.78125 -0.359375,-1.39063 -0.34375,-0.60937 -0.9375,-0.95312 -0.59375,-0.35938 -1.3125,-0.35938 -0.671875,0 -1.21875,0.26563 -0.53125,0.25 -0.890625,0.71875 -0.359375,0.45312 -0.5,1.04687 v 1.28125 q 0.09375,0.59375 0.4375,1.0625 0.359375,0.46875 0.890625,0.73438 0.53125,0.26562 1.15625,0.26562 z m 6.172531,-2.75 q 0,-1.15625 0.546875,-2.07812 0.546875,-0.9375 1.515625,-1.48438 0.96875,-0.54687 2.203125,-0.54687 1.265625,0 2.21875,0.54687 0.953125,0.54688 1.46875,1.48438 0.53125,0.92187 0.53125,2.07812 0,1.15625 -0.53125,2.10938 -0.515625,0.9375 -1.484375,1.48437 -0.953125,0.53125 -2.21875,0.53125 -1.234375,0 -2.203125,-0.51562 -0.953125,-0.51563 -1.5,-1.4375 -0.546875,-0.92188 -0.546875,-2.17188 z m 1.734375,0.0156 q 0,0.75 0.328125,1.35937 0.34375,0.60938 0.90625,0.96875 0.578125,0.34375 1.265625,0.34375 0.71875,0 1.28125,-0.34375 0.578125,-0.35937 0.890625,-0.96875 0.328125,-0.60937 0.328125,-1.35937 0,-0.75 -0.328125,-1.34375 -0.3125,-0.60938 -0.890625,-0.96875 -0.5625,-0.375 -1.28125,-0.375 -0.71875,0 -1.28125,0.375 -0.5625,0.375 -0.890625,0.98437 -0.328125,0.60938 -0.328125,1.32813 z m 11.261413,4.07812 q -0.8125,0 -1.59375,-0.28125 -0.765624,-0.29687 -1.281249,-0.875 l 0.734375,-1.01562 q 0.484374,0.46875 1.000004,0.70312 0.51562,0.23438 1.01562,0.23438 0.375,0 0.6875,-0.0937 0.3125,-0.0937 0.5,-0.3125 0.20313,-0.21875 0.20313,-0.59375 0,-0.40625 -0.26563,-0.64063 -0.26562,-0.25 -0.6875,-0.39062 -0.42187,-0.15625 -0.89062,-0.28125 -0.95313,-0.32813 -1.453129,-0.875 -0.5,-0.5625 -0.5,-1.375 0,-0.60938 0.296875,-1.14063 0.3125,-0.53125 0.921874,-0.85937 0.60938,-0.34375 1.5,-0.34375 0.8125,0 1.4375,0.20312 0.64063,0.1875 1.20313,0.64063 l -0.70313,1.07812 q -0.32812,-0.35937 -0.79687,-0.51562 -0.46875,-0.17188 -0.84375,-0.1875 -0.3125,-0.0312 -0.60938,0.0937 -0.28125,0.10937 -0.46875,0.3125 -0.1875,0.20312 -0.1875,0.48437 0,0.39063 0.26563,0.64063 0.26562,0.23437 0.67187,0.375 0.42188,0.14062 0.84375,0.28125 0.57813,0.17187 1.01563,0.45312 0.45312,0.28125 0.71875,0.70313 0.26562,0.40625 0.26562,1.01562 0,0.6875 -0.32812,1.28125 -0.3125,0.57813 -0.98438,0.9375 -0.65625,0.34375 -1.6875,0.34375 z m 8.63997,0.0312 q -1.07813,0 -1.96875,-0.46875 -0.89063,-0.46875 -1.40625,-1.375 -0.5,-0.90625 -0.5,-2.20312 0,-1.29688 0.53125,-2.23438 0.54687,-0.9375 1.45312,-1.4375 0.90625,-0.51562 1.98438,-0.51562 1.07812,0 1.82812,0.5 0.75,0.5 1.14063,1.17187 l -0.10938,0.29688 0.15625,-1.64063 h 1.60938 v 7.71875 h -1.73438 v -2.01562 l 0.1875,0.45312 q -0.0781,0.1875 -0.32812,0.48438 -0.25,0.28125 -0.67188,0.57812 -0.42187,0.29688 -0.96875,0.5 -0.53125,0.1875 -1.20312,0.1875 z m 0.46875,-1.4375 q 0.65625,0 1.17187,-0.23437 0.53125,-0.25 0.875,-0.6875 0.34375,-0.4375 0.46875,-1.0625 v -1.5 q -0.14062,-0.5625 -0.51562,-0.98438 -0.375,-0.42187 -0.90625,-0.65625 -0.51563,-0.23437 -1.15625,-0.23437 -0.6875,0 -1.26563,0.34375 -0.57812,0.32812 -0.92187,0.9375 -0.34375,0.59375 -0.34375,1.39062 0,0.75 0.34375,1.375 0.35937,0.60938 0.95312,0.96875 0.60938,0.34375 1.29688,0.34375 z m 7.2607,-13.1875 h 1.73437 v 14.4375 h -1.73437 z"
       fill-rule="nonzero"
       id="path915" />
    <path
       fill="#eeeeee"
       d="m 200.09464,242.27563 v -13.48438 h 3.67187 q 2,0 3.40625,0.625 1.40625,0.60938 2.26563,1.60938 0.85937,1 1.26562,2.23437 0.40625,1.21875 0.40625,2.4375 0,1.51563 -0.53125,2.73438 -0.53125,1.21875 -1.46875,2.07812 -0.9375,0.84375 -2.14062,1.3125 -1.20313,0.45313 -2.54688,0.45313 z m 1.8125,-1.73438 h 2.15625 q 1.125,0 2.0625,-0.32812 0.95312,-0.34375 1.64062,-0.96875 0.70313,-0.64063 1.09375,-1.5625 0.39063,-0.92188 0.39063,-2.10938 0,-1.25 -0.40625,-2.1875 -0.40625,-0.9375 -1.125,-1.5625 -0.70313,-0.64062 -1.59375,-0.96875 -0.89063,-0.32812 -1.89063,-0.32812 h -2.32812 z m 11.81378,-5.98437 h 1.73438 v 7.71875 h -1.73438 z m -0.14062,-2.8125 q 0,-0.40625 0.32812,-0.6875 0.32813,-0.28125 0.71875,-0.28125 0.39063,0 0.6875,0.28125 0.3125,0.28125 0.3125,0.6875 0,0.4375 -0.3125,0.70312 -0.29687,0.26563 -0.6875,0.26563 -0.39062,0 -0.71875,-0.28125 -0.32812,-0.28125 -0.32812,-0.6875 z m 7.03557,10.6875 q -0.8125,0 -1.59375,-0.28125 -0.76563,-0.29688 -1.28125,-0.875 l 0.73437,-1.01563 q 0.48438,0.46875 1,0.70313 0.51563,0.23437 1.01563,0.23437 0.375,0 0.6875,-0.0937 0.3125,-0.0937 0.5,-0.3125 0.20312,-0.21875 0.20312,-0.59375 0,-0.40625 -0.26562,-0.64062 -0.26563,-0.25 -0.6875,-0.39063 -0.42188,-0.15625 -0.89063,-0.28125 -0.95312,-0.32812 -1.45312,-0.875 -0.5,-0.5625 -0.5,-1.375 0,-0.60937 0.29687,-1.14062 0.3125,-0.53125 0.92188,-0.85938 0.60937,-0.34375 1.5,-0.34375 0.8125,0 1.4375,0.20313 0.64062,0.1875 1.20312,0.64062 l -0.70312,1.07813 q -0.32813,-0.35938 -0.79688,-0.51563 -0.46875,-0.17187 -0.84375,-0.1875 -0.3125,-0.0312 -0.60937,0.0937 -0.28125,0.10938 -0.46875,0.3125 -0.1875,0.20313 -0.1875,0.48438 0,0.39062 0.26562,0.64062 0.26563,0.23438 0.67188,0.375 0.42187,0.14063 0.84375,0.28125 0.57812,0.17188 1.01562,0.45313 0.45313,0.28125 0.71875,0.70312 0.26563,0.40625 0.26563,1.01563 0,0.6875 -0.32813,1.28125 -0.3125,0.57812 -0.98437,0.9375 -0.65625,0.34375 -1.6875,0.34375 z m 11.70246,-0.85938 q -0.53125,0.40625 -1.26562,0.65625 -0.71875,0.23438 -1.4375,0.23438 -1.26563,0 -2.21875,-0.5 -0.95313,-0.51563 -1.48438,-1.40625 -0.53125,-0.90625 -0.53125,-2.14063 0,-1.23437 0.5625,-2.14062 0.57813,-0.92188 1.5,-1.40625 0.92188,-0.5 1.98438,-0.5 0.9375,0 1.67187,0.26562 0.73438,0.25 1.25,0.70313 l -0.85937,1.10937 q -0.32813,-0.25 -0.8125,-0.45312 -0.48438,-0.21875 -1.10938,-0.21875 -0.67187,0 -1.23437,0.35937 -0.5625,0.34375 -0.89063,0.9375 -0.32812,0.59375 -0.32812,1.34375 0,0.70313 0.32812,1.3125 0.34375,0.60938 0.9375,0.95313 0.59375,0.34375 1.35938,0.34375 0.5,0 0.92187,-0.14063 0.42188,-0.15625 0.76563,-0.42187 z m 1.56975,-3.23437 q 0,-1.15625 0.54688,-2.07813 0.54687,-0.9375 1.51562,-1.48437 0.96875,-0.54688 2.20313,-0.54688 1.26562,0 2.21875,0.54688 0.95312,0.54687 1.46875,1.48437 0.53125,0.92188 0.53125,2.07813 0,1.15625 -0.53125,2.10937 -0.51563,0.9375 -1.48438,1.48438 -0.95312,0.53125 -2.21875,0.53125 -1.23437,0 -2.20312,-0.51563 -0.95313,-0.51562 -1.5,-1.4375 -0.54688,-0.92187 -0.54688,-2.17187 z m 1.73438,0.0156 q 0,0.75 0.32812,1.35938 0.34375,0.60937 0.90625,0.96875 0.57813,0.34375 1.26563,0.34375 0.71875,0 1.28125,-0.34375 0.57812,-0.35938 0.89062,-0.96875 0.32813,-0.60938 0.32813,-1.35938 0,-0.75 -0.32813,-1.34375 -0.3125,-0.60937 -0.89062,-0.96875 -0.5625,-0.375 -1.28125,-0.375 -0.71875,0 -1.28125,0.375 -0.5625,0.375 -0.89063,0.98438 -0.32812,0.60937 -0.32812,1.32812 z m 11.9875,4.14063 -4.28125,-7.9375 h 2.04687 l 2.90625,6.14062 -1.0625,-0.0469 2.67188,-6.09375 h 1.9375 l -4.125,7.9375 z m 9.48267,-0.0312 q -1.32814,0 -2.28127,-0.53125 -0.95312,-0.53125 -1.46875,-1.45313 -0.5,-0.92187 -0.5,-2.125 0,-1.14062 0.57813,-2.0625 0.57812,-0.9375 1.54687,-1.5 0.96875,-0.5625 2.15627,-0.5625 1.53125,0 2.53125,0.90625 1.01562,0.89063 1.375,2.45313 l -6.35939,2.25 -0.42188,-1.03125 5.23439,-1.90625 -0.375,0.25 q -0.21875,-0.625 -0.75,-1.07813 -0.51562,-0.45312 -1.35937,-0.45312 -0.70313,0 -1.26564,0.34375 -0.5625,0.34375 -0.89063,0.9375 -0.3125,0.59375 -0.3125,1.35937 0,0.8125 0.32813,1.42188 0.34375,0.59375 0.9375,0.9375 0.59376,0.34375 1.32814,0.34375 0.51562,0 0.98437,-0.17188 0.46875,-0.1875 0.89063,-0.5 l 0.79687,1.29688 q -0.57812,0.39062 -1.29687,0.64062 -0.71875,0.23438 -1.40625,0.23438 z m 7.66998,-7.90625 0.17187,2.23437 -0.0937,-0.29687 q 0.29688,-0.71875 0.85938,-1.20313 0.57812,-0.5 1.20312,-0.76562 0.625,-0.26563 1.07813,-0.26563 l -0.0937,1.70313 q -0.875,-0.0469 -1.53125,0.34375 -0.65625,0.39062 -1.04688,1.04687 -0.375,0.65625 -0.375,1.39063 v 3.53125 h -1.71875 v -7.71875 z m 6.12414,11.4375 5.07813,-11.4375 h 1.60937 l -4.98437,11.4375 z m 1.89063,-3.65625 -3.70313,-7.78125 h 1.95313 l 3.10937,6.89062 z"
       fill-rule="nonzero"
       id="path917" />
    <path
       fill="#eeeeee"
       d="m 490.3551,242.27563 v -13.48438 h 3.67187 q 2,0 3.40625,0.625 1.40625,0.60938 2.26563,1.60938 0.85937,1 1.26562,2.23437 0.40625,1.21875 0.40625,2.4375 0,1.51563 -0.53125,2.73438 -0.53125,1.21875 -1.46875,2.07812 -0.9375,0.84375 -2.14062,1.3125 -1.20313,0.45313 -2.54688,0.45313 z m 1.8125,-1.73438 h 2.15625 q 1.125,0 2.0625,-0.32812 0.95312,-0.34375 1.64062,-0.96875 0.70313,-0.64063 1.09375,-1.5625 0.39063,-0.92188 0.39063,-2.10938 0,-1.25 -0.40625,-2.1875 -0.40625,-0.9375 -1.125,-1.5625 -0.70313,-0.64062 -1.59375,-0.96875 -0.89063,-0.32812 -1.89063,-0.32812 h -2.32812 z m 15.39191,1.92188 q -1.32813,0 -2.28125,-0.53125 -0.95313,-0.53125 -1.46875,-1.45313 -0.5,-0.92187 -0.5,-2.125 0,-1.14062 0.57812,-2.0625 0.57813,-0.9375 1.54688,-1.5 0.96875,-0.5625 2.15625,-0.5625 1.53125,0 2.53125,0.90625 1.01562,0.89063 1.375,2.45313 l -6.35938,2.25 -0.42187,-1.03125 5.23437,-1.90625 -0.375,0.25 q -0.21875,-0.625 -0.75,-1.07813 -0.51562,-0.45312 -1.35937,-0.45312 -0.70313,0 -1.26563,0.34375 -0.5625,0.34375 -0.89062,0.9375 -0.3125,0.59375 -0.3125,1.35937 0,0.8125 0.32812,1.42188 0.34375,0.59375 0.9375,0.9375 0.59375,0.34375 1.32813,0.34375 0.51562,0 0.98437,-0.17188 0.46875,-0.1875 0.89063,-0.5 l 0.79687,1.29688 q -0.57812,0.39062 -1.29687,0.64062 -0.71875,0.23438 -1.40625,0.23438 z m 8.98675,0.0312 -4.28125,-7.9375 h 2.04688 l 2.90625,6.14062 -1.0625,-0.0469 2.67187,-6.09375 h 1.9375 l -4.125,7.9375 z m 9.48267,-0.0312 q -1.32813,0 -2.28125,-0.53125 -0.95313,-0.53125 -1.46875,-1.45313 -0.5,-0.92187 -0.5,-2.125 0,-1.14062 0.57812,-2.0625 0.57813,-0.9375 1.54688,-1.5 0.96875,-0.5625 2.15625,-0.5625 1.53125,0 2.53125,0.90625 1.01562,0.89063 1.375,2.45313 l -6.35938,2.25 -0.42187,-1.03125 5.23437,-1.90625 -0.375,0.25 q -0.21875,-0.625 -0.75,-1.07813 -0.51562,-0.45312 -1.35937,-0.45312 -0.70313,0 -1.26563,0.34375 -0.5625,0.34375 -0.89062,0.9375 -0.3125,0.59375 -0.3125,1.35937 0,0.8125 0.32812,1.42188 0.34375,0.59375 0.9375,0.9375 0.59375,0.34375 1.32813,0.34375 0.51562,0 0.98437,-0.17188 0.46875,-0.1875 0.89063,-0.5 l 0.79687,1.29688 q -0.57812,0.39062 -1.29687,0.64062 -0.71875,0.23438 -1.40625,0.23438 z m 6.12311,-14.625 h 1.73437 v 14.4375 h -1.73437 z m 4.06683,10.5 q 0,-1.15625 0.54687,-2.07813 0.54688,-0.9375 1.51563,-1.48437 0.96875,-0.54688 2.20312,-0.54688 1.26563,0 2.21875,0.54688 0.95313,0.54687 1.46875,1.48437 0.53125,0.92188 0.53125,2.07813 0,1.15625 -0.53125,2.10937 -0.51562,0.9375 -1.48437,1.48438 -0.95313,0.53125 -2.21875,0.53125 -1.23438,0 -2.20313,-0.51563 -0.95312,-0.51562 -1.5,-1.4375 -0.54687,-0.92187 -0.54687,-2.17187 z m 1.73437,0.0156 q 0,0.75 0.32813,1.35938 0.34375,0.60937 0.90625,0.96875 0.57812,0.34375 1.26562,0.34375 0.71875,0 1.28125,-0.34375 0.57813,-0.35938 0.89063,-0.96875 0.32812,-0.60938 0.32812,-1.35938 0,-0.75 -0.32812,-1.34375 -0.3125,-0.60937 -0.89063,-0.96875 -0.5625,-0.375 -1.28125,-0.375 -0.71875,0 -1.28125,0.375 -0.5625,0.375 -0.89062,0.98438 -0.32813,0.60937 -0.32813,1.32812 z m 13.65204,4.10938 q -0.875,0 -1.6875,-0.40625 -0.8125,-0.42188 -1.26562,-1.10938 l 0.125,-0.53125 v 5.57813 h -1.71875 V 234.4475 h 1.48437 l 0.25,1.96875 -0.1875,-0.54687 q 0.5625,-0.70313 1.40625,-1.17188 0.85938,-0.46875 1.9375,-0.46875 1.07813,0 1.9375,0.53125 0.875,0.51563 1.375,1.45313 0.5,0.9375 0.5,2.1875 0,1.25 -0.54687,2.17187 -0.53125,0.90625 -1.48438,1.40625 -0.9375,0.48438 -2.125,0.48438 z m -0.32812,-1.375 q 0.73437,0 1.35937,-0.34375 0.625,-0.35938 1,-0.95313 0.375,-0.60937 0.375,-1.375 0,-0.78125 -0.35937,-1.39062 -0.34375,-0.60938 -0.9375,-0.95313 -0.59375,-0.35937 -1.3125,-0.35937 -0.67188,0 -1.21875,0.26562 -0.53125,0.25 -0.89063,0.71875 -0.35937,0.45313 -0.5,1.04688 v 1.28125 q 0.0937,0.59375 0.4375,1.0625 0.35938,0.46875 0.89063,0.73437 0.53125,0.26563 1.15625,0.26563 z m 8.39129,-6.53125 0.14063,1.73437 -0.0625,-0.15625 q 0.42187,-0.875 1.21875,-1.375 0.79687,-0.5 1.8125,-0.5 0.65625,0 1.15625,0.20313 0.5,0.20312 0.82812,0.59375 0.32813,0.375 0.42188,0.9375 l -0.0937,0.0469 q 0.45312,-0.84375 1.23437,-1.3125 0.79688,-0.46875 1.6875,-0.46875 1.125,0 1.78125,0.64063 0.67188,0.64062 0.6875,1.67187 v 5.70313 h -1.73437 v -5.09375 q -0.0156,-0.59375 -0.29688,-1 -0.26562,-0.40625 -0.9375,-0.4375 -0.65625,0 -1.20312,0.42187 -0.53125,0.40625 -0.82813,1.04688 -0.29687,0.64062 -0.3125,1.39062 v 3.67188 h -1.73437 v -5.09375 q -0.0156,-0.59375 -0.3125,-1 -0.28125,-0.40625 -0.95313,-0.4375 -0.6875,0 -1.21875,0.42187 -0.51562,0.40625 -0.8125,1.0625 -0.28125,0.64063 -0.28125,1.39063 v 3.65625 h -1.73437 v -7.71875 z m 17.42267,7.90625 q -1.32812,0 -2.28125,-0.53125 -0.95312,-0.53125 -1.46875,-1.45313 -0.5,-0.92187 -0.5,-2.125 0,-1.14062 0.57813,-2.0625 0.57812,-0.9375 1.54687,-1.5 0.96875,-0.5625 2.15625,-0.5625 1.53125,0 2.53125,0.90625 1.01563,0.89063 1.375,2.45313 l -6.35937,2.25 -0.42188,-1.03125 5.23438,-1.90625 -0.375,0.25 q -0.21875,-0.625 -0.75,-1.07813 -0.51563,-0.45312 -1.35938,-0.45312 -0.70312,0 -1.26562,0.34375 -0.5625,0.34375 -0.89063,0.9375 -0.3125,0.59375 -0.3125,1.35937 0,0.8125 0.32813,1.42188 0.34375,0.59375 0.9375,0.9375 0.59375,0.34375 1.32812,0.34375 0.51563,0 0.98438,-0.17188 0.46875,-0.1875 0.89062,-0.5 l 0.79688,1.29688 q -0.57813,0.39062 -1.29688,0.64062 -0.71875,0.23438 -1.40625,0.23438 z m 7.66999,-7.90625 0.14062,1.875 -0.0625,-0.29688 q 0.35938,-0.85937 1.20313,-1.35937 0.84375,-0.51563 1.9375,-0.51563 1.10937,0 1.79687,0.64063 0.70313,0.64062 0.73438,1.67187 v 5.70313 h -1.76563 v -5.09375 q -0.0156,-0.64063 -0.35937,-1.03125 -0.34375,-0.40625 -1.07813,-0.40625 -0.67187,0 -1.21875,0.375 -0.53125,0.375 -0.84375,1.03125 -0.29687,0.64062 -0.29687,1.5 v 3.625 h -1.73438 v -7.71875 z m 9.50439,-3.40625 h 1.75 v 3.4375 h 2.125 v 1.35937 h -2.125 v 6.32813 h -1.75 v -6.32813 h -1.40625 v -1.35937 h 1.40625 z"
       fill-rule="nonzero"
       id="path919" />
    <path
       fill="#eeeeee"
       d="m 363.96497,242.27563 v -13.48438 h 3.67187 q 2,0 3.40625,0.625 1.40625,0.60938 2.26563,1.60938 0.85937,1 1.26562,2.23437 0.40625,1.21875 0.40625,2.4375 0,1.51563 -0.53125,2.73438 -0.53125,1.21875 -1.46875,2.07812 -0.9375,0.84375 -2.14062,1.3125 -1.20313,0.45313 -2.54688,0.45313 z m 1.8125,-1.73438 h 2.15625 q 1.125,0 2.0625,-0.32812 0.95312,-0.34375 1.64062,-0.96875 0.70313,-0.64063 1.09375,-1.5625 0.39063,-0.92188 0.39063,-2.10938 0,-1.25 -0.40625,-2.1875 -0.40625,-0.9375 -1.125,-1.5625 -0.70313,-0.64062 -1.59375,-0.96875 -0.89063,-0.32812 -1.89063,-0.32812 h -2.32812 z m 15.39191,1.92188 q -1.32813,0 -2.28125,-0.53125 -0.95313,-0.53125 -1.46875,-1.45313 -0.5,-0.92187 -0.5,-2.125 0,-1.14062 0.57812,-2.0625 0.57813,-0.9375 1.54688,-1.5 0.96875,-0.5625 2.15625,-0.5625 1.53125,0 2.53125,0.90625 1.01562,0.89063 1.375,2.45313 l -6.35938,2.25 -0.42187,-1.03125 5.23437,-1.90625 -0.375,0.25 q -0.21875,-0.625 -0.75,-1.07813 -0.51562,-0.45312 -1.35937,-0.45312 -0.70313,0 -1.26563,0.34375 -0.5625,0.34375 -0.89062,0.9375 -0.3125,0.59375 -0.3125,1.35937 0,0.8125 0.32812,1.42188 0.34375,0.59375 0.9375,0.9375 0.59375,0.34375 1.32813,0.34375 0.51562,0 0.98437,-0.17188 0.46875,-0.1875 0.89063,-0.5 l 0.79687,1.29688 q -0.57812,0.39062 -1.29687,0.64062 -0.71875,0.23438 -1.40625,0.23438 z m 8.27935,-0.0312 q -0.8125,0 -1.59375,-0.28125 -0.76562,-0.29688 -1.28125,-0.875 l 0.73438,-1.01563 q 0.48437,0.46875 1,0.70313 0.51562,0.23437 1.01562,0.23437 0.375,0 0.6875,-0.0937 0.3125,-0.0937 0.5,-0.3125 0.20313,-0.21875 0.20313,-0.59375 0,-0.40625 -0.26563,-0.64062 -0.26562,-0.25 -0.6875,-0.39063 -0.42187,-0.15625 -0.89062,-0.28125 -0.95313,-0.32812 -1.45313,-0.875 -0.5,-0.5625 -0.5,-1.375 0,-0.60937 0.29688,-1.14062 0.3125,-0.53125 0.92187,-0.85938 0.60938,-0.34375 1.5,-0.34375 0.8125,0 1.4375,0.20313 0.64063,0.1875 1.20313,0.64062 l -0.70313,1.07813 q -0.32812,-0.35938 -0.79687,-0.51563 -0.46875,-0.17187 -0.84375,-0.1875 -0.3125,-0.0312 -0.60938,0.0937 -0.28125,0.10938 -0.46875,0.3125 -0.1875,0.20313 -0.1875,0.48438 0,0.39062 0.26563,0.64062 0.26562,0.23438 0.67187,0.375 0.42188,0.14063 0.84375,0.28125 0.57813,0.17188 1.01563,0.45313 0.45312,0.28125 0.71875,0.70312 0.26562,0.40625 0.26562,1.01563 0,0.6875 -0.32812,1.28125 -0.3125,0.57812 -0.98438,0.9375 -0.65625,0.34375 -1.6875,0.34375 z m 5.43686,-7.875 h 1.73438 v 7.71875 h -1.73438 z m -0.14062,-2.8125 q 0,-0.40625 0.32812,-0.6875 0.32813,-0.28125 0.71875,-0.28125 0.39063,0 0.6875,0.28125 0.3125,0.28125 0.3125,0.6875 0,0.4375 -0.3125,0.70312 -0.29687,0.26563 -0.6875,0.26563 -0.39062,0 -0.71875,-0.28125 -0.32812,-0.28125 -0.32812,-0.6875 z m 8.58243,14.35937 q -0.85938,0 -1.51563,-0.20312 -0.64062,-0.1875 -1.17187,-0.54688 -0.53125,-0.35937 -1.01563,-0.79687 l 1,-1.1875 q 0.625,0.57812 1.25,0.89062 0.64063,0.32813 1.42188,0.32813 0.875,0 1.48437,-0.29688 0.60938,-0.28125 0.92188,-0.79687 0.3125,-0.51563 0.3125,-1.1875 l 0.0156,-2.07813 0.15625,0.32813 q -0.32812,0.79687 -1.21875,1.35937 -0.875,0.54688 -2.125,0.54688 -1.0625,0 -1.95312,-0.53125 -0.875,-0.54688 -1.40625,-1.46875 -0.53125,-0.9375 -0.53125,-2.09375 0,-1.20313 0.54687,-2.125 0.5625,-0.92188 1.46875,-1.46875 0.92188,-0.54688 2.01563,-0.54688 1.01562,0 1.85937,0.42188 0.85938,0.42187 1.25,1.07812 l -0.0937,0.3125 0.1875,-1.48437 h 1.57813 v 7.78125 q 0,1.03125 -0.54688,1.89062 -0.53125,0.85938 -1.51562,1.35938 -0.98438,0.51562 -2.375,0.51562 z m -2.64063,-7.76562 q 0,0.75 0.34375,1.375 0.35938,0.60937 0.96875,0.96875 0.60938,0.34375 1.35938,0.34375 0.6875,0 1.23437,-0.25 0.54688,-0.25 0.92188,-0.6875 0.375,-0.4375 0.51562,-1.01563 v -1.53125 q -0.15625,-0.5625 -0.54687,-0.98437 -0.39063,-0.42188 -0.9375,-0.65625 -0.54688,-0.23438 -1.1875,-0.23438 -0.75,0 -1.35938,0.34375 -0.60937,0.32813 -0.96875,0.9375 -0.34375,0.60938 -0.34375,1.39063 z m 11.64081,-3.78125 0.14062,1.875 -0.0625,-0.29688 q 0.35938,-0.85937 1.20313,-1.35937 0.84375,-0.51563 1.9375,-0.51563 1.10937,0 1.79687,0.64063 0.70313,0.64062 0.73438,1.67187 v 5.70313 h -1.76563 v -5.09375 q -0.0156,-0.64063 -0.35937,-1.03125 -0.34375,-0.40625 -1.07813,-0.40625 -0.67187,0 -1.21875,0.375 -0.53125,0.375 -0.84375,1.03125 -0.29687,0.64062 -0.29687,1.5 v 3.625 h -1.73438 v -7.71875 z"
       fill-rule="nonzero"
       id="path921" />
    <path
       fill="#eeeeee"
       d="m 667.3314,228.79126 h 1.8125 v 11.75 h 6.84375 v 1.73437 h -8.65625 z m 14.38544,13.67187 q -1.07813,0 -1.96875,-0.46875 -0.89063,-0.46875 -1.40625,-1.375 -0.5,-0.90625 -0.5,-2.20312 0,-1.29688 0.53125,-2.23438 0.54687,-0.9375 1.45312,-1.4375 0.90625,-0.51562 1.98438,-0.51562 1.07812,0 1.82812,0.5 0.75,0.5 1.14063,1.17187 l -0.10938,0.29688 0.15625,-1.64063 h 1.60938 v 7.71875 h -1.73438 v -2.01562 l 0.1875,0.45312 q -0.0781,0.1875 -0.32812,0.48438 -0.25,0.28125 -0.67188,0.57812 -0.42187,0.29688 -0.96875,0.5 -0.53125,0.1875 -1.20312,0.1875 z m 0.46875,-1.4375 q 0.65625,0 1.17187,-0.23437 0.53125,-0.25 0.875,-0.6875 0.34375,-0.4375 0.46875,-1.0625 v -1.5 q -0.14062,-0.5625 -0.51562,-0.98438 -0.375,-0.42187 -0.90625,-0.65625 -0.51563,-0.23437 -1.15625,-0.23437 -0.6875,0 -1.26563,0.34375 -0.57812,0.32812 -0.92187,0.9375 -0.34375,0.59375 -0.34375,1.39062 0,0.75 0.34375,1.375 0.35937,0.60938 0.95312,0.96875 0.60938,0.34375 1.29688,0.34375 z m 9.69818,1.54688 q -1.04688,0 -1.73438,-0.64063 -0.67187,-0.64062 -0.70312,-1.67187 v -5.70313 h 1.73437 v 5.09375 q 0.0312,0.625 0.35938,1.01563 0.32812,0.39062 1.03125,0.42187 0.65625,0 1.17187,-0.375 0.51563,-0.39062 0.82813,-1.04687 0.3125,-0.67188 0.3125,-1.51563 v -3.59375 h 1.73437 v 7.71875 h -1.57812 l -0.15625,-1.90625 0.0937,0.34375 q -0.21875,0.53125 -0.6875,0.95313 -0.45313,0.42187 -1.0625,0.65625 -0.60938,0.25 -1.34375,0.25 z m 9.29571,-8.01563 0.14063,1.875 -0.0625,-0.29687 q 0.35937,-0.85938 1.20312,-1.35938 0.84375,-0.51562 1.9375,-0.51562 1.10938,0 1.79688,0.64062 0.70312,0.64063 0.73437,1.67188 v 5.70312 h -1.76562 v -5.09375 q -0.0156,-0.64062 -0.35938,-1.03125 -0.34375,-0.40625 -1.07812,-0.40625 -0.67188,0 -1.21875,0.375 -0.53125,0.375 -0.84375,1.03125 -0.29688,0.64063 -0.29688,1.5 v 3.625 h -1.73437 v -7.71875 z m 15.03565,7.01563 q -0.53125,0.40625 -1.26563,0.65625 -0.71875,0.23437 -1.4375,0.23437 -1.26562,0 -2.21875,-0.5 -0.95312,-0.51562 -1.48437,-1.40625 -0.53125,-0.90625 -0.53125,-2.14062 0,-1.23438 0.5625,-2.14063 0.57812,-0.92187 1.5,-1.40625 0.92187,-0.5 1.98437,-0.5 0.9375,0 1.67188,0.26563 0.73437,0.25 1.25,0.70312 l -0.85938,1.10938 q -0.32812,-0.25 -0.8125,-0.45313 -0.48437,-0.21875 -1.10937,-0.21875 -0.67188,0 -1.23438,0.35938 -0.5625,0.34375 -0.89062,0.9375 -0.32813,0.59375 -0.32813,1.34375 0,0.70312 0.32813,1.3125 0.34375,0.60937 0.9375,0.95312 0.59375,0.34375 1.35937,0.34375 0.5,0 0.92188,-0.14062 0.42187,-0.15625 0.76562,-0.42188 z m 2.24164,0.70312 v -14.4375 h 1.6875 v 8.5 l -0.0312,-0.3125 q 0.39062,-0.76562 1.20312,-1.26562 0.8125,-0.5 1.90625,-0.5 1.10938,0 1.79688,0.64062 0.70312,0.64063 0.73437,1.67188 v 5.70312 h -1.76562 v -5.09375 q -0.0156,-0.64062 -0.35938,-1.03125 -0.34375,-0.40625 -1.07812,-0.40625 -0.67188,0 -1.21875,0.39063 -0.53125,0.375 -0.84375,1.03125 -0.29688,0.65625 -0.29688,1.48437 v 3.625 z"
       fill-rule="nonzero"
       id="path923" />
    <path
       fill="#eeeeee"
       d="m 830.3997,228.79126 h 8 v 1.73437 h -6.1875 v 4.3125 h 5.42188 v 1.70313 h -5.42188 v 5.73437 h -1.8125 z m 10.23071,5.76562 h 1.73438 v 7.71875 h -1.73438 z m -0.14062,-2.8125 q 0,-0.40625 0.32812,-0.6875 0.32813,-0.28125 0.71875,-0.28125 0.39063,0 0.6875,0.28125 0.3125,0.28125 0.3125,0.6875 0,0.4375 -0.3125,0.70313 -0.29687,0.26562 -0.6875,0.26562 -0.39062,0 -0.71875,-0.28125 -0.32812,-0.28125 -0.32812,-0.6875 z m 7.78552,5.6875 1.84375,-2.875 h 1.75 l -2.95312,4.14063 z m 3.90625,4.84375 h -2.09375 l -5.875,-7.71875 h 2.14063 z m -4.09375,-2.875 -2.03125,2.875 h -1.75 l 2.9375,-4.03125 z m 9.42255,3.0625 q -1.32813,0 -2.28125,-0.53125 -0.95313,-0.53125 -1.46875,-1.45312 -0.5,-0.92188 -0.5,-2.125 0,-1.14063 0.57812,-2.0625 0.57813,-0.9375 1.54688,-1.5 0.96875,-0.5625 2.15625,-0.5625 1.53125,0 2.53125,0.90625 1.01562,0.89062 1.375,2.45312 l -6.35938,2.25 -0.42187,-1.03125 5.23437,-1.90625 -0.375,0.25 q -0.21875,-0.625 -0.75,-1.07812 -0.51562,-0.45313 -1.35937,-0.45313 -0.70313,0 -1.26563,0.34375 -0.5625,0.34375 -0.89062,0.9375 -0.3125,0.59375 -0.3125,1.35938 0,0.8125 0.32812,1.42187 0.34375,0.59375 0.9375,0.9375 0.59375,0.34375 1.32813,0.34375 0.51562,0 0.98437,-0.17187 0.46875,-0.1875 0.89063,-0.5 l 0.79687,1.29687 q -0.57812,0.39063 -1.29687,0.64063 -0.71875,0.23437 -1.40625,0.23437 z m 8.27935,-0.0312 q -0.8125,0 -1.59375,-0.28125 -0.76562,-0.29687 -1.28125,-0.875 l 0.73438,-1.01562 q 0.48437,0.46875 1,0.70312 0.51562,0.23438 1.01562,0.23438 0.375,0 0.6875,-0.0937 0.3125,-0.0937 0.5,-0.3125 0.20313,-0.21875 0.20313,-0.59375 0,-0.40625 -0.26563,-0.64063 -0.26562,-0.25 -0.6875,-0.39062 -0.42187,-0.15625 -0.89062,-0.28125 -0.95313,-0.32813 -1.45313,-0.875 -0.5,-0.5625 -0.5,-1.375 0,-0.60938 0.29688,-1.14063 0.3125,-0.53125 0.92187,-0.85937 0.60938,-0.34375 1.5,-0.34375 0.8125,0 1.4375,0.20312 0.64063,0.1875 1.20313,0.64063 l -0.70313,1.07812 q -0.32812,-0.35937 -0.79687,-0.51562 -0.46875,-0.17188 -0.84375,-0.1875 -0.3125,-0.0312 -0.60938,0.0937 -0.28125,0.10937 -0.46875,0.3125 -0.1875,0.20312 -0.1875,0.48437 0,0.39063 0.26563,0.64063 0.26562,0.23437 0.67187,0.375 0.42188,0.14062 0.84375,0.28125 0.57813,0.17187 1.01563,0.45312 0.45312,0.28125 0.71875,0.70313 0.26562,0.40625 0.26562,1.01562 0,0.6875 -0.32812,1.28125 -0.3125,0.57813 -0.98438,0.9375 -0.65625,0.34375 -1.6875,0.34375 z"
       fill-rule="nonzero"
       id="path925" />
    <path
       fill="#eeeeee"
       d="m 34.21522,260.82678 h 881.3229 v 36.6929 H 34.21522 Z"
       fill-rule="evenodd"
       id="path927" />
    <path
       fill="#aa00cc"
       d="m 34.21522,260.82678 h 540.3465 v 36.6929 H 34.21522 Z"
       fill-rule="evenodd"
       class="stage2"
       id="path929" />
    <path
       fill="#eeeeee"
       fill-opacity="0"
       d="m 34.21522,260.82678 h 881.3229 v 36.6929 H 34.21522 Z"
       fill-rule="evenodd"
       id="path931" />
    <path
       stroke="#595959"
       stroke-width="2"
       stroke-linejoin="round"
       stroke-linecap="butt"
       d="m 34.21522,260.82678 h 881.3229 v 36.6929 H 34.21522 Z"
       fill-rule="evenodd"
       id="path933" />
    <path
       fill="#eeeeee"
       d="m 157.90933,330.14368 h 2.09375 l 3.65625,10.29688 -0.32813,-0.14063 2.67188,-6.90625 0.84375,2.45313 -3.5625,8.3125 z m 6.46875,0 h 1.8125 l 3.95312,10.14063 -0.375,-0.0781 3.5,-10.0625 h 1.92188 l -5.29688,14 z m 13.08676,13.40625 v -14.4375 h 1.6875 v 8.5 l -0.0312,-0.3125 q 0.39063,-0.76562 1.20313,-1.26562 0.8125,-0.5 1.90625,-0.5 1.10937,0 1.79687,0.64062 0.70313,0.64063 0.73438,1.67188 v 5.70312 h -1.76563 v -5.09375 q -0.0156,-0.64062 -0.35937,-1.03125 -0.34375,-0.40625 -1.07813,-0.40625 -0.67187,0 -1.21875,0.39063 -0.53125,0.375 -0.84375,1.03125 -0.29687,0.65625 -0.29687,1.48437 v 3.625 z m 13.89504,0.1875 q -1.32813,0 -2.28125,-0.53125 -0.95313,-0.53125 -1.46875,-1.45312 -0.5,-0.92188 -0.5,-2.125 0,-1.14063 0.57812,-2.0625 0.57813,-0.9375 1.54688,-1.5 0.96875,-0.5625 2.15625,-0.5625 1.53125,0 2.53125,0.90625 1.01562,0.89062 1.375,2.45312 l -6.35938,2.25 -0.42187,-1.03125 5.23437,-1.90625 -0.375,0.25 q -0.21875,-0.625 -0.75,-1.07812 -0.51562,-0.45313 -1.35937,-0.45313 -0.70313,0 -1.26563,0.34375 -0.5625,0.34375 -0.89062,0.9375 -0.3125,0.59375 -0.3125,1.35938 0,0.8125 0.32812,1.42187 0.34375,0.59375 0.9375,0.9375 0.59375,0.34375 1.32813,0.34375 0.51562,0 0.98437,-0.17187 0.46875,-0.1875 0.89063,-0.5 l 0.79687,1.29687 q -0.57812,0.39063 -1.29687,0.64063 -0.71875,0.23437 -1.40625,0.23437 z m 7.66999,-7.90625 0.17188,2.23438 -0.0937,-0.29688 q 0.29687,-0.71875 0.85937,-1.20312 0.57813,-0.5 1.20313,-0.76563 0.625,-0.26562 1.07812,-0.26562 l -0.0937,1.70312 q -0.875,-0.0469 -1.53125,0.34375 -0.65625,0.39063 -1.04687,1.04688 -0.375,0.65625 -0.375,1.39062 v 3.53125 H 197.483 v -7.71875 z m 8.71001,7.90625 q -1.32812,0 -2.28125,-0.53125 -0.95312,-0.53125 -1.46875,-1.45312 -0.5,-0.92188 -0.5,-2.125 0,-1.14063 0.57813,-2.0625 0.57812,-0.9375 1.54687,-1.5 0.96875,-0.5625 2.15625,-0.5625 1.53125,0 2.53125,0.90625 1.01563,0.89062 1.375,2.45312 l -6.35937,2.25 -0.42188,-1.03125 5.23438,-1.90625 -0.375,0.25 q -0.21875,-0.625 -0.75,-1.07812 -0.51563,-0.45313 -1.35938,-0.45313 -0.70312,0 -1.26562,0.34375 -0.5625,0.34375 -0.89063,0.9375 -0.3125,0.59375 -0.3125,1.35938 0,0.8125 0.32813,1.42187 0.34375,0.59375 0.9375,0.9375 0.59375,0.34375 1.32812,0.34375 0.51563,0 0.98438,-0.17187 0.46875,-0.1875 0.89062,-0.5 l 0.79688,1.29687 q -0.57813,0.39063 -1.29688,0.64063 -0.71875,0.23437 -1.40625,0.23437 z m 16.56537,0 q -0.875,0 -1.6875,-0.40625 -0.8125,-0.42187 -1.26563,-1.10937 l 0.125,-0.53125 v 5.57812 h -1.71875 v -11.54687 h 1.48438 l 0.25,1.96875 -0.1875,-0.54688 q 0.5625,-0.70312 1.40625,-1.17187 0.85937,-0.46875 1.9375,-0.46875 1.07812,0 1.9375,0.53125 0.875,0.51562 1.375,1.45312 0.5,0.9375 0.5,2.1875 0,1.25 -0.54688,2.17188 -0.53125,0.90625 -1.48437,1.40625 -0.9375,0.48437 -2.125,0.48437 z m -0.32813,-1.375 q 0.73438,0 1.35938,-0.34375 0.625,-0.35937 1,-0.95312 0.375,-0.60938 0.375,-1.375 0,-0.78125 -0.35938,-1.39063 -0.34375,-0.60937 -0.9375,-0.95312 -0.59375,-0.35938 -1.3125,-0.35938 -0.67187,0 -1.21875,0.26563 -0.53125,0.25 -0.89062,0.71875 -0.35938,0.45312 -0.5,1.04687 v 1.28125 q 0.0937,0.59375 0.4375,1.0625 0.35937,0.46875 0.89062,0.73438 0.53125,0.26562 1.15625,0.26562 z m 10.42254,1.375 q -1.32813,0 -2.28125,-0.53125 -0.95313,-0.53125 -1.46875,-1.45312 -0.5,-0.92188 -0.5,-2.125 0,-1.14063 0.57812,-2.0625 0.57813,-0.9375 1.54688,-1.5 0.96875,-0.5625 2.15625,-0.5625 1.53125,0 2.53125,0.90625 1.01562,0.89062 1.375,2.45312 l -6.35938,2.25 -0.42187,-1.03125 5.23437,-1.90625 -0.375,0.25 q -0.21875,-0.625 -0.75,-1.07812 -0.51562,-0.45313 -1.35937,-0.45313 -0.70313,0 -1.26563,0.34375 -0.5625,0.34375 -0.89062,0.9375 -0.3125,0.59375 -0.3125,1.35938 0,0.8125 0.32812,1.42187 0.34375,0.59375 0.9375,0.9375 0.59375,0.34375 1.32813,0.34375 0.51562,0 0.98437,-0.17187 0.46875,-0.1875 0.89063,-0.5 l 0.79687,1.29687 q -0.57812,0.39063 -1.29687,0.64063 -0.71875,0.23437 -1.40625,0.23437 z m 7.66999,-7.90625 0.17188,2.23438 -0.0937,-0.29688 q 0.29687,-0.71875 0.85937,-1.20312 0.57813,-0.5 1.20313,-0.76563 0.625,-0.26562 1.07812,-0.26562 l -0.0937,1.70312 q -0.875,-0.0469 -1.53125,0.34375 -0.65625,0.39063 -1.04687,1.04688 -0.375,0.65625 -0.375,1.39062 v 3.53125 h -1.71875 v -7.71875 z m 6.09288,7.71875 v -6.17187 h -1.3125 v -1.54688 h 1.3125 v -3.26562 q 0,-1.6875 0.75,-2.57813 0.76563,-0.89062 2.23438,-0.89062 0.39062,0 0.85937,0.10937 0.48438,0.10938 0.84375,0.375 l -0.73437,1.25 q -0.15625,-0.17187 -0.375,-0.23437 -0.20313,-0.0625 -0.40625,-0.0625 -0.6875,0 -1.0625,0.46875 -0.375,0.45312 -0.375,1.57812 v 3.25 h 2.45312 v 1.54688 h -2.45312 v 6.17187 z m 5.36319,-3.9375 q 0,-1.15625 0.54688,-2.07812 0.54687,-0.9375 1.51562,-1.48438 0.96875,-0.54687 2.20313,-0.54687 1.26562,0 2.21875,0.54687 0.95312,0.54688 1.46875,1.48438 0.53125,0.92187 0.53125,2.07812 0,1.15625 -0.53125,2.10938 -0.51563,0.9375 -1.48438,1.48437 -0.95312,0.53125 -2.21875,0.53125 -1.23437,0 -2.20312,-0.51562 -0.95313,-0.51563 -1.5,-1.4375 -0.54688,-0.92188 -0.54688,-2.17188 z m 1.73438,0.0156 q 0,0.75 0.32812,1.35937 0.34375,0.60938 0.90625,0.96875 0.57813,0.34375 1.26563,0.34375 0.71875,0 1.28125,-0.34375 0.57812,-0.35937 0.89062,-0.96875 0.32813,-0.60937 0.32813,-1.35937 0,-0.75 -0.32813,-1.34375 -0.3125,-0.60938 -0.89062,-0.96875 -0.5625,-0.375 -1.28125,-0.375 -0.71875,0 -1.28125,0.375 -0.5625,0.375 -0.89063,0.98437 -0.32812,0.60938 -0.32812,1.32813 z m 10.65204,-3.79688 0.17187,2.23438 -0.0937,-0.29688 q 0.29688,-0.71875 0.85938,-1.20312 0.57812,-0.5 1.20312,-0.76563 0.625,-0.26562 1.07813,-0.26562 l -0.0937,1.70312 q -0.875,-0.0469 -1.53125,0.34375 -0.65625,0.39063 -1.04688,1.04688 -0.375,0.65625 -0.375,1.39062 v 3.53125 h -1.71875 v -7.71875 z m 7.01477,0 0.14062,1.73438 -0.0625,-0.15625 q 0.42188,-0.875 1.21875,-1.375 0.79688,-0.5 1.8125,-0.5 0.65625,0 1.15625,0.20312 0.5,0.20313 0.82813,0.59375 0.32812,0.375 0.42187,0.9375 l -0.0937,0.0469 q 0.45313,-0.84375 1.23438,-1.3125 0.79687,-0.46875 1.6875,-0.46875 1.125,0 1.78125,0.64062 0.67187,0.64063 0.6875,1.67188 v 5.70312 h -1.73438 v -5.09375 q -0.0156,-0.59375 -0.29687,-1 -0.26563,-0.40625 -0.9375,-0.4375 -0.65625,0 -1.20313,0.42188 -0.53125,0.40625 -0.82812,1.04687 -0.29688,0.64063 -0.3125,1.39063 v 3.67187 h -1.73438 v -5.09375 q -0.0156,-0.59375 -0.3125,-1 -0.28125,-0.40625 -0.95312,-0.4375 -0.6875,0 -1.21875,0.42188 -0.51563,0.40625 -0.8125,1.0625 -0.28125,0.64062 -0.28125,1.39062 v 3.65625 h -1.73438 v -7.71875 z m 17.04764,7.90625 q -1.07813,0 -1.96875,-0.46875 -0.89063,-0.46875 -1.40625,-1.375 -0.5,-0.90625 -0.5,-2.20312 0,-1.29688 0.53125,-2.23438 0.54687,-0.9375 1.45312,-1.4375 0.90625,-0.51562 1.98438,-0.51562 1.07812,0 1.82812,0.5 0.75,0.5 1.14063,1.17187 l -0.10938,0.29688 0.15625,-1.64063 h 1.60938 v 7.71875 h -1.73438 v -2.01562 l 0.1875,0.45312 q -0.0781,0.1875 -0.32812,0.48438 -0.25,0.28125 -0.67188,0.57812 -0.42187,0.29688 -0.96875,0.5 -0.53125,0.1875 -1.20312,0.1875 z m 0.46875,-1.4375 q 0.65625,0 1.17187,-0.23437 0.53125,-0.25 0.875,-0.6875 0.34375,-0.4375 0.46875,-1.0625 v -1.5 q -0.14062,-0.5625 -0.51562,-0.98438 -0.375,-0.42187 -0.90625,-0.65625 -0.51563,-0.23437 -1.15625,-0.23437 -0.6875,0 -1.26563,0.34375 -0.57812,0.32812 -0.92187,0.9375 -0.34375,0.59375 -0.34375,1.39062 0,0.75 0.34375,1.375 0.35937,0.60938 0.95312,0.96875 0.60938,0.34375 1.29688,0.34375 z m 8.80758,-6.46875 0.14063,1.875 -0.0625,-0.29687 q 0.35937,-0.85938 1.20312,-1.35938 0.84375,-0.51562 1.9375,-0.51562 1.10938,0 1.79688,0.64062 0.70312,0.64063 0.73437,1.67188 v 5.70312 h -1.76562 v -5.09375 q -0.0156,-0.64062 -0.35938,-1.03125 -0.34375,-0.40625 -1.07812,-0.40625 -0.67188,0 -1.21875,0.375 -0.53125,0.375 -0.84375,1.03125 -0.29688,0.64063 -0.29688,1.5 v 3.625 h -1.73437 v -7.71875 z m 15.03565,7.01563 q -0.53125,0.40625 -1.26563,0.65625 -0.71875,0.23437 -1.4375,0.23437 -1.26562,0 -2.21875,-0.5 -0.95312,-0.51562 -1.48437,-1.40625 -0.53125,-0.90625 -0.53125,-2.14062 0,-1.23438 0.5625,-2.14063 0.57812,-0.92187 1.5,-1.40625 0.92187,-0.5 1.98437,-0.5 0.9375,0 1.67188,0.26563 0.73437,0.25 1.25,0.70312 l -0.85938,1.10938 q -0.32812,-0.25 -0.8125,-0.45313 -0.48437,-0.21875 -1.10937,-0.21875 -0.67188,0 -1.23438,0.35938 -0.5625,0.34375 -0.89062,0.9375 -0.32813,0.59375 -0.32813,1.34375 0,0.70312 0.32813,1.3125 0.34375,0.60937 0.9375,0.95312 0.59375,0.34375 1.35937,0.34375 0.5,0 0.92188,-0.14062 0.42187,-0.15625 0.76562,-0.42188 z m 5.81976,0.89062 q -1.32812,0 -2.28125,-0.53125 -0.95312,-0.53125 -1.46875,-1.45312 -0.5,-0.92188 -0.5,-2.125 0,-1.14063 0.57813,-2.0625 0.57812,-0.9375 1.54687,-1.5 0.96875,-0.5625 2.15625,-0.5625 1.53125,0 2.53125,0.90625 1.01563,0.89062 1.375,2.45312 l -6.35937,2.25 -0.42188,-1.03125 5.23438,-1.90625 -0.375,0.25 q -0.21875,-0.625 -0.75,-1.07812 -0.51563,-0.45313 -1.35938,-0.45313 -0.70312,0 -1.26562,0.34375 -0.5625,0.34375 -0.89063,0.9375 -0.3125,0.59375 -0.3125,1.35938 0,0.8125 0.32813,1.42187 0.34375,0.59375 0.9375,0.9375 0.59375,0.34375 1.32812,0.34375 0.51563,0 0.98438,-0.17187 0.46875,-0.1875 0.89062,-0.5 l 0.79688,1.29687 q -0.57813,0.39063 -1.29688,0.64063 -0.71875,0.23437 -1.40625,0.23437 z m 13.56537,-7.90625 0.14063,1.875 -0.0625,-0.29687 q 0.35937,-0.85938 1.20312,-1.35938 0.84375,-0.51562 1.9375,-0.51562 1.10938,0 1.79688,0.64062 0.70312,0.64063 0.73437,1.67188 v 5.70312 h -1.76562 v -5.09375 q -0.0156,-0.64062 -0.35938,-1.03125 -0.34375,-0.40625 -1.07812,-0.40625 -0.67188,0 -1.21875,0.375 -0.53125,0.375 -0.84375,1.03125 -0.29688,0.64063 -0.29688,1.5 v 3.625 h -1.73437 v -7.71875 z m 12.34815,7.90625 q -1.32813,0 -2.28125,-0.53125 -0.95313,-0.53125 -1.46875,-1.45312 -0.5,-0.92188 -0.5,-2.125 0,-1.14063 0.57812,-2.0625 0.57813,-0.9375 1.54688,-1.5 0.96875,-0.5625 2.15625,-0.5625 1.53125,0 2.53125,0.90625 1.01562,0.89062 1.375,2.45312 l -6.35938,2.25 -0.42187,-1.03125 5.23437,-1.90625 -0.375,0.25 q -0.21875,-0.625 -0.75,-1.07812 -0.51562,-0.45313 -1.35937,-0.45313 -0.70313,0 -1.26563,0.34375 -0.5625,0.34375 -0.89062,0.9375 -0.3125,0.59375 -0.3125,1.35938 0,0.8125 0.32812,1.42187 0.34375,0.59375 0.9375,0.9375 0.59375,0.34375 1.32813,0.34375 0.51562,0 0.98437,-0.17187 0.46875,-0.1875 0.89063,-0.5 l 0.79687,1.29687 q -0.57812,0.39063 -1.29687,0.64063 -0.71875,0.23437 -1.40625,0.23437 z m 9.70126,0 q -1.32813,0 -2.28125,-0.53125 -0.95313,-0.53125 -1.46875,-1.45312 -0.5,-0.92188 -0.5,-2.125 0,-1.14063 0.57812,-2.0625 0.57813,-0.9375 1.54688,-1.5 0.96875,-0.5625 2.15625,-0.5625 1.53125,0 2.53125,0.90625 1.01559,0.89062 1.37497,2.45312 l -6.35935,2.25 -0.42187,-1.03125 5.23437,-1.90625 -0.375,0.25 q -0.21875,-0.625 -0.75,-1.07812 -0.51562,-0.45313 -1.35937,-0.45313 -0.70313,0 -1.26563,0.34375 -0.5625,0.34375 -0.89062,0.9375 -0.3125,0.59375 -0.3125,1.35938 0,0.8125 0.32812,1.42187 0.34375,0.59375 0.9375,0.9375 0.59375,0.34375 1.32813,0.34375 0.51562,0 0.98437,-0.17187 0.46875,-0.1875 0.89063,-0.5 l 0.79687,1.29687 q -0.57812,0.39063 -1.29687,0.64063 -0.71875,0.23437 -1.40625,0.23437 z m 9.24811,0 q -1.0625,0 -1.9375,-0.51562 -0.85938,-0.51563 -1.35938,-1.45313 -0.5,-0.9375 -0.5,-2.17187 0,-1.29688 0.53125,-2.20313 0.53125,-0.92187 1.4375,-1.40625 0.92188,-0.48437 2.0625,-0.48437 0.90625,0 1.73438,0.40625 0.82812,0.39062 1.29687,1.07812 l -0.0781,0.60938 v -8.48438 h 1.71875 v 14.4375 h -1.73438 v -1.92187 l 0.1875,0.48437 q -0.53125,0.70313 -1.39062,1.17188 -0.85938,0.45312 -1.96875,0.45312 z m 0.54687,-1.46875 q 0.6875,0 1.21875,-0.25 0.54688,-0.26562 0.90625,-0.70312 0.35938,-0.45313 0.5,-1.0625 v -1.45313 q -0.14062,-0.5625 -0.53125,-0.98437 -0.375,-0.42188 -0.90625,-0.67188 -0.53125,-0.25 -1.1875,-0.25 -0.70312,0 -1.29687,0.34375 -0.59375,0.34375 -0.95313,0.9375 -0.34375,0.59375 -0.34375,1.375 0,0.76563 0.34375,1.375 0.35938,0.60938 0.95313,0.98438 0.60937,0.35937 1.29687,0.35937 z m 9.54752,1.4375 q -0.8125,0 -1.59375,-0.28125 -0.76563,-0.29687 -1.28125,-0.875 l 0.73437,-1.01562 q 0.48438,0.46875 1,0.70312 0.51563,0.23438 1.01563,0.23438 0.375,0 0.6875,-0.0937 0.3125,-0.0937 0.5,-0.3125 0.20312,-0.21875 0.20312,-0.59375 0,-0.40625 -0.26562,-0.64063 -0.26563,-0.25 -0.6875,-0.39062 -0.42188,-0.15625 -0.89063,-0.28125 -0.95312,-0.32813 -1.45312,-0.875 -0.5,-0.5625 -0.5,-1.375 0,-0.60938 0.29687,-1.14063 0.3125,-0.53125 0.92188,-0.85937 0.60937,-0.34375 1.5,-0.34375 0.8125,0 1.4375,0.20312 0.64062,0.1875 1.20312,0.64063 l -0.70312,1.07812 q -0.32813,-0.35937 -0.79688,-0.51562 -0.46875,-0.17188 -0.84375,-0.1875 -0.3125,-0.0312 -0.60937,0.0937 -0.28125,0.10937 -0.46875,0.3125 -0.1875,0.20312 -0.1875,0.48437 0,0.39063 0.26562,0.64063 0.26563,0.23437 0.67188,0.375 0.42187,0.14062 0.84375,0.28125 0.57812,0.17187 1.01562,0.45312 0.45313,0.28125 0.71875,0.70313 0.26563,0.40625 0.26563,1.01562 0,0.6875 -0.32813,1.28125 -0.3125,0.57813 -0.98437,0.9375 -0.65625,0.34375 -1.6875,0.34375 z m 12.06659,-11.28125 h 1.75 v 3.4375 h 2.125 v 1.35938 h -2.125 v 6.32812 h -1.75 v -6.32812 h -1.40625 v -1.35938 h 1.40625 z m 5.29138,7.1875 q 0,-1.15625 0.54687,-2.07812 0.54688,-0.9375 1.51563,-1.48438 0.96875,-0.54687 2.20312,-0.54687 1.26563,0 2.21875,0.54687 0.95313,0.54688 1.46875,1.48438 0.53125,0.92187 0.53125,2.07812 0,1.15625 -0.53125,2.10938 -0.51562,0.9375 -1.48437,1.48437 -0.95313,0.53125 -2.21875,0.53125 -1.23438,0 -2.20313,-0.51562 -0.95312,-0.51563 -1.5,-1.4375 -0.54687,-0.92188 -0.54687,-2.17188 z m 1.73437,0.0156 q 0,0.75 0.32813,1.35937 0.34375,0.60938 0.90625,0.96875 0.57812,0.34375 1.26562,0.34375 0.71875,0 1.28125,-0.34375 0.57813,-0.35937 0.89063,-0.96875 0.32812,-0.60937 0.32812,-1.35937 0,-0.75 -0.32812,-1.34375 -0.3125,-0.60938 -0.89063,-0.96875 -0.5625,-0.375 -1.28125,-0.375 -0.71875,0 -1.28125,0.375 -0.5625,0.375 -0.89062,0.98437 -0.32813,0.60938 -0.32813,1.32813 z m 15.00052,3.92187 v -14.4375 h 1.6875 v 8.5 l -0.0312,-0.3125 q 0.39063,-0.76562 1.20313,-1.26562 0.8125,-0.5 1.90625,-0.5 1.10937,0 1.79687,0.64062 0.70313,0.64063 0.73438,1.67188 v 5.70312 h -1.76563 v -5.09375 q -0.0156,-0.64062 -0.35937,-1.03125 -0.34375,-0.40625 -1.07813,-0.40625 -0.67187,0 -1.21875,0.39063 -0.53125,0.375 -0.84375,1.03125 -0.29687,0.65625 -0.29687,1.48437 v 3.625 z m 13.52005,0.1875 q -1.07812,0 -1.96875,-0.46875 -0.89062,-0.46875 -1.40625,-1.375 -0.5,-0.90625 -0.5,-2.20312 0,-1.29688 0.53125,-2.23438 0.54688,-0.9375 1.45313,-1.4375 0.90625,-0.51562 1.98437,-0.51562 1.07813,0 1.82813,0.5 0.75,0.5 1.14062,1.17187 l -0.10937,0.29688 0.15625,-1.64063 h 1.60937 v 7.71875 h -1.73437 v -2.01562 l 0.1875,0.45312 q -0.0781,0.1875 -0.32813,0.48438 -0.25,0.28125 -0.67187,0.57812 -0.42188,0.29688 -0.96875,0.5 -0.53125,0.1875 -1.20313,0.1875 z m 0.46875,-1.4375 q 0.65625,0 1.17188,-0.23437 0.53125,-0.25 0.875,-0.6875 0.34375,-0.4375 0.46875,-1.0625 v -1.5 q -0.14063,-0.5625 -0.51563,-0.98438 -0.375,-0.42187 -0.90625,-0.65625 -0.51562,-0.23437 -1.15625,-0.23437 -0.6875,0 -1.26562,0.34375 -0.57813,0.32812 -0.92188,0.9375 -0.34375,0.59375 -0.34375,1.39062 0,0.75 0.34375,1.375 0.35938,0.60938 0.95313,0.96875 0.60937,0.34375 1.29687,0.34375 z m 11.80756,1.4375 q -0.875,0 -1.6875,-0.40625 -0.8125,-0.42187 -1.26563,-1.10937 l 0.125,-0.53125 v 5.57812 h -1.71875 v -11.54687 h 1.48438 l 0.25,1.96875 -0.1875,-0.54688 q 0.5625,-0.70312 1.40625,-1.17187 0.85937,-0.46875 1.9375,-0.46875 1.07812,0 1.9375,0.53125 0.875,0.51562 1.375,1.45312 0.5,0.9375 0.5,2.1875 0,1.25 -0.54688,2.17188 -0.53125,0.90625 -1.48437,1.40625 -0.9375,0.48437 -2.125,0.48437 z m -0.32813,-1.375 q 0.73438,0 1.35938,-0.34375 0.625,-0.35937 1,-0.95312 0.375,-0.60938 0.375,-1.375 0,-0.78125 -0.35938,-1.39063 -0.34375,-0.60937 -0.9375,-0.95312 -0.59375,-0.35938 -1.3125,-0.35938 -0.67187,0 -1.21875,0.26563 -0.53125,0.25 -0.89062,0.71875 -0.35938,0.45312 -0.5,1.04687 v 1.28125 q 0.0937,0.59375 0.4375,1.0625 0.35937,0.46875 0.89062,0.73438 0.53125,0.26562 1.15625,0.26562 z m 11.3913,1.375 q -0.875,0 -1.6875,-0.40625 -0.8125,-0.42187 -1.26563,-1.10937 l 0.125,-0.53125 v 5.57812 h -1.71875 v -11.54687 h 1.48438 l 0.25,1.96875 -0.1875,-0.54688 q 0.5625,-0.70312 1.40625,-1.17187 0.85937,-0.46875 1.9375,-0.46875 1.07812,0 1.9375,0.53125 0.875,0.51562 1.375,1.45312 0.5,0.9375 0.5,2.1875 0,1.25 -0.54688,2.17188 -0.53125,0.90625 -1.48437,1.40625 -0.9375,0.48437 -2.125,0.48437 z m -0.32813,-1.375 q 0.73438,0 1.35938,-0.34375 0.625,-0.35937 1,-0.95312 0.375,-0.60938 0.375,-1.375 0,-0.78125 -0.35938,-1.39063 -0.34375,-0.60937 -0.9375,-0.95312 -0.59375,-0.35938 -1.3125,-0.35938 -0.67187,0 -1.21875,0.26563 -0.53125,0.25 -0.89062,0.71875 -0.35938,0.45312 -0.5,1.04687 v 1.28125 q 0.0937,0.59375 0.4375,1.0625 0.35937,0.46875 0.89062,0.73438 0.53125,0.26562 1.15625,0.26562 z m 10.42255,1.375 q -1.32812,0 -2.28125,-0.53125 -0.95312,-0.53125 -1.46875,-1.45312 -0.5,-0.92188 -0.5,-2.125 0,-1.14063 0.57813,-2.0625 0.57812,-0.9375 1.54687,-1.5 0.96875,-0.5625 2.15625,-0.5625 1.53125,0 2.53125,0.90625 1.01563,0.89062 1.375,2.45312 l -6.35937,2.25 -0.42188,-1.03125 5.23438,-1.90625 -0.375,0.25 q -0.21875,-0.625 -0.75,-1.07812 -0.51563,-0.45313 -1.35938,-0.45313 -0.70312,0 -1.26562,0.34375 -0.5625,0.34375 -0.89063,0.9375 -0.3125,0.59375 -0.3125,1.35938 0,0.8125 0.32813,1.42187 0.34375,0.59375 0.9375,0.9375 0.59375,0.34375 1.32812,0.34375 0.51563,0 0.98438,-0.17187 0.46875,-0.1875 0.89062,-0.5 l 0.79688,1.29687 q -0.57813,0.39063 -1.29688,0.64063 -0.71875,0.23437 -1.40625,0.23437 z m 7.66998,-7.90625 0.14063,1.875 -0.0625,-0.29687 q 0.35937,-0.85938 1.20312,-1.35938 0.84375,-0.51562 1.9375,-0.51562 1.10938,0 1.79688,0.64062 0.70312,0.64063 0.73437,1.67188 v 5.70312 h -1.76562 v -5.09375 q -0.0156,-0.64062 -0.35938,-1.03125 -0.34375,-0.40625 -1.07812,-0.40625 -0.67188,0 -1.21875,0.375 -0.53125,0.375 -0.84375,1.03125 -0.29688,0.64063 -0.29688,1.5 v 3.625 h -1.73437 v -7.71875 z"
       fill-rule="nonzero"
       class="stage2"
       id="path935" />
  </g>
</svg>
