<svg xmlns:xlink="http://www.w3.org/1999/xlink" xmlns="http://www.w3.org/2000/svg" version="1.1" viewBox="0.0 0.0 960.0 540.0" fill="none" stroke="none" stroke-linecap="square" stroke-miterlimit="10">
<g clip-path="url(#gecb95550f8_0_29.0)">
    <path fill="#eeeeee" d="m54.609306 228.79126q1.46875 0 2.515625 0.5q1.046875 0.484375 1.609375 1.421875q0.578125 0.921875 0.578125 2.25q0 0.8125 -0.25 1.59375q-0.25 0.765625 -0.78125 1.390625q-0.53125 0.625 -1.390625 1.0q-0.84375 0.359375 -2.078125 0.359375l-2.0 0l0 4.96875l-1.8125 0l0 -13.484375l3.609375 0zm0.1875 6.78125q0.796875 0 1.3125 -0.25q0.53125 -0.265625 0.828125 -0.65625q0.296875 -0.40625 0.421875 -0.859375q0.140625 -0.453125 0.140625 -0.796875q0 -0.421875 -0.140625 -0.859375q-0.125 -0.4375 -0.4375 -0.796875q-0.296875 -0.359375 -0.796875 -0.59375q-0.5 -0.234375 -1.21875 -0.234375l-2.09375 0l0 5.046875l1.984375 0zm8.428589 -1.015625l0.171875 2.234375l-0.09375 -0.296875q0.296875 -0.71875 0.859375 -1.203125q0.578125 -0.5 1.203125 -0.765625q0.625 -0.265625 1.078125 -0.265625l-0.09375 1.703125q-0.875 -0.046875 -1.53125 0.34375q-0.65625 0.390625 -1.046875 1.046875q-0.375 0.65625 -0.375 1.390625l0 3.53125l-1.71875 0l0 -7.71875l1.546875 0zm4.4600067 3.78125q0 -1.15625 0.546875 -2.078125q0.546875 -0.9375 1.515625 -1.484375q0.96875 -0.546875 2.203125 -0.546875q1.265625 0 2.21875 0.546875q0.953125 0.546875 1.46875 1.484375q0.53125 0.921875 0.53125 2.078125q0 1.15625 -0.53125 2.109375q-0.515625 0.9375 -1.484375 1.484375q-0.953125 0.53125 -2.21875 0.53125q-1.234375 0 -2.203125 -0.515625q-0.953125 -0.515625 -1.5 -1.4375q-0.546875 -0.921875 -0.546875 -2.171875zm1.734375 0.015625q0 0.75 0.328125 1.359375q0.34375 0.609375 0.90625 0.96875q0.578125 0.34375 1.265625 0.34375q0.71875 0 1.28125 -0.34375q0.578125 -0.359375 0.890625 -0.96875q0.328125 -0.609375 0.328125 -1.359375q0 -0.75 -0.328125 -1.34375q-0.3125 -0.609375 -0.890625 -0.96875q-0.5625 -0.375 -1.28125 -0.375q-0.71875 0 -1.28125 0.375q-0.5625 0.375 -0.890625 0.984375q-0.328125 0.609375 -0.328125 1.328125zm13.652039 4.109375q-0.875 0 -1.6875 -0.40625q-0.8125 -0.421875 -1.265625 -1.109375l0.125 -0.53125l0 5.578125l-1.71875 0l0 -11.546875l1.484375 0l0.25 1.96875l-0.1875 -0.546875q0.5625 -0.703125 1.40625 -1.171875q0.859375 -0.46875 1.9375 -0.46875q1.078125 0 1.9375 0.53125q0.875 0.515625 1.375 1.453125q0.5 0.9375 0.5 2.1875q0 1.25 -0.546875 2.171875q-0.53125 0.90625 -1.484375 1.40625q-0.9375 0.484375 -2.125 0.484375zm-0.328125 -1.375q0.734375 0 1.359375 -0.34375q0.625 -0.359375 1.0 -0.953125q0.375 -0.609375 0.375 -1.375q0 -0.78125 -0.359375 -1.390625q-0.34375 -0.609375 -0.9375 -0.953125q-0.59375 -0.359375 -1.3125 -0.359375q-0.671875 0 -1.21875 0.265625q-0.53125 0.25 -0.890625 0.71875q-0.359375 0.453125 -0.5 1.046875l0 1.28125q0.09375 0.59375 0.4375 1.0625q0.359375 0.46875 0.890625 0.734375q0.53125 0.265625 1.15625 0.265625zm6.172531 -2.75q0 -1.15625 0.546875 -2.078125q0.546875 -0.9375 1.515625 -1.484375q0.96875 -0.546875 2.203125 -0.546875q1.265625 0 2.21875 0.546875q0.953125 0.546875 1.46875 1.484375q0.53125 0.921875 0.53125 2.078125q0 1.15625 -0.53125 2.109375q-0.515625 0.9375 -1.484375 1.484375q-0.953125 0.53125 -2.21875 0.53125q-1.234375 0 -2.203125 -0.515625q-0.953125 -0.515625 -1.5 -1.4375q-0.546875 -0.921875 -0.546875 -2.171875zm1.734375 0.015625q0 0.75 0.328125 1.359375q0.34375 0.609375 0.90625 0.96875q0.578125 0.34375 1.265625 0.34375q0.71875 0 1.28125 -0.34375q0.578125 -0.359375 0.890625 -0.96875q0.328125 -0.609375 0.328125 -1.359375q0 -0.75 -0.328125 -1.34375q-0.3125 -0.609375 -0.890625 -0.96875q-0.5625 -0.375 -1.28125 -0.375q-0.71875 0 -1.28125 0.375q-0.5625 0.375 -0.890625 0.984375q-0.328125 0.609375 -0.328125 1.328125zm11.261414 4.078125q-0.8125 0 -1.59375 -0.28125q-0.765625 -0.296875 -1.28125 -0.875l0.734375 -1.015625q0.484375 0.46875 1.0 0.703125q0.515625 0.234375 1.015625 0.234375q0.375 0 0.6875 -0.09375q0.3125 -0.09375 0.5 -0.3125q0.203125 -0.21875 0.203125 -0.59375q0 -0.40625 -0.265625 -0.640625q-0.265625 -0.25 -0.6875 -0.390625q-0.421875 -0.15625 -0.890625 -0.28125q-0.953125 -0.328125 -1.453125 -0.875q-0.5 -0.5625 -0.5 -1.375q0 -0.609375 0.296875 -1.140625q0.3125 -0.53125 0.921875 -0.859375q0.609375 -0.34375 1.5 -0.34375q0.8125 0 1.4375 0.203125q0.640625 0.1875 1.203125 0.640625l-0.703125 1.078125q-0.328125 -0.359375 -0.796875 -0.515625q-0.46875 -0.171875 -0.84375 -0.1875q-0.3125 -0.03125 -0.609375 0.09375q-0.28125 0.109375 -0.46875 0.3125q-0.1875 0.203125 -0.1875 0.484375q0 0.390625 0.265625 0.640625q0.265625 0.234375 0.671875 0.375q0.421875 0.140625 0.84375 0.28125q0.578125 0.171875 1.015625 0.453125q0.453125 0.28125 0.71875 0.703125q0.265625 0.40625 0.265625 1.015625q0 0.6875 -0.328125 1.28125q-0.3125 0.578125 -0.984375 0.9375q-0.65625 0.34375 -1.6875 0.34375zm8.639969 0.03125q-1.078125 0 -1.96875 -0.46875q-0.890625 -0.46875 -1.40625 -1.375q-0.5 -0.90625 -0.5 -2.203125q0 -1.296875 0.53125 -2.234375q0.546875 -0.9375 1.453125 -1.4375q0.90625 -0.515625 1.984375 -0.515625q1.078125 0 1.828125 0.5q0.75 0.5 1.140625 1.171875l-0.109375 0.296875l0.15625 -1.640625l1.609375 0l0 7.71875l-1.734375 0l0 -2.015625l0.1875 0.453125q-0.078125 0.1875 -0.328125 0.484375q-0.25 0.28125 -0.671875 0.578125q-0.421875 0.296875 -0.96875 0.5q-0.53125 0.1875 -1.203125 0.1875zm0.46875 -1.4375q0.65625 0 1.171875 -0.234375q0.53125 -0.25 0.875 -0.6875q0.34375 -0.4375 0.46875 -1.0625l0 -1.5q-0.140625 -0.5625 -0.515625 -0.984375q-0.375 -0.421875 -0.90625 -0.65625q-0.515625 -0.234375 -1.15625 -0.234375q-0.6875 0 -1.265625 0.34375q-0.578125 0.328125 -0.921875 0.9375q-0.34375 0.59375 -0.34375 1.390625q0 0.75 0.34375 1.375q0.359375 0.609375 0.953125 0.96875q0.609375 0.34375 1.296875 0.34375zm7.2606964 -13.1875l1.734375 0l0 14.4375l-1.734375 0l0 -14.4375z" fill-rule="nonzero"/>
    
    <path fill="#eeeeee" d="m200.09464 242.27563l0 -13.484375l3.671875 0q2.0 0 3.40625 0.625q1.40625 0.609375 2.265625 1.609375q0.859375 1.0 1.265625 2.234375q0.40625 1.21875 0.40625 2.4375q0 1.515625 -0.53125 2.734375q-0.53125 1.21875 -1.46875 2.078125q-0.9375 0.84375 -2.140625 1.3125q-1.203125 0.453125 -2.546875 0.453125l-4.328125 0zm1.8125 -1.734375l2.15625 0q1.125 0 2.0625 -0.328125q0.953125 -0.34375 1.640625 -0.96875q0.703125 -0.640625 1.09375 -1.5625q0.390625 -0.921875 0.390625 -2.109375q0 -1.25 -0.40625 -2.1875q-0.40625 -0.9375 -1.125 -1.5625q-0.703125 -0.640625 -1.59375 -0.96875q-0.890625 -0.328125 -1.890625 -0.328125l-2.328125 0l0 10.015625zm11.813782 -5.984375l1.734375 0l0 7.71875l-1.734375 0l0 -7.71875zm-0.140625 -2.8125q0 -0.40625 0.328125 -0.6875q0.328125 -0.28125 0.71875 -0.28125q0.390625 0 0.6875 0.28125q0.3125 0.28125 0.3125 0.6875q0 0.4375 -0.3125 0.703125q-0.296875 0.265625 -0.6875 0.265625q-0.390625 0 -0.71875 -0.28125q-0.328125 -0.28125 -0.328125 -0.6875zm7.035568 10.6875q-0.8125 0 -1.59375 -0.28125q-0.765625 -0.296875 -1.28125 -0.875l0.734375 -1.015625q0.484375 0.46875 1.0 0.703125q0.515625 0.234375 1.015625 0.234375q0.375 0 0.6875 -0.09375q0.3125 -0.09375 0.5 -0.3125q0.203125 -0.21875 0.203125 -0.59375q0 -0.40625 -0.265625 -0.640625q-0.265625 -0.25 -0.6875 -0.390625q-0.421875 -0.15625 -0.890625 -0.28125q-0.953125 -0.328125 -1.453125 -0.875q-0.5 -0.5625 -0.5 -1.375q0 -0.609375 0.296875 -1.140625q0.3125 -0.53125 0.921875 -0.859375q0.609375 -0.34375 1.5 -0.34375q0.8125 0 1.4375 0.203125q0.640625 0.1875 1.203125 0.640625l-0.703125 1.078125q-0.328125 -0.359375 -0.796875 -0.515625q-0.46875 -0.171875 -0.84375 -0.1875q-0.3125 -0.03125 -0.609375 0.09375q-0.28125 0.109375 -0.46875 0.3125q-0.1875 0.203125 -0.1875 0.484375q0 0.390625 0.265625 0.640625q0.265625 0.234375 0.671875 0.375q0.421875 0.140625 0.84375 0.28125q0.578125 0.171875 1.015625 0.453125q0.453125 0.28125 0.71875 0.703125q0.265625 0.40625 0.265625 1.015625q0 0.6875 -0.328125 1.28125q-0.3125 0.578125 -0.984375 0.9375q-0.65625 0.34375 -1.6875 0.34375zm11.702469 -0.859375q-0.53125 0.40625 -1.265625 0.65625q-0.71875 0.234375 -1.4375 0.234375q-1.265625 0 -2.21875 -0.5q-0.953125 -0.515625 -1.484375 -1.40625q-0.53125 -0.90625 -0.53125 -2.140625q0 -1.234375 0.5625 -2.140625q0.578125 -0.921875 1.5 -1.40625q0.921875 -0.5 1.984375 -0.5q0.9375 0 1.671875 0.265625q0.734375 0.25 1.25 0.703125l-0.859375 1.109375q-0.328125 -0.25 -0.8125 -0.453125q-0.484375 -0.21875 -1.109375 -0.21875q-0.671875 0 -1.234375 0.359375q-0.5625 0.34375 -0.890625 0.9375q-0.328125 0.59375 -0.328125 1.34375q0 0.703125 0.328125 1.3125q0.34375 0.609375 0.9375 0.953125q0.59375 0.34375 1.359375 0.34375q0.5 0 0.921875 -0.140625q0.421875 -0.15625 0.765625 -0.421875l0.890625 1.109375zm1.5697479 -3.234375q0 -1.15625 0.546875 -2.078125q0.546875 -0.9375 1.515625 -1.484375q0.96875 -0.546875 2.203125 -0.546875q1.265625 0 2.21875 0.546875q0.953125 0.546875 1.46875 1.484375q0.53125 0.921875 0.53125 2.078125q0 1.15625 -0.53125 2.109375q-0.515625 0.9375 -1.484375 1.484375q-0.953125 0.53125 -2.21875 0.53125q-1.234375 0 -2.203125 -0.515625q-0.953125 -0.515625 -1.5 -1.4375q-0.546875 -0.921875 -0.546875 -2.171875zm1.734375 0.015625q0 0.75 0.328125 1.359375q0.34375 0.609375 0.90625 0.96875q0.578125 0.34375 1.265625 0.34375q0.71875 0 1.28125 -0.34375q0.578125 -0.359375 0.890625 -0.96875q0.328125 -0.609375 0.328125 -1.359375q0 -0.75 -0.328125 -1.34375q-0.3125 -0.609375 -0.890625 -0.96875q-0.5625 -0.375 -1.28125 -0.375q-0.71875 0 -1.28125 0.375q-0.5625 0.375 -0.890625 0.984375q-0.328125 0.609375 -0.328125 1.328125zm11.987503 4.140625l-4.28125 -7.9375l2.046875 0l2.90625 6.140625l-1.0625 -0.046875l2.671875 -6.09375l1.9375 0l-4.125 7.9375l-0.09375 0zm9.482666 -0.03125q-1.3281403 0 -2.2812653 -0.53125q-0.953125 -0.53125 -1.46875 -1.453125q-0.5 -0.921875 -0.5 -2.125q0 -1.140625 0.578125 -2.0625q0.578125 -0.9375 1.546875 -1.5q0.96875 -0.5625 2.1562653 -0.5625q1.53125 0 2.53125 0.90625q1.015625 0.890625 1.375 2.453125l-6.3593903 2.25l-0.421875 -1.03125l5.2343903 -1.90625l-0.375 0.25q-0.21875 -0.625 -0.75 -1.078125q-0.515625 -0.453125 -1.359375 -0.453125q-0.703125 0 -1.2656403 0.34375q-0.5625 0.34375 -0.890625 0.9375q-0.3125 0.59375 -0.3125 1.359375q0 0.8125 0.328125 1.421875q0.34375 0.59375 0.9375 0.9375q0.59376526 0.34375 1.3281403 0.34375q0.515625 0 0.984375 -0.171875q0.46875 -0.1875 0.890625 -0.5l0.796875 1.296875q-0.578125 0.390625 -1.296875 0.640625q-0.71875 0.234375 -1.40625 0.234375zm7.669983 -7.90625l0.171875 2.234375l-0.09375 -0.296875q0.296875 -0.71875 0.859375 -1.203125q0.578125 -0.5 1.203125 -0.765625q0.625 -0.265625 1.078125 -0.265625l-0.09375 1.703125q-0.875 -0.046875 -1.53125 0.34375q-0.65625 0.390625 -1.046875 1.046875q-0.375 0.65625 -0.375 1.390625l0 3.53125l-1.71875 0l0 -7.71875l1.546875 0zm6.1241455 11.4375l5.078125 -11.4375l1.609375 0l-4.984375 11.4375l-1.703125 0zm1.890625 -3.65625l-3.703125 -7.78125l1.953125 0l3.109375 6.890625l-1.359375 0.890625z" fill-rule="nonzero"/>
    
    <path fill="#eeeeee" d="m490.3551 242.27563l0 -13.484375l3.671875 0q2.0 0 3.40625 0.625q1.40625 0.609375 2.265625 1.609375q0.859375 1.0 1.265625 2.234375q0.40625 1.21875 0.40625 2.4375q0 1.515625 -0.53125 2.734375q-0.53125 1.21875 -1.46875 2.078125q-0.9375 0.84375 -2.140625 1.3125q-1.203125 0.453125 -2.546875 0.453125l-4.328125 0zm1.8125 -1.734375l2.15625 0q1.125 0 2.0625 -0.328125q0.953125 -0.34375 1.640625 -0.96875q0.703125 -0.640625 1.09375 -1.5625q0.390625 -0.921875 0.390625 -2.109375q0 -1.25 -0.40625 -2.1875q-0.40625 -0.9375 -1.125 -1.5625q-0.703125 -0.640625 -1.59375 -0.96875q-0.890625 -0.328125 -1.890625 -0.328125l-2.328125 0l0 10.015625zm15.391907 1.921875q-1.328125 0 -2.28125 -0.53125q-0.953125 -0.53125 -1.46875 -1.453125q-0.5 -0.921875 -0.5 -2.125q0 -1.140625 0.578125 -2.0625q0.578125 -0.9375 1.546875 -1.5q0.96875 -0.5625 2.15625 -0.5625q1.53125 0 2.53125 0.90625q1.015625 0.890625 1.375 2.453125l-6.359375 2.25l-0.421875 -1.03125l5.234375 -1.90625l-0.375 0.25q-0.21875 -0.625 -0.75 -1.078125q-0.515625 -0.453125 -1.359375 -0.453125q-0.703125 0 -1.265625 0.34375q-0.5625 0.34375 -0.890625 0.9375q-0.3125 0.59375 -0.3125 1.359375q0 0.8125 0.328125 1.421875q0.34375 0.59375 0.9375 0.9375q0.59375 0.34375 1.328125 0.34375q0.515625 0 0.984375 -0.171875q0.46875 -0.1875 0.890625 -0.5l0.796875 1.296875q-0.578125 0.390625 -1.296875 0.640625q-0.71875 0.234375 -1.40625 0.234375zm8.986755 0.03125l-4.28125 -7.9375l2.046875 0l2.90625 6.140625l-1.0625 -0.046875l2.671875 -6.09375l1.9375 0l-4.125 7.9375l-0.09375 0zm9.482666 -0.03125q-1.328125 0 -2.28125 -0.53125q-0.953125 -0.53125 -1.46875 -1.453125q-0.5 -0.921875 -0.5 -2.125q0 -1.140625 0.578125 -2.0625q0.578125 -0.9375 1.546875 -1.5q0.96875 -0.5625 2.15625 -0.5625q1.53125 0 2.53125 0.90625q1.015625 0.890625 1.375 2.453125l-6.359375 2.25l-0.421875 -1.03125l5.234375 -1.90625l-0.375 0.25q-0.21875 -0.625 -0.75 -1.078125q-0.515625 -0.453125 -1.359375 -0.453125q-0.703125 0 -1.265625 0.34375q-0.5625 0.34375 -0.890625 0.9375q-0.3125 0.59375 -0.3125 1.359375q0 0.8125 0.328125 1.421875q0.34375 0.59375 0.9375 0.9375q0.59375 0.34375 1.328125 0.34375q0.515625 0 0.984375 -0.171875q0.46875 -0.1875 0.890625 -0.5l0.796875 1.296875q-0.578125 0.390625 -1.296875 0.640625q-0.71875 0.234375 -1.40625 0.234375zm6.123108 -14.625l1.734375 0l0 14.4375l-1.734375 0l0 -14.4375zm4.0668335 10.5q0 -1.15625 0.546875 -2.078125q0.546875 -0.9375 1.515625 -1.484375q0.96875 -0.546875 2.203125 -0.546875q1.265625 0 2.21875 0.546875q0.953125 0.546875 1.46875 1.484375q0.53125 0.921875 0.53125 2.078125q0 1.15625 -0.53125 2.109375q-0.515625 0.9375 -1.484375 1.484375q-0.953125 0.53125 -2.21875 0.53125q-1.234375 0 -2.203125 -0.515625q-0.953125 -0.515625 -1.5 -1.4375q-0.546875 -0.921875 -0.546875 -2.171875zm1.734375 0.015625q0 0.75 0.328125 1.359375q0.34375 0.609375 0.90625 0.96875q0.578125 0.34375 1.265625 0.34375q0.71875 0 1.28125 -0.34375q0.578125 -0.359375 0.890625 -0.96875q0.328125 -0.609375 0.328125 -1.359375q0 -0.75 -0.328125 -1.34375q-0.3125 -0.609375 -0.890625 -0.96875q-0.5625 -0.375 -1.28125 -0.375q-0.71875 0 -1.28125 0.375q-0.5625 0.375 -0.890625 0.984375q-0.328125 0.609375 -0.328125 1.328125zm13.652039 4.109375q-0.875 0 -1.6875 -0.40625q-0.8125 -0.421875 -1.265625 -1.109375l0.125 -0.53125l0 5.578125l-1.71875 0l0 -11.546875l1.484375 0l0.25 1.96875l-0.1875 -0.546875q0.5625 -0.703125 1.40625 -1.171875q0.859375 -0.46875 1.9375 -0.46875q1.078125 0 1.9375 0.53125q0.875 0.515625 1.375 1.453125q0.5 0.9375 0.5 2.1875q0 1.25 -0.546875 2.171875q-0.53125 0.90625 -1.484375 1.40625q-0.9375 0.484375 -2.125 0.484375zm-0.328125 -1.375q0.734375 0 1.359375 -0.34375q0.625 -0.359375 1.0 -0.953125q0.375 -0.609375 0.375 -1.375q0 -0.78125 -0.359375 -1.390625q-0.34375 -0.609375 -0.9375 -0.953125q-0.59375 -0.359375 -1.3125 -0.359375q-0.671875 0 -1.21875 0.265625q-0.53125 0.25 -0.890625 0.71875q-0.359375 0.453125 -0.5 1.046875l0 1.28125q0.09375 0.59375 0.4375 1.0625q0.359375 0.46875 0.890625 0.734375q0.53125 0.265625 1.15625 0.265625zm8.391296 -6.53125l0.140625 1.734375l-0.0625 -0.15625q0.421875 -0.875 1.21875 -1.375q0.796875 -0.5 1.8125 -0.5q0.65625 0 1.15625 0.203125q0.5 0.203125 0.828125 0.59375q0.328125 0.375 0.421875 0.9375l-0.09375 0.046875q0.453125 -0.84375 1.234375 -1.3125q0.796875 -0.46875 1.6875 -0.46875q1.125 0 1.78125 0.640625q0.671875 0.640625 0.6875 1.671875l0 5.703125l-1.734375 0l0 -5.09375q-0.015625 -0.59375 -0.296875 -1.0q-0.265625 -0.40625 -0.9375 -0.4375q-0.65625 0 -1.203125 0.421875q-0.53125 0.40625 -0.828125 1.046875q-0.296875 0.640625 -0.3125 1.390625l0 3.671875l-1.734375 0l0 -5.09375q-0.015625 -0.59375 -0.3125 -1.0q-0.28125 -0.40625 -0.953125 -0.4375q-0.6875 0 -1.21875 0.421875q-0.515625 0.40625 -0.8125 1.0625q-0.28125 0.640625 -0.28125 1.390625l0 3.65625l-1.734375 0l0 -7.71875l1.546875 0zm17.422668 7.90625q-1.328125 0 -2.28125 -0.53125q-0.953125 -0.53125 -1.46875 -1.453125q-0.5 -0.921875 -0.5 -2.125q0 -1.140625 0.578125 -2.0625q0.578125 -0.9375 1.546875 -1.5q0.96875 -0.5625 2.15625 -0.5625q1.53125 0 2.53125 0.90625q1.015625 0.890625 1.375 2.453125l-6.359375 2.25l-0.421875 -1.03125l5.234375 -1.90625l-0.375 0.25q-0.21875 -0.625 -0.75 -1.078125q-0.515625 -0.453125 -1.359375 -0.453125q-0.703125 0 -1.265625 0.34375q-0.5625 0.34375 -0.890625 0.9375q-0.3125 0.59375 -0.3125 1.359375q0 0.8125 0.328125 1.421875q0.34375 0.59375 0.9375 0.9375q0.59375 0.34375 1.328125 0.34375q0.515625 0 0.984375 -0.171875q0.46875 -0.1875 0.890625 -0.5l0.796875 1.296875q-0.578125 0.390625 -1.296875 0.640625q-0.71875 0.234375 -1.40625 0.234375zm7.669983 -7.90625l0.140625 1.875l-0.0625 -0.296875q0.359375 -0.859375 1.203125 -1.359375q0.84375 -0.515625 1.9375 -0.515625q1.109375 0 1.796875 0.640625q0.703125 0.640625 0.734375 1.671875l0 5.703125l-1.765625 0l0 -5.09375q-0.015625 -0.640625 -0.359375 -1.03125q-0.34375 -0.40625 -1.078125 -0.40625q-0.671875 0 -1.21875 0.375q-0.53125 0.375 -0.84375 1.03125q-0.296875 0.640625 -0.296875 1.5l0 3.625l-1.734375 0l0 -7.71875l1.546875 0zm9.504395 -3.40625l1.75 0l0 3.4375l2.125 0l0 1.359375l-2.125 0l0 6.328125l-1.75 0l0 -6.328125l-1.40625 0l0 -1.359375l1.40625 0l0 -3.4375z" fill-rule="nonzero"/>
    
    <path fill="#eeeeee" d="m363.96497 242.27563l0 -13.484375l3.671875 0q2.0 0 3.40625 0.625q1.40625 0.609375 2.265625 1.609375q0.859375 1.0 1.265625 2.234375q0.40625 1.21875 0.40625 2.4375q0 1.515625 -0.53125 2.734375q-0.53125 1.21875 -1.46875 2.078125q-0.9375 0.84375 -2.140625 1.3125q-1.203125 0.453125 -2.546875 0.453125l-4.328125 0zm1.8125 -1.734375l2.15625 0q1.125 0 2.0625 -0.328125q0.953125 -0.34375 1.640625 -0.96875q0.703125 -0.640625 1.09375 -1.5625q0.390625 -0.921875 0.390625 -2.109375q0 -1.25 -0.40625 -2.1875q-0.40625 -0.9375 -1.125 -1.5625q-0.703125 -0.640625 -1.59375 -0.96875q-0.890625 -0.328125 -1.890625 -0.328125l-2.328125 0l0 10.015625zm15.391907 1.921875q-1.328125 0 -2.28125 -0.53125q-0.953125 -0.53125 -1.46875 -1.453125q-0.5 -0.921875 -0.5 -2.125q0 -1.140625 0.578125 -2.0625q0.578125 -0.9375 1.546875 -1.5q0.96875 -0.5625 2.15625 -0.5625q1.53125 0 2.53125 0.90625q1.015625 0.890625 1.375 2.453125l-6.359375 2.25l-0.421875 -1.03125l5.234375 -1.90625l-0.375 0.25q-0.21875 -0.625 -0.75 -1.078125q-0.515625 -0.453125 -1.359375 -0.453125q-0.703125 0 -1.265625 0.34375q-0.5625 0.34375 -0.890625 0.9375q-0.3125 0.59375 -0.3125 1.359375q0 0.8125 0.328125 1.421875q0.34375 0.59375 0.9375 0.9375q0.59375 0.34375 1.328125 0.34375q0.515625 0 0.984375 -0.171875q0.46875 -0.1875 0.890625 -0.5l0.796875 1.296875q-0.578125 0.390625 -1.296875 0.640625q-0.71875 0.234375 -1.40625 0.234375zm8.279358 -0.03125q-0.8125 0 -1.59375 -0.28125q-0.765625 -0.296875 -1.28125 -0.875l0.734375 -1.015625q0.484375 0.46875 1.0 0.703125q0.515625 0.234375 1.015625 0.234375q0.375 0 0.6875 -0.09375q0.3125 -0.09375 0.5 -0.3125q0.203125 -0.21875 0.203125 -0.59375q0 -0.40625 -0.265625 -0.640625q-0.265625 -0.25 -0.6875 -0.390625q-0.421875 -0.15625 -0.890625 -0.28125q-0.953125 -0.328125 -1.453125 -0.875q-0.5 -0.5625 -0.5 -1.375q0 -0.609375 0.296875 -1.140625q0.3125 -0.53125 0.921875 -0.859375q0.609375 -0.34375 1.5 -0.34375q0.8125 0 1.4375 0.203125q0.640625 0.1875 1.203125 0.640625l-0.703125 1.078125q-0.328125 -0.359375 -0.796875 -0.515625q-0.46875 -0.171875 -0.84375 -0.1875q-0.3125 -0.03125 -0.609375 0.09375q-0.28125 0.109375 -0.46875 0.3125q-0.1875 0.203125 -0.1875 0.484375q0 0.390625 0.265625 0.640625q0.265625 0.234375 0.671875 0.375q0.421875 0.140625 0.84375 0.28125q0.578125 0.171875 1.015625 0.453125q0.453125 0.28125 0.71875 0.703125q0.265625 0.40625 0.265625 1.015625q0 0.6875 -0.328125 1.28125q-0.3125 0.578125 -0.984375 0.9375q-0.65625 0.34375 -1.6875 0.34375zm5.436859 -7.875l1.734375 0l0 7.71875l-1.734375 0l0 -7.71875zm-0.140625 -2.8125q0 -0.40625 0.328125 -0.6875q0.328125 -0.28125 0.71875 -0.28125q0.390625 0 0.6875 0.28125q0.3125 0.28125 0.3125 0.6875q0 0.4375 -0.3125 0.703125q-0.296875 0.265625 -0.6875 0.265625q-0.390625 0 -0.71875 -0.28125q-0.328125 -0.28125 -0.328125 -0.6875zm8.582428 14.359375q-0.859375 0 -1.515625 -0.203125q-0.640625 -0.1875 -1.171875 -0.546875q-0.53125 -0.359375 -1.015625 -0.796875l1.0 -1.1875q0.625 0.578125 1.25 0.890625q0.640625 0.328125 1.421875 0.328125q0.875 0 1.484375 -0.296875q0.609375 -0.28125 0.921875 -0.796875q0.3125 -0.515625 0.3125 -1.1875l0.015625 -2.078125l0.15625 0.328125q-0.328125 0.796875 -1.21875 1.359375q-0.875 0.546875 -2.125 0.546875q-1.0625 0 -1.953125 -0.53125q-0.875 -0.546875 -1.40625 -1.46875q-0.53125 -0.9375 -0.53125 -2.09375q0 -1.203125 0.546875 -2.125q0.5625 -0.921875 1.46875 -1.46875q0.921875 -0.546875 2.015625 -0.546875q1.015625 0 1.859375 0.421875q0.859375 0.421875 1.25 1.078125l-0.09375 0.3125l0.1875 -1.484375l1.578125 0l0 7.78125q0 1.03125 -0.546875 1.890625q-0.53125 0.859375 -1.515625 1.359375q-0.984375 0.515625 -2.375 0.515625zm-2.640625 -7.765625q0 0.75 0.34375 1.375q0.359375 0.609375 0.96875 0.96875q0.609375 0.34375 1.359375 0.34375q0.6875 0 1.234375 -0.25q0.546875 -0.25 0.921875 -0.6875q0.375 -0.4375 0.515625 -1.015625l0 -1.53125q-0.15625 -0.5625 -0.546875 -0.984375q-0.390625 -0.421875 -0.9375 -0.65625q-0.546875 -0.234375 -1.1875 -0.234375q-0.75 0 -1.359375 0.34375q-0.609375 0.328125 -0.96875 0.9375q-0.34375 0.609375 -0.34375 1.390625zm11.640808 -3.78125l0.140625 1.875l-0.0625 -0.296875q0.359375 -0.859375 1.203125 -1.359375q0.84375 -0.515625 1.9375 -0.515625q1.109375 0 1.796875 0.640625q0.703125 0.640625 0.734375 1.671875l0 5.703125l-1.765625 0l0 -5.09375q-0.015625 -0.640625 -0.359375 -1.03125q-0.34375 -0.40625 -1.078125 -0.40625q-0.671875 0 -1.21875 0.375q-0.53125 0.375 -0.84375 1.03125q-0.296875 0.640625 -0.296875 1.5l0 3.625l-1.734375 0l0 -7.71875l1.546875 0z" fill-rule="nonzero"/>
    
    <path fill="#eeeeee" d="m667.3314 228.79126l1.8125 0l0 11.75l6.84375 0l0 1.734375l-8.65625 0l0 -13.484375zm14.385437 13.671875q-1.078125 0 -1.96875 -0.46875q-0.890625 -0.46875 -1.40625 -1.375q-0.5 -0.90625 -0.5 -2.203125q0 -1.296875 0.53125 -2.234375q0.546875 -0.9375 1.453125 -1.4375q0.90625 -0.515625 1.984375 -0.515625q1.078125 0 1.828125 0.5q0.75 0.5 1.140625 1.171875l-0.109375 0.296875l0.15625 -1.640625l1.609375 0l0 7.71875l-1.734375 0l0 -2.015625l0.1875 0.453125q-0.078125 0.1875 -0.328125 0.484375q-0.25 0.28125 -0.671875 0.578125q-0.421875 0.296875 -0.96875 0.5q-0.53125 0.1875 -1.203125 0.1875zm0.46875 -1.4375q0.65625 0 1.171875 -0.234375q0.53125 -0.25 0.875 -0.6875q0.34375 -0.4375 0.46875 -1.0625l0 -1.5q-0.140625 -0.5625 -0.515625 -0.984375q-0.375 -0.421875 -0.90625 -0.65625q-0.515625 -0.234375 -1.15625 -0.234375q-0.6875 0 -1.265625 0.34375q-0.578125 0.328125 -0.921875 0.9375q-0.34375 0.59375 -0.34375 1.390625q0 0.75 0.34375 1.375q0.359375 0.609375 0.953125 0.96875q0.609375 0.34375 1.296875 0.34375zm9.698181 1.546875q-1.046875 0 -1.734375 -0.640625q-0.671875 -0.640625 -0.703125 -1.671875l0 -5.703125l1.734375 0l0 5.09375q0.03125 0.625 0.359375 1.015625q0.328125 0.390625 1.03125 0.421875q0.65625 0 1.171875 -0.375q0.515625 -0.390625 0.828125 -1.046875q0.3125 -0.671875 0.3125 -1.515625l0 -3.59375l1.734375 0l0 7.71875l-1.578125 0l-0.15625 -1.90625l0.09375 0.34375q-0.21875 0.53125 -0.6875 0.953125q-0.453125 0.421875 -1.0625 0.65625q-0.609375 0.25 -1.34375 0.25zm9.295715 -8.015625l0.140625 1.875l-0.0625 -0.296875q0.359375 -0.859375 1.203125 -1.359375q0.84375 -0.515625 1.9375 -0.515625q1.109375 0 1.796875 0.640625q0.703125 0.640625 0.734375 1.671875l0 5.703125l-1.765625 0l0 -5.09375q-0.015625 -0.640625 -0.359375 -1.03125q-0.34375 -0.40625 -1.078125 -0.40625q-0.671875 0 -1.21875 0.375q-0.53125 0.375 -0.84375 1.03125q-0.296875 0.640625 -0.296875 1.5l0 3.625l-1.734375 0l0 -7.71875l1.546875 0zm15.035645 7.015625q-0.53125 0.40625 -1.265625 0.65625q-0.71875 0.234375 -1.4375 0.234375q-1.265625 0 -2.21875 -0.5q-0.953125 -0.515625 -1.484375 -1.40625q-0.53125 -0.90625 -0.53125 -2.140625q0 -1.234375 0.5625 -2.140625q0.578125 -0.921875 1.5 -1.40625q0.921875 -0.5 1.984375 -0.5q0.9375 0 1.671875 0.265625q0.734375 0.25 1.25 0.703125l-0.859375 1.109375q-0.328125 -0.25 -0.8125 -0.453125q-0.484375 -0.21875 -1.109375 -0.21875q-0.671875 0 -1.234375 0.359375q-0.5625 0.34375 -0.890625 0.9375q-0.328125 0.59375 -0.328125 1.34375q0 0.703125 0.328125 1.3125q0.34375 0.609375 0.9375 0.953125q0.59375 0.34375 1.359375 0.34375q0.5 0 0.921875 -0.140625q0.421875 -0.15625 0.765625 -0.421875l0.890625 1.109375zm2.2416382 0.703125l0 -14.4375l1.6875 0l0 8.5l-0.03125 -0.3125q0.390625 -0.765625 1.203125 -1.265625q0.8125 -0.5 1.90625 -0.5q1.109375 0 1.796875 0.640625q0.703125 0.640625 0.734375 1.671875l0 5.703125l-1.765625 0l0 -5.09375q-0.015625 -0.640625 -0.359375 -1.03125q-0.34375 -0.40625 -1.078125 -0.40625q-0.671875 0 -1.21875 0.390625q-0.53125 0.375 -0.84375 1.03125q-0.296875 0.65625 -0.296875 1.484375l0 3.625l-1.734375 0z" fill-rule="nonzero"/>
    
    <path fill="#eeeeee" d="m830.3997 228.79126l8.0 0l0 1.734375l-6.1875 0l0 4.3125l5.421875 0l0 1.703125l-5.421875 0l0 5.734375l-1.8125 0l0 -13.484375zm10.230713 5.765625l1.734375 0l0 7.71875l-1.734375 0l0 -7.71875zm-0.140625 -2.8125q0 -0.40625 0.328125 -0.6875q0.328125 -0.28125 0.71875 -0.28125q0.390625 0 0.6875 0.28125q0.3125 0.28125 0.3125 0.6875q0 0.4375 -0.3125 0.703125q-0.296875 0.265625 -0.6875 0.265625q-0.390625 0 -0.71875 -0.28125q-0.328125 -0.28125 -0.328125 -0.6875zm7.7855225 5.6875l1.84375 -2.875l1.75 0l-2.953125 4.140625l-0.640625 -1.265625zm3.90625 4.84375l-2.09375 0l-5.875 -7.71875l2.140625 0l5.828125 7.71875zm-4.09375 -2.875l-2.03125 2.875l-1.75 0l2.9375 -4.03125l0.84375 1.15625zm9.422546 3.0625q-1.328125 0 -2.28125 -0.53125q-0.953125 -0.53125 -1.46875 -1.453125q-0.5 -0.921875 -0.5 -2.125q0 -1.140625 0.578125 -2.0625q0.578125 -0.9375 1.546875 -1.5q0.96875 -0.5625 2.15625 -0.5625q1.53125 0 2.53125 0.90625q1.015625 0.890625 1.375 2.453125l-6.359375 2.25l-0.421875 -1.03125l5.234375 -1.90625l-0.375 0.25q-0.21875 -0.625 -0.75 -1.078125q-0.515625 -0.453125 -1.359375 -0.453125q-0.703125 0 -1.265625 0.34375q-0.5625 0.34375 -0.890625 0.9375q-0.3125 0.59375 -0.3125 1.359375q0 0.8125 0.328125 1.421875q0.34375 0.59375 0.9375 0.9375q0.59375 0.34375 1.328125 0.34375q0.515625 0 0.984375 -0.171875q0.46875 -0.1875 0.890625 -0.5l0.796875 1.296875q-0.578125 0.390625 -1.296875 0.640625q-0.71875 0.234375 -1.40625 0.234375zm8.279358 -0.03125q-0.8125 0 -1.59375 -0.28125q-0.765625 -0.296875 -1.28125 -0.875l0.734375 -1.015625q0.484375 0.46875 1.0 0.703125q0.515625 0.234375 1.015625 0.234375q0.375 0 0.6875 -0.09375q0.3125 -0.09375 0.5 -0.3125q0.203125 -0.21875 0.203125 -0.59375q0 -0.40625 -0.265625 -0.640625q-0.265625 -0.25 -0.6875 -0.390625q-0.421875 -0.15625 -0.890625 -0.28125q-0.953125 -0.328125 -1.453125 -0.875q-0.5 -0.5625 -0.5 -1.375q0 -0.609375 0.296875 -1.140625q0.3125 -0.53125 0.921875 -0.859375q0.609375 -0.34375 1.5 -0.34375q0.8125 0 1.4375 0.203125q0.640625 0.1875 1.203125 0.640625l-0.703125 1.078125q-0.328125 -0.359375 -0.796875 -0.515625q-0.46875 -0.171875 -0.84375 -0.1875q-0.3125 -0.03125 -0.609375 0.09375q-0.28125 0.109375 -0.46875 0.3125q-0.1875 0.203125 -0.1875 0.484375q0 0.390625 0.265625 0.640625q0.265625 0.234375 0.671875 0.375q0.421875 0.140625 0.84375 0.28125q0.578125 0.171875 1.015625 0.453125q0.453125 0.28125 0.71875 0.703125q0.265625 0.40625 0.265625 1.015625q0 0.6875 -0.328125 1.28125q-0.3125 0.578125 -0.984375 0.9375q-0.65625 0.34375 -1.6875 0.34375z" fill-rule="nonzero"/><path fill="#eeeeee" d="m34.21522 260.82678l881.3229 0l0 36.6929l-881.3229 0z" fill-rule="evenodd"/>
    <path fill="#aa00cc" d="m34.21522 260.82678l540.3465 0l0 36.6929l-540.3465 0z" fill-rule="evenodd" class="stage2"/>
    <path fill="#eeeeee" fill-opacity="0.0" d="m34.21522 260.82678l881.3229 0l0 36.6929l-881.3229 0z" fill-rule="evenodd"/><path stroke="#595959" stroke-width="2.0" stroke-linejoin="round" stroke-linecap="butt" d="m34.21522 260.82678l881.3229 0l0 36.6929l-881.3229 0z" fill-rule="evenodd"/>
    
    <path fill="#eeeeee" d="m157.90933 330.14368l2.09375 0l3.65625 10.296875l-0.328125 -0.140625l2.671875 -6.90625l0.84375 2.453125l-3.5625 8.3125l-5.375 -14.015625zm6.46875 0l1.8125 0l3.953125 10.140625l-0.375 -0.078125l3.5 -10.0625l1.921875 0l-5.296875 14.0l-5.515625 -14.0zm13.086761 13.40625l0 -14.4375l1.6875 0l0 8.5l-0.03125 -0.3125q0.390625 -0.765625 1.203125 -1.265625q0.8125 -0.5 1.90625 -0.5q1.109375 0 1.796875 0.640625q0.703125 0.640625 0.734375 1.671875l0 5.703125l-1.765625 0l0 -5.09375q-0.015625 -0.640625 -0.359375 -1.03125q-0.34375 -0.40625 -1.078125 -0.40625q-0.671875 0 -1.21875 0.390625q-0.53125 0.375 -0.84375 1.03125q-0.296875 0.65625 -0.296875 1.484375l0 3.625l-1.734375 0zm13.895035 0.1875q-1.328125 0 -2.28125 -0.53125q-0.953125 -0.53125 -1.46875 -1.453125q-0.5 -0.921875 -0.5 -2.125q0 -1.140625 0.578125 -2.0625q0.578125 -0.9375 1.546875 -1.5q0.96875 -0.5625 2.15625 -0.5625q1.53125 0 2.53125 0.90625q1.015625 0.890625 1.375 2.453125l-6.359375 2.25l-0.421875 -1.03125l5.234375 -1.90625l-0.375 0.25q-0.21875 -0.625 -0.75 -1.078125q-0.515625 -0.453125 -1.359375 -0.453125q-0.703125 0 -1.265625 0.34375q-0.5625 0.34375 -0.890625 0.9375q-0.3125 0.59375 -0.3125 1.359375q0 0.8125 0.328125 1.421875q0.34375 0.59375 0.9375 0.9375q0.59375 0.34375 1.328125 0.34375q0.515625 0 0.984375 -0.171875q0.46875 -0.1875 0.890625 -0.5l0.796875 1.296875q-0.578125 0.390625 -1.296875 0.640625q-0.71875 0.234375 -1.40625 0.234375zm7.669998 -7.90625l0.171875 2.234375l-0.09375 -0.296875q0.296875 -0.71875 0.859375 -1.203125q0.578125 -0.5 1.203125 -0.765625q0.625 -0.265625 1.078125 -0.265625l-0.09375 1.703125q-0.875 -0.046875 -1.53125 0.34375q-0.65625 0.390625 -1.046875 1.046875q-0.375 0.65625 -0.375 1.390625l0 3.53125l-1.71875 0l0 -7.71875l1.546875 0zm8.710007 7.90625q-1.328125 0 -2.28125 -0.53125q-0.953125 -0.53125 -1.46875 -1.453125q-0.5 -0.921875 -0.5 -2.125q0 -1.140625 0.578125 -2.0625q0.578125 -0.9375 1.546875 -1.5q0.96875 -0.5625 2.15625 -0.5625q1.53125 0 2.53125 0.90625q1.015625 0.890625 1.375 2.453125l-6.359375 2.25l-0.421875 -1.03125l5.234375 -1.90625l-0.375 0.25q-0.21875 -0.625 -0.75 -1.078125q-0.515625 -0.453125 -1.359375 -0.453125q-0.703125 0 -1.265625 0.34375q-0.5625 0.34375 -0.890625 0.9375q-0.3125 0.59375 -0.3125 1.359375q0 0.8125 0.328125 1.421875q0.34375 0.59375 0.9375 0.9375q0.59375 0.34375 1.328125 0.34375q0.515625 0 0.984375 -0.171875q0.46875 -0.1875 0.890625 -0.5l0.796875 1.296875q-0.578125 0.390625 -1.296875 0.640625q-0.71875 0.234375 -1.40625 0.234375zm16.565369 0q-0.875 0 -1.6875 -0.40625q-0.8125 -0.421875 -1.265625 -1.109375l0.125 -0.53125l0 5.578125l-1.71875 0l0 -11.546875l1.484375 0l0.25 1.96875l-0.1875 -0.546875q0.5625 -0.703125 1.40625 -1.171875q0.859375 -0.46875 1.9375 -0.46875q1.078125 0 1.9375 0.53125q0.875 0.515625 1.375 1.453125q0.5 0.9375 0.5 2.1875q0 1.25 -0.546875 2.171875q-0.53125 0.90625 -1.484375 1.40625q-0.9375 0.484375 -2.125 0.484375zm-0.328125 -1.375q0.734375 0 1.359375 -0.34375q0.625 -0.359375 1.0 -0.953125q0.375 -0.609375 0.375 -1.375q0 -0.78125 -0.359375 -1.390625q-0.34375 -0.609375 -0.9375 -0.953125q-0.59375 -0.359375 -1.3125 -0.359375q-0.671875 0 -1.21875 0.265625q-0.53125 0.25 -0.890625 0.71875q-0.359375 0.453125 -0.5 1.046875l0 1.28125q0.09375 0.59375 0.4375 1.0625q0.359375 0.46875 0.890625 0.734375q0.53125 0.265625 1.15625 0.265625zm10.422531 1.375q-1.328125 0 -2.28125 -0.53125q-0.953125 -0.53125 -1.46875 -1.453125q-0.5 -0.921875 -0.5 -2.125q0 -1.140625 0.578125 -2.0625q0.578125 -0.9375 1.546875 -1.5q0.96875 -0.5625 2.15625 -0.5625q1.53125 0 2.53125 0.90625q1.015625 0.890625 1.375 2.453125l-6.359375 2.25l-0.421875 -1.03125l5.234375 -1.90625l-0.375 0.25q-0.21875 -0.625 -0.75 -1.078125q-0.515625 -0.453125 -1.359375 -0.453125q-0.703125 0 -1.265625 0.34375q-0.5625 0.34375 -0.890625 0.9375q-0.3125 0.59375 -0.3125 1.359375q0 0.8125 0.328125 1.421875q0.34375 0.59375 0.9375 0.9375q0.59375 0.34375 1.328125 0.34375q0.515625 0 0.984375 -0.171875q0.46875 -0.1875 0.890625 -0.5l0.796875 1.296875q-0.578125 0.390625 -1.296875 0.640625q-0.71875 0.234375 -1.40625 0.234375zm7.669998 -7.90625l0.171875 2.234375l-0.09375 -0.296875q0.296875 -0.71875 0.859375 -1.203125q0.578125 -0.5 1.203125 -0.765625q0.625 -0.265625 1.078125 -0.265625l-0.09375 1.703125q-0.875 -0.046875 -1.53125 0.34375q-0.65625 0.390625 -1.046875 1.046875q-0.375 0.65625 -0.375 1.390625l0 3.53125l-1.71875 0l0 -7.71875l1.546875 0zm6.0928802 7.71875l0 -6.171875l-1.3125 0l0 -1.546875l1.3125 0l0 -3.265625q0 -1.6875 0.75 -2.578125q0.765625 -0.890625 2.234375 -0.890625q0.390625 0 0.859375 0.109375q0.484375 0.109375 0.84375 0.375l-0.734375 1.25q-0.15625 -0.171875 -0.375 -0.234375q-0.203125 -0.0625 -0.40625 -0.0625q-0.6875 0 -1.0625 0.46875q-0.375 0.453125 -0.375 1.578125l0 3.25l2.453125 0l0 1.546875l-2.453125 0l0 6.171875l-1.734375 0zm5.3631897 -3.9375q0 -1.15625 0.546875 -2.078125q0.546875 -0.9375 1.515625 -1.484375q0.96875 -0.546875 2.203125 -0.546875q1.265625 0 2.21875 0.546875q0.953125 0.546875 1.46875 1.484375q0.53125 0.921875 0.53125 2.078125q0 1.15625 -0.53125 2.109375q-0.515625 0.9375 -1.484375 1.484375q-0.953125 0.53125 -2.21875 0.53125q-1.234375 0 -2.203125 -0.515625q-0.953125 -0.515625 -1.5 -1.4375q-0.546875 -0.921875 -0.546875 -2.171875zm1.734375 0.015625q0 0.75 0.328125 1.359375q0.34375 0.609375 0.90625 0.96875q0.578125 0.34375 1.265625 0.34375q0.71875 0 1.28125 -0.34375q0.578125 -0.359375 0.890625 -0.96875q0.328125 -0.609375 0.328125 -1.359375q0 -0.75 -0.328125 -1.34375q-0.3125 -0.609375 -0.890625 -0.96875q-0.5625 -0.375 -1.28125 -0.375q-0.71875 0 -1.28125 0.375q-0.5625 0.375 -0.890625 0.984375q-0.328125 0.609375 -0.328125 1.328125zm10.652039 -3.796875l0.171875 2.234375l-0.09375 -0.296875q0.296875 -0.71875 0.859375 -1.203125q0.578125 -0.5 1.203125 -0.765625q0.625 -0.265625 1.078125 -0.265625l-0.09375 1.703125q-0.875 -0.046875 -1.53125 0.34375q-0.65625 0.390625 -1.046875 1.046875q-0.375 0.65625 -0.375 1.390625l0 3.53125l-1.71875 0l0 -7.71875l1.546875 0zm7.0147705 0l0.140625 1.734375l-0.0625 -0.15625q0.421875 -0.875 1.21875 -1.375q0.796875 -0.5 1.8125 -0.5q0.65625 0 1.15625 0.203125q0.5 0.203125 0.828125 0.59375q0.328125 0.375 0.421875 0.9375l-0.09375 0.046875q0.453125 -0.84375 1.234375 -1.3125q0.796875 -0.46875 1.6875 -0.46875q1.125 0 1.78125 0.640625q0.671875 0.640625 0.6875 1.671875l0 5.703125l-1.734375 0l0 -5.09375q-0.015625 -0.59375 -0.296875 -1.0q-0.265625 -0.40625 -0.9375 -0.4375q-0.65625 0 -1.203125 0.421875q-0.53125 0.40625 -0.828125 1.046875q-0.296875 0.640625 -0.3125 1.390625l0 3.671875l-1.734375 0l0 -5.09375q-0.015625 -0.59375 -0.3125 -1.0q-0.28125 -0.40625 -0.953125 -0.4375q-0.6875 0 -1.21875 0.421875q-0.515625 0.40625 -0.8125 1.0625q-0.28125 0.640625 -0.28125 1.390625l0 3.65625l-1.734375 0l0 -7.71875l1.546875 0zm17.047638 7.90625q-1.078125 0 -1.96875 -0.46875q-0.890625 -0.46875 -1.40625 -1.375q-0.5 -0.90625 -0.5 -2.203125q0 -1.296875 0.53125 -2.234375q0.546875 -0.9375 1.453125 -1.4375q0.90625 -0.515625 1.984375 -0.515625q1.078125 0 1.828125 0.5q0.75 0.5 1.140625 1.171875l-0.109375 0.296875l0.15625 -1.640625l1.609375 0l0 7.71875l-1.734375 0l0 -2.015625l0.1875 0.453125q-0.078125 0.1875 -0.328125 0.484375q-0.25 0.28125 -0.671875 0.578125q-0.421875 0.296875 -0.96875 0.5q-0.53125 0.1875 -1.203125 0.1875zm0.46875 -1.4375q0.65625 0 1.171875 -0.234375q0.53125 -0.25 0.875 -0.6875q0.34375 -0.4375 0.46875 -1.0625l0 -1.5q-0.140625 -0.5625 -0.515625 -0.984375q-0.375 -0.421875 -0.90625 -0.65625q-0.515625 -0.234375 -1.15625 -0.234375q-0.6875 0 -1.265625 0.34375q-0.578125 0.328125 -0.921875 0.9375q-0.34375 0.59375 -0.34375 1.390625q0 0.75 0.34375 1.375q0.359375 0.609375 0.953125 0.96875q0.609375 0.34375 1.296875 0.34375zm8.807587 -6.46875l0.140625 1.875l-0.0625 -0.296875q0.359375 -0.859375 1.203125 -1.359375q0.84375 -0.515625 1.9375 -0.515625q1.109375 0 1.796875 0.640625q0.703125 0.640625 0.734375 1.671875l0 5.703125l-1.765625 0l0 -5.09375q-0.015625 -0.640625 -0.359375 -1.03125q-0.34375 -0.40625 -1.078125 -0.40625q-0.671875 0 -1.21875 0.375q-0.53125 0.375 -0.84375 1.03125q-0.296875 0.640625 -0.296875 1.5l0 3.625l-1.734375 0l0 -7.71875l1.546875 0zm15.035645 7.015625q-0.53125 0.40625 -1.265625 0.65625q-0.71875 0.234375 -1.4375 0.234375q-1.265625 0 -2.21875 -0.5q-0.953125 -0.515625 -1.484375 -1.40625q-0.53125 -0.90625 -0.53125 -2.140625q0 -1.234375 0.5625 -2.140625q0.578125 -0.921875 1.5 -1.40625q0.921875 -0.5 1.984375 -0.5q0.9375 0 1.671875 0.265625q0.734375 0.25 1.25 0.703125l-0.859375 1.109375q-0.328125 -0.25 -0.8125 -0.453125q-0.484375 -0.21875 -1.109375 -0.21875q-0.671875 0 -1.234375 0.359375q-0.5625 0.34375 -0.890625 0.9375q-0.328125 0.59375 -0.328125 1.34375q0 0.703125 0.328125 1.3125q0.34375 0.609375 0.9375 0.953125q0.59375 0.34375 1.359375 0.34375q0.5 0 0.921875 -0.140625q0.421875 -0.15625 0.765625 -0.421875l0.890625 1.109375zm5.819763 0.890625q-1.328125 0 -2.28125 -0.53125q-0.953125 -0.53125 -1.46875 -1.453125q-0.5 -0.921875 -0.5 -2.125q0 -1.140625 0.578125 -2.0625q0.578125 -0.9375 1.546875 -1.5q0.96875 -0.5625 2.15625 -0.5625q1.53125 0 2.53125 0.90625q1.015625 0.890625 1.375 2.453125l-6.359375 2.25l-0.421875 -1.03125l5.234375 -1.90625l-0.375 0.25q-0.21875 -0.625 -0.75 -1.078125q-0.515625 -0.453125 -1.359375 -0.453125q-0.703125 0 -1.265625 0.34375q-0.5625 0.34375 -0.890625 0.9375q-0.3125 0.59375 -0.3125 1.359375q0 0.8125 0.328125 1.421875q0.34375 0.59375 0.9375 0.9375q0.59375 0.34375 1.328125 0.34375q0.515625 0 0.984375 -0.171875q0.46875 -0.1875 0.890625 -0.5l0.796875 1.296875q-0.578125 0.390625 -1.296875 0.640625q-0.71875 0.234375 -1.40625 0.234375zm13.565369 -7.90625l0.140625 1.875l-0.0625 -0.296875q0.359375 -0.859375 1.203125 -1.359375q0.84375 -0.515625 1.9375 -0.515625q1.109375 0 1.796875 0.640625q0.703125 0.640625 0.734375 1.671875l0 5.703125l-1.765625 0l0 -5.09375q-0.015625 -0.640625 -0.359375 -1.03125q-0.34375 -0.40625 -1.078125 -0.40625q-0.671875 0 -1.21875 0.375q-0.53125 0.375 -0.84375 1.03125q-0.296875 0.640625 -0.296875 1.5l0 3.625l-1.734375 0l0 -7.71875l1.546875 0zm12.348145 7.90625q-1.328125 0 -2.28125 -0.53125q-0.953125 -0.53125 -1.46875 -1.453125q-0.5 -0.921875 -0.5 -2.125q0 -1.140625 0.578125 -2.0625q0.578125 -0.9375 1.546875 -1.5q0.96875 -0.5625 2.15625 -0.5625q1.53125 0 2.53125 0.90625q1.015625 0.890625 1.375 2.453125l-6.359375 2.25l-0.421875 -1.03125l5.234375 -1.90625l-0.375 0.25q-0.21875 -0.625 -0.75 -1.078125q-0.515625 -0.453125 -1.359375 -0.453125q-0.703125 0 -1.265625 0.34375q-0.5625 0.34375 -0.890625 0.9375q-0.3125 0.59375 -0.3125 1.359375q0 0.8125 0.328125 1.421875q0.34375 0.59375 0.9375 0.9375q0.59375 0.34375 1.328125 0.34375q0.515625 0 0.984375 -0.171875q0.46875 -0.1875 0.890625 -0.5l0.796875 1.296875q-0.578125 0.390625 -1.296875 0.640625q-0.71875 0.234375 -1.40625 0.234375zm9.701263 0q-1.328125 0 -2.28125 -0.53125q-0.953125 -0.53125 -1.46875 -1.453125q-0.5 -0.921875 -0.5 -2.125q0 -1.140625 0.578125 -2.0625q0.578125 -0.9375 1.546875 -1.5q0.96875 -0.5625 2.15625 -0.5625q1.53125 0 2.53125 0.90625q1.0155945 0.890625 1.3749695 2.453125l-6.3593445 2.25l-0.421875 -1.03125l5.234375 -1.90625l-0.375 0.25q-0.21875 -0.625 -0.75 -1.078125q-0.515625 -0.453125 -1.359375 -0.453125q-0.703125 0 -1.265625 0.34375q-0.5625 0.34375 -0.890625 0.9375q-0.3125 0.59375 -0.3125 1.359375q0 0.8125 0.328125 1.421875q0.34375 0.59375 0.9375 0.9375q0.59375 0.34375 1.328125 0.34375q0.515625 0 0.984375 -0.171875q0.46875 -0.1875 0.890625 -0.5l0.796875 1.296875q-0.578125 0.390625 -1.296875 0.640625q-0.71875 0.234375 -1.40625 0.234375zm9.248108 0q-1.0625 0 -1.9375 -0.515625q-0.859375 -0.515625 -1.359375 -1.453125q-0.5 -0.9375 -0.5 -2.171875q0 -1.296875 0.53125 -2.203125q0.53125 -0.921875 1.4375 -1.40625q0.921875 -0.484375 2.0625 -0.484375q0.90625 0 1.734375 0.40625q0.828125 0.390625 1.296875 1.078125l-0.078125 0.609375l0 -8.484375l1.71875 0l0 14.4375l-1.734375 0l0 -1.921875l0.1875 0.484375q-0.53125 0.703125 -1.390625 1.171875q-0.859375 0.453125 -1.96875 0.453125zm0.546875 -1.46875q0.6875 0 1.21875 -0.25q0.546875 -0.265625 0.90625 -0.703125q0.359375 -0.453125 0.5 -1.0625l0 -1.453125q-0.140625 -0.5625 -0.53125 -0.984375q-0.375 -0.421875 -0.90625 -0.671875q-0.53125 -0.25 -1.1875 -0.25q-0.703125 0 -1.296875 0.34375q-0.59375 0.34375 -0.953125 0.9375q-0.34375 0.59375 -0.34375 1.375q0 0.765625 0.34375 1.375q0.359375 0.609375 0.953125 0.984375q0.609375 0.359375 1.296875 0.359375zm9.547516 1.4375q-0.8125 0 -1.59375 -0.28125q-0.765625 -0.296875 -1.28125 -0.875l0.734375 -1.015625q0.484375 0.46875 1.0 0.703125q0.515625 0.234375 1.015625 0.234375q0.375 0 0.6875 -0.09375q0.3125 -0.09375 0.5 -0.3125q0.203125 -0.21875 0.203125 -0.59375q0 -0.40625 -0.265625 -0.640625q-0.265625 -0.25 -0.6875 -0.390625q-0.421875 -0.15625 -0.890625 -0.28125q-0.953125 -0.328125 -1.453125 -0.875q-0.5 -0.5625 -0.5 -1.375q0 -0.609375 0.296875 -1.140625q0.3125 -0.53125 0.921875 -0.859375q0.609375 -0.34375 1.5 -0.34375q0.8125 0 1.4375 0.203125q0.640625 0.1875 1.203125 0.640625l-0.703125 1.078125q-0.328125 -0.359375 -0.796875 -0.515625q-0.46875 -0.171875 -0.84375 -0.1875q-0.3125 -0.03125 -0.609375 0.09375q-0.28125 0.109375 -0.46875 0.3125q-0.1875 0.203125 -0.1875 0.484375q0 0.390625 0.265625 0.640625q0.265625 0.234375 0.671875 0.375q0.421875 0.140625 0.84375 0.28125q0.578125 0.171875 1.015625 0.453125q0.453125 0.28125 0.71875 0.703125q0.265625 0.40625 0.265625 1.015625q0 0.6875 -0.328125 1.28125q-0.3125 0.578125 -0.984375 0.9375q-0.65625 0.34375 -1.6875 0.34375zm12.066589 -11.28125l1.75 0l0 3.4375l2.125 0l0 1.359375l-2.125 0l0 6.328125l-1.75 0l0 -6.328125l-1.40625 0l0 -1.359375l1.40625 0l0 -3.4375zm5.291382 7.1875q0 -1.15625 0.546875 -2.078125q0.546875 -0.9375 1.515625 -1.484375q0.96875 -0.546875 2.203125 -0.546875q1.265625 0 2.21875 0.546875q0.953125 0.546875 1.46875 1.484375q0.53125 0.921875 0.53125 2.078125q0 1.15625 -0.53125 2.109375q-0.515625 0.9375 -1.484375 1.484375q-0.953125 0.53125 -2.21875 0.53125q-1.234375 0 -2.203125 -0.515625q-0.953125 -0.515625 -1.5 -1.4375q-0.546875 -0.921875 -0.546875 -2.171875zm1.734375 0.015625q0 0.75 0.328125 1.359375q0.34375 0.609375 0.90625 0.96875q0.578125 0.34375 1.265625 0.34375q0.71875 0 1.28125 -0.34375q0.578125 -0.359375 0.890625 -0.96875q0.328125 -0.609375 0.328125 -1.359375q0 -0.75 -0.328125 -1.34375q-0.3125 -0.609375 -0.890625 -0.96875q-0.5625 -0.375 -1.28125 -0.375q-0.71875 0 -1.28125 0.375q-0.5625 0.375 -0.890625 0.984375q-0.328125 0.609375 -0.328125 1.328125zm15.000519 3.921875l0 -14.4375l1.6875 0l0 8.5l-0.03125 -0.3125q0.390625 -0.765625 1.203125 -1.265625q0.8125 -0.5 1.90625 -0.5q1.109375 0 1.796875 0.640625q0.703125 0.640625 0.734375 1.671875l0 5.703125l-1.765625 0l0 -5.09375q-0.015625 -0.640625 -0.359375 -1.03125q-0.34375 -0.40625 -1.078125 -0.40625q-0.671875 0 -1.21875 0.390625q-0.53125 0.375 -0.84375 1.03125q-0.296875 0.65625 -0.296875 1.484375l0 3.625l-1.734375 0zm13.52005 0.1875q-1.078125 0 -1.96875 -0.46875q-0.890625 -0.46875 -1.40625 -1.375q-0.5 -0.90625 -0.5 -2.203125q0 -1.296875 0.53125 -2.234375q0.546875 -0.9375 1.453125 -1.4375q0.90625 -0.515625 1.984375 -0.515625q1.078125 0 1.828125 0.5q0.75 0.5 1.140625 1.171875l-0.109375 0.296875l0.15625 -1.640625l1.609375 0l0 7.71875l-1.734375 0l0 -2.015625l0.1875 0.453125q-0.078125 0.1875 -0.328125 0.484375q-0.25 0.28125 -0.671875 0.578125q-0.421875 0.296875 -0.96875 0.5q-0.53125 0.1875 -1.203125 0.1875zm0.46875 -1.4375q0.65625 0 1.171875 -0.234375q0.53125 -0.25 0.875 -0.6875q0.34375 -0.4375 0.46875 -1.0625l0 -1.5q-0.140625 -0.5625 -0.515625 -0.984375q-0.375 -0.421875 -0.90625 -0.65625q-0.515625 -0.234375 -1.15625 -0.234375q-0.6875 0 -1.265625 0.34375q-0.578125 0.328125 -0.921875 0.9375q-0.34375 0.59375 -0.34375 1.390625q0 0.75 0.34375 1.375q0.359375 0.609375 0.953125 0.96875q0.609375 0.34375 1.296875 0.34375zm11.807556 1.4375q-0.875 0 -1.6875 -0.40625q-0.8125 -0.421875 -1.265625 -1.109375l0.125 -0.53125l0 5.578125l-1.71875 0l0 -11.546875l1.484375 0l0.25 1.96875l-0.1875 -0.546875q0.5625 -0.703125 1.40625 -1.171875q0.859375 -0.46875 1.9375 -0.46875q1.078125 0 1.9375 0.53125q0.875 0.515625 1.375 1.453125q0.5 0.9375 0.5 2.1875q0 1.25 -0.546875 2.171875q-0.53125 0.90625 -1.484375 1.40625q-0.9375 0.484375 -2.125 0.484375zm-0.328125 -1.375q0.734375 0 1.359375 -0.34375q0.625 -0.359375 1.0 -0.953125q0.375 -0.609375 0.375 -1.375q0 -0.78125 -0.359375 -1.390625q-0.34375 -0.609375 -0.9375 -0.953125q-0.59375 -0.359375 -1.3125 -0.359375q-0.671875 0 -1.21875 0.265625q-0.53125 0.25 -0.890625 0.71875q-0.359375 0.453125 -0.5 1.046875l0 1.28125q0.09375 0.59375 0.4375 1.0625q0.359375 0.46875 0.890625 0.734375q0.53125 0.265625 1.15625 0.265625zm11.391296 1.375q-0.875 0 -1.6875 -0.40625q-0.8125 -0.421875 -1.265625 -1.109375l0.125 -0.53125l0 5.578125l-1.71875 0l0 -11.546875l1.484375 0l0.25 1.96875l-0.1875 -0.546875q0.5625 -0.703125 1.40625 -1.171875q0.859375 -0.46875 1.9375 -0.46875q1.078125 0 1.9375 0.53125q0.875 0.515625 1.375 1.453125q0.5 0.9375 0.5 2.1875q0 1.25 -0.546875 2.171875q-0.53125 0.90625 -1.484375 1.40625q-0.9375 0.484375 -2.125 0.484375zm-0.328125 -1.375q0.734375 0 1.359375 -0.34375q0.625 -0.359375 1.0 -0.953125q0.375 -0.609375 0.375 -1.375q0 -0.78125 -0.359375 -1.390625q-0.34375 -0.609375 -0.9375 -0.953125q-0.59375 -0.359375 -1.3125 -0.359375q-0.671875 0 -1.21875 0.265625q-0.53125 0.25 -0.890625 0.71875q-0.359375 0.453125 -0.5 1.046875l0 1.28125q0.09375 0.59375 0.4375 1.0625q0.359375 0.46875 0.890625 0.734375q0.53125 0.265625 1.15625 0.265625zm10.422546 1.375q-1.328125 0 -2.28125 -0.53125q-0.953125 -0.53125 -1.46875 -1.453125q-0.5 -0.921875 -0.5 -2.125q0 -1.140625 0.578125 -2.0625q0.578125 -0.9375 1.546875 -1.5q0.96875 -0.5625 2.15625 -0.5625q1.53125 0 2.53125 0.90625q1.015625 0.890625 1.375 2.453125l-6.359375 2.25l-0.421875 -1.03125l5.234375 -1.90625l-0.375 0.25q-0.21875 -0.625 -0.75 -1.078125q-0.515625 -0.453125 -1.359375 -0.453125q-0.703125 0 -1.265625 0.34375q-0.5625 0.34375 -0.890625 0.9375q-0.3125 0.59375 -0.3125 1.359375q0 0.8125 0.328125 1.421875q0.34375 0.59375 0.9375 0.9375q0.59375 0.34375 1.328125 0.34375q0.515625 0 0.984375 -0.171875q0.46875 -0.1875 0.890625 -0.5l0.796875 1.296875q-0.578125 0.390625 -1.296875 0.640625q-0.71875 0.234375 -1.40625 0.234375zm7.669983 -7.90625l0.140625 1.875l-0.0625 -0.296875q0.359375 -0.859375 1.203125 -1.359375q0.84375 -0.515625 1.9375 -0.515625q1.109375 0 1.796875 0.640625q0.703125 0.640625 0.734375 1.671875l0 5.703125l-1.765625 0l0 -5.09375q-0.015625 -0.640625 -0.359375 -1.03125q-0.34375 -0.40625 -1.078125 -0.40625q-0.671875 0 -1.21875 0.375q-0.53125 0.375 -0.84375 1.03125q-0.296875 0.640625 -0.296875 1.5l0 3.625l-1.734375 0l0 -7.71875l1.546875 0z" fill-rule="nonzero" class="stage2"/>
</g></svg>