<svg xmlns="http://www.w3.org/2000/svg" font-family="ui-sans-serif, system-ui, -apple-system, sans-serif" viewBox="0 112 1000 308">
<defs>
<linearGradient id="enc" x1="0%" x2="100%" y1="0%" y2="100%"><stop offset="0%" stop-color="#175fff"/><stop offset="50%" stop-color="#7f47ff"/><stop offset="100%" stop-color="#c84cff"/></linearGradient>
<linearGradient id="sky" x1="0%" x2="0%" y1="0%" y2="100%"><stop offset="0%" stop-color="#7dd3fc"/><stop offset="100%" stop-color="#e0f2fe"/></linearGradient>
<clipPath id="photoc"><rect width="130" height="100" x="50" y="200" rx="5"/></clipPath>
<marker id="ar" markerHeight="7" markerWidth="7" orient="auto-start-reverse" refX="9" refY="5" viewBox="0 0 10 10"><path fill="#374151" d="m0 0 10 5-10 5z"/></marker>
</defs>

<!-- IMAGE INPUT -->
<rect width="150" height="120" x="40" y="190" fill="#fff" stroke="#1f2937" stroke-width="2" rx="8"/>
<g clip-path="url(#photoc)">
<rect width="130" height="100" x="50" y="200" fill="url(#sky)"/>
<circle cx="158" cy="224" r="9" fill="#fbbf24"/>
<polygon fill="#64748b" points="50,300 78,256 108,272 140,250 180,268 180,300"/>
<polygon fill="#475569" points="50,300 90,262 124,278 160,256 180,266 180,300"/>
<polygon fill="#f1f5f9" points="86,264 90,258 95,264"/>
<polygon fill="#f1f5f9" points="156,259 160,253 165,259"/>
<rect width="130" height="6" x="50" y="294" fill="#22c55e"/>
</g>
<text x="115" y="338" fill="#0f172a" font-size="15" font-weight="600" text-anchor="middle">Image</text>

<!-- IMAGE -> IMAGE ENCODER -->
<line x1="192" x2="228" y1="250" y2="250" stroke="#374151" stroke-width="3" marker-end="url(#ar)"/>

<!-- IMAGE ENCODER -->
<rect width="150" height="240" x="232" y="130" fill="url(#enc)" rx="14"/>
<g stroke="#fff" stroke-width=".6" opacity=".3"><line x1="267" y1="180" x2="307" y2="165"/><line x1="267" y1="180" x2="307" y2="210"/><line x1="267" y1="180" x2="307" y2="255"/><line x1="267" y1="180" x2="307" y2="300"/><line x1="267" y1="180" x2="307" y2="345"/><line x1="267" y1="230" x2="307" y2="165"/><line x1="267" y1="230" x2="307" y2="210"/><line x1="267" y1="230" x2="307" y2="255"/><line x1="267" y1="230" x2="307" y2="300"/><line x1="267" y1="230" x2="307" y2="345"/><line x1="267" y1="280" x2="307" y2="165"/><line x1="267" y1="280" x2="307" y2="210"/><line x1="267" y1="280" x2="307" y2="255"/><line x1="267" y1="280" x2="307" y2="300"/><line x1="267" y1="280" x2="307" y2="345"/><line x1="267" y1="320" x2="307" y2="165"/><line x1="267" y1="320" x2="307" y2="210"/><line x1="267" y1="320" x2="307" y2="255"/><line x1="267" y1="320" x2="307" y2="300"/><line x1="267" y1="320" x2="307" y2="345"/><line x1="307" y1="165" x2="347" y2="180"/><line x1="307" y1="165" x2="347" y2="230"/><line x1="307" y1="165" x2="347" y2="280"/><line x1="307" y1="165" x2="347" y2="320"/><line x1="307" y1="210" x2="347" y2="180"/><line x1="307" y1="210" x2="347" y2="230"/><line x1="307" y1="210" x2="347" y2="280"/><line x1="307" y1="210" x2="347" y2="320"/><line x1="307" y1="255" x2="347" y2="180"/><line x1="307" y1="255" x2="347" y2="230"/><line x1="307" y1="255" x2="347" y2="280"/><line x1="307" y1="255" x2="347" y2="320"/><line x1="307" y1="300" x2="347" y2="180"/><line x1="307" y1="300" x2="347" y2="230"/><line x1="307" y1="300" x2="347" y2="280"/><line x1="307" y1="300" x2="347" y2="320"/><line x1="307" y1="345" x2="347" y2="180"/><line x1="307" y1="345" x2="347" y2="230"/><line x1="307" y1="345" x2="347" y2="280"/><line x1="307" y1="345" x2="347" y2="320"/></g>
<g fill="#fff" stroke="#312e81" stroke-width="1.5"><circle cx="267" cy="180" r="7"/><circle cx="267" cy="230" r="7"/><circle cx="267" cy="280" r="7"/><circle cx="267" cy="320" r="7"/><circle cx="307" cy="165" r="7"/><circle cx="307" cy="210" r="7"/><circle cx="307" cy="255" r="7"/><circle cx="307" cy="300" r="7"/><circle cx="307" cy="345" r="7"/><circle cx="347" cy="180" r="7"/><circle cx="347" cy="230" r="7"/><circle cx="347" cy="280" r="7"/><circle cx="347" cy="320" r="7"/></g>
<text x="307" y="395" fill="#0f172a" font-size="15" font-weight="600" text-anchor="middle">Image encoder</text>

<!-- IMAGE ENCODER -> SHARED SPACE -->
<line x1="384" x2="406" y1="250" y2="250" stroke="#374151" stroke-width="3" marker-end="url(#ar)"/>

<!-- SHARED VECTOR SPACE -->
<rect width="180" height="180" x="410" y="160" fill="#f8fafc" stroke="#cbd5e1" stroke-width="2" rx="12"/>
<g stroke="#e2e8f0" stroke-width="1"><line x1="500" y1="172" x2="500" y2="328"/><line x1="422" y1="250" x2="578" y2="250"/></g>
<circle cx="500" cy="250" r="44" fill="#eef2ff" fill-opacity=".7" stroke="#94a3b8" stroke-width="1.4" stroke-dasharray="5 4"/>
<line x1="486" y1="240" x2="514" y2="262" stroke="#64748b" stroke-width="1.4" stroke-dasharray="3 3"/>
<circle cx="486" cy="240" r="7" fill="#175fff"/>
<circle cx="514" cy="262" r="7" fill="#c84cff"/>
<text x="500" y="375" fill="#0f172a" font-size="15" font-weight="600" text-anchor="middle">Shared vector space</text>
<g font-size="12" fill="#475569">
<circle cx="447" cy="396" r="5" fill="#175fff"/><text x="456" y="400">image</text>
<circle cx="513" cy="396" r="5" fill="#c84cff"/><text x="522" y="400">text</text>
</g>

<!-- TEXT ENCODER -> SHARED SPACE -->
<line x1="616" x2="594" y1="250" y2="250" stroke="#374151" stroke-width="3" marker-end="url(#ar)"/>

<!-- TEXT ENCODER -->
<rect width="150" height="240" x="618" y="130" fill="url(#enc)" rx="14"/>
<g stroke="#fff" stroke-width=".6" opacity=".3"><line x1="653" y1="180" x2="693" y2="165"/><line x1="653" y1="180" x2="693" y2="210"/><line x1="653" y1="180" x2="693" y2="255"/><line x1="653" y1="180" x2="693" y2="300"/><line x1="653" y1="180" x2="693" y2="345"/><line x1="653" y1="230" x2="693" y2="165"/><line x1="653" y1="230" x2="693" y2="210"/><line x1="653" y1="230" x2="693" y2="255"/><line x1="653" y1="230" x2="693" y2="300"/><line x1="653" y1="230" x2="693" y2="345"/><line x1="653" y1="280" x2="693" y2="165"/><line x1="653" y1="280" x2="693" y2="210"/><line x1="653" y1="280" x2="693" y2="255"/><line x1="653" y1="280" x2="693" y2="300"/><line x1="653" y1="280" x2="693" y2="345"/><line x1="653" y1="320" x2="693" y2="165"/><line x1="653" y1="320" x2="693" y2="210"/><line x1="653" y1="320" x2="693" y2="255"/><line x1="653" y1="320" x2="693" y2="300"/><line x1="653" y1="320" x2="693" y2="345"/><line x1="693" y1="165" x2="733" y2="180"/><line x1="693" y1="165" x2="733" y2="230"/><line x1="693" y1="165" x2="733" y2="280"/><line x1="693" y1="165" x2="733" y2="320"/><line x1="693" y1="210" x2="733" y2="180"/><line x1="693" y1="210" x2="733" y2="230"/><line x1="693" y1="210" x2="733" y2="280"/><line x1="693" y1="210" x2="733" y2="320"/><line x1="693" y1="255" x2="733" y2="180"/><line x1="693" y1="255" x2="733" y2="230"/><line x1="693" y1="255" x2="733" y2="280"/><line x1="693" y1="255" x2="733" y2="320"/><line x1="693" y1="300" x2="733" y2="180"/><line x1="693" y1="300" x2="733" y2="230"/><line x1="693" y1="300" x2="733" y2="280"/><line x1="693" y1="300" x2="733" y2="320"/><line x1="693" y1="345" x2="733" y2="180"/><line x1="693" y1="345" x2="733" y2="230"/><line x1="693" y1="345" x2="733" y2="280"/><line x1="693" y1="345" x2="733" y2="320"/></g>
<g fill="#fff" stroke="#312e81" stroke-width="1.5"><circle cx="653" cy="180" r="7"/><circle cx="653" cy="230" r="7"/><circle cx="653" cy="280" r="7"/><circle cx="653" cy="320" r="7"/><circle cx="693" cy="165" r="7"/><circle cx="693" cy="210" r="7"/><circle cx="693" cy="255" r="7"/><circle cx="693" cy="300" r="7"/><circle cx="693" cy="345" r="7"/><circle cx="733" cy="180" r="7"/><circle cx="733" cy="230" r="7"/><circle cx="733" cy="280" r="7"/><circle cx="733" cy="320" r="7"/></g>
<text x="693" y="395" fill="#0f172a" font-size="15" font-weight="600" text-anchor="middle">Text encoder</text>

<!-- TEXT QUERY -> TEXT ENCODER -->
<line x1="808" x2="772" y1="250" y2="250" stroke="#374151" stroke-width="3" marker-end="url(#ar)"/>

<!-- TEXT QUERY -->
<rect width="150" height="120" x="810" y="190" fill="#fff" stroke="#1f2937" stroke-width="2" rx="8"/>
<rect width="120" height="34" x="825" y="233" fill="#f8fafc" stroke="#cbd5e1" stroke-width="1.5" rx="17"/>
<circle cx="843" cy="250" r="6" fill="none" stroke="#64748b" stroke-width="2"/>
<line x1="847" y1="254" x2="852" y2="259" stroke="#64748b" stroke-width="2" stroke-linecap="round"/>
<text x="901" y="254" fill="#334155" font-size="10.5" text-anchor="middle">sunlit mountains</text>
<text x="885" y="338" fill="#0f172a" font-size="15" font-weight="600" text-anchor="middle">Text query</text>
</svg>