<svg width="2033" height="1162" viewBox="0 0 2033 1162" fill="none" xmlns="http://www.w3.org/2000/svg">
<path d="M560.927 439.614C483.058 361.462 356.787 361.462 278.917 439.614L151.643 567.347C144.119 574.906 144.119 587.078 151.643 594.637L278.917 722.37C356.787 800.522 483.058 800.522 560.927 722.498C638.922 644.474 638.922 517.766 560.927 439.614ZM530.833 684.96C473.653 742.356 380.862 742.356 323.683 684.96L230.014 591.049C224.496 585.54 224.496 576.572 230.014 570.935L323.557 477.152C380.737 419.756 473.528 419.756 530.707 477.152C588.012 534.549 588.012 627.563 530.833 684.96Z" fill="#00B3FF"/>
<path d="M727.692 567.475L671.641 510.207C668.256 506.747 662.613 509.95 663.742 514.691C673.397 558.379 673.397 603.989 663.742 647.677C662.738 652.417 668.381 655.492 671.641 652.161L727.692 594.893C735.09 587.205 735.09 575.034 727.692 567.475Z" fill="#00B3FF"/>
<path d="M427.879 681.5C482.104 681.5 526.062 636.587 526.062 581.184C526.062 525.781 482.104 480.868 427.879 480.868C373.654 480.868 329.696 525.781 329.696 581.184C329.696 636.587 373.654 681.5 427.879 681.5Z" fill="#00B3FF"/>
<path d="M845.098 598.791C845.098 588.122 846.898 578.924 850.499 571.198C854.1 563.472 859.141 556.85 865.622 551.331C872.104 545.812 879.666 541.765 888.308 539.19C896.95 536.615 906.672 535.143 916.754 535.143C929.357 535.143 940.52 537.351 950.602 541.765C960.324 546.18 968.606 552.067 974.727 559.793C980.849 552.067 988.771 546.18 998.493 541.765C1008.22 537.351 1019.38 535.143 1031.98 535.143C1042.06 535.143 1051.42 536.615 1060.07 539.19C1068.71 541.765 1076.27 545.812 1082.75 551.331C1089.23 556.85 1094.27 563.472 1097.88 571.198C1101.48 578.924 1103.28 588.122 1103.28 598.791V704.012H1052.51V613.507C1052.51 602.47 1050.34 594.744 1046.02 589.961C1041.7 585.178 1035.58 582.971 1027.3 582.971C1019.02 582.971 1012.54 585.914 1007.13 591.433C1002.09 596.951 999.573 605.781 999.573 618.29V704.38H948.801V618.29C948.801 606.149 946.281 597.319 941.24 591.433C936.199 585.914 929.717 582.971 921.435 582.971C913.513 582.971 907.032 585.178 902.711 589.961C898.03 594.744 895.869 602.47 895.869 613.507V704.012H845.098V598.791Z" fill="#00B3FF"/>
<path d="M1145.41 495.778C1145.41 487.684 1147.93 480.694 1153.33 475.175C1158.73 469.657 1165.21 466.713 1173.49 466.713C1181.41 466.713 1188.26 469.657 1193.66 475.175C1199.06 480.694 1201.94 487.684 1201.94 495.778C1201.94 503.872 1199.06 510.862 1193.66 516.381C1188.26 521.899 1181.41 524.475 1173.49 524.475C1165.57 524.475 1158.73 521.899 1153.33 516.381C1148.29 510.494 1145.41 503.872 1145.41 495.778ZM1148.29 562.737C1148.29 554.275 1150.81 548.389 1155.49 545.077C1160.17 541.766 1166.65 539.927 1174.57 539.927C1180.33 539.927 1185.38 540.663 1190.06 542.134C1194.74 543.606 1197.62 544.342 1199.06 544.71V704.381H1148.29V562.737Z" fill="#00B3FF"/>
<path d="M1245.87 489.524C1245.87 481.062 1248.39 475.175 1253.07 471.864C1257.75 468.553 1264.23 466.713 1272.16 466.713C1277.92 466.713 1282.96 467.449 1287.64 468.921C1292.32 470.392 1295.2 471.128 1296.64 471.496V704.013H1245.87V489.524Z" fill="#00B3FF"/>
<path d="M1389.54 704.013C1383.06 692.24 1376.58 680.099 1370.46 667.59C1364.33 655.081 1358.57 643.308 1353.53 632.639C1348.49 621.97 1344.17 612.404 1340.93 605.046C1337.69 597.32 1335.53 592.537 1334.45 590.33C1332.65 585.915 1330.85 581.132 1329.05 575.982C1326.89 570.463 1326.17 565.68 1326.17 561.633C1326.17 555.747 1328.33 550.596 1332.65 546.181C1336.97 542.134 1343.09 539.927 1351.73 539.927C1358.57 539.927 1363.97 540.663 1368.3 542.134C1372.62 543.606 1374.78 544.342 1375.5 544.71C1379.1 555.379 1382.7 566.048 1387.02 576.717C1390.98 587.387 1394.94 597.32 1398.54 606.518C1402.14 615.715 1405.38 623.809 1408.62 630.8C1411.51 637.79 1413.67 642.572 1415.11 645.516C1416.55 642.572 1418.35 637.79 1421.23 631.167C1424.11 624.545 1426.99 616.819 1430.23 608.725C1433.47 600.631 1436.71 592.169 1439.95 584.076C1443.19 575.982 1446.07 568.623 1448.23 563.105C1449.67 559.794 1450.75 556.85 1452.56 553.907C1454 550.964 1456.16 548.757 1458.32 546.549C1460.48 544.342 1463.36 542.87 1466.24 541.766C1469.48 540.663 1473.44 540.295 1477.76 540.295C1482.08 540.295 1485.68 540.663 1489.28 541.766C1492.52 542.502 1495.76 543.606 1498.29 544.71C1500.81 545.813 1502.97 546.917 1504.41 547.653C1505.85 548.756 1506.93 549.124 1507.29 549.492C1506.57 553.539 1504.41 559.058 1501.17 567.152C1497.93 574.878 1494.32 584.076 1490 594.009C1485.68 603.942 1481 614.612 1475.96 625.649C1470.92 636.686 1465.88 647.355 1461.2 657.657C1456.52 667.958 1451.83 677.156 1447.51 685.617C1443.19 693.711 1439.95 700.334 1437.79 704.749H1389.54V704.013Z" fill="#00B3FF"/>
<path d="M1584.35 627.488C1584.35 649.931 1594.07 660.968 1613.87 660.968C1633.68 660.968 1643.4 649.931 1643.4 627.488V562.737C1643.4 554.275 1645.92 548.389 1650.6 545.077C1655.28 541.766 1661.76 539.927 1669.68 539.927C1675.45 539.927 1680.49 540.663 1685.17 542.134C1689.85 543.606 1692.73 544.342 1694.17 544.71V637.054C1694.17 649.195 1692.01 659.496 1688.05 668.326C1684.09 677.156 1678.33 684.514 1671.13 690.4C1663.92 696.287 1655.64 700.702 1645.56 703.645C1635.84 706.588 1625.03 708.06 1613.87 708.06C1602.35 708.06 1591.91 706.588 1582.18 703.645C1572.46 700.702 1563.82 696.287 1556.62 690.4C1549.42 684.514 1544.02 677.156 1539.7 668.326C1535.73 659.496 1533.57 648.827 1533.57 637.054V562.737C1533.57 554.275 1536.09 548.389 1540.78 545.077C1545.46 541.766 1551.94 539.927 1559.86 539.927C1565.62 539.927 1570.66 540.663 1575.34 542.134C1580.02 543.606 1582.91 544.342 1584.35 544.71V627.488Z" fill="#00B3FF"/>
<path d="M1745.66 653.977C1747.46 655.448 1749.98 656.92 1753.94 658.759C1757.91 660.599 1762.59 662.439 1767.99 663.91C1773.39 665.382 1779.51 666.853 1786.35 667.957C1793.19 669.061 1800.4 669.797 1807.96 669.797C1816.6 669.797 1823.08 669.061 1827.4 667.221C1831.72 665.75 1833.88 662.806 1833.88 658.759C1833.88 654.345 1832.08 651.401 1828.48 649.93C1824.88 648.458 1819.12 646.987 1811.2 645.883L1794.63 644.043C1786.35 642.94 1778.43 641.468 1770.87 639.261C1763.31 637.053 1756.47 634.11 1750.7 630.063C1744.94 626.016 1740.26 620.865 1737.02 614.611C1733.78 608.356 1731.98 600.63 1731.98 591.065C1731.98 582.971 1733.42 575.613 1736.3 568.99C1739.18 562.368 1743.5 556.482 1749.62 551.331C1755.75 546.18 1763.67 542.133 1773.03 539.558C1782.39 536.615 1793.91 535.143 1806.88 535.143C1820.2 535.143 1831.36 535.879 1841.08 537.718C1850.81 539.558 1858.73 542.133 1865.93 545.812C1869.89 548.02 1873.13 550.595 1875.65 553.538C1878.17 556.482 1879.25 560.529 1879.25 564.944C1879.25 568.255 1878.53 571.566 1877.09 574.141C1875.65 576.716 1874.21 579.292 1872.41 581.131C1870.61 582.971 1868.81 584.443 1867.37 585.546C1865.93 586.65 1864.85 587.386 1864.49 587.386C1863.77 586.65 1861.97 585.546 1859.45 583.707C1856.57 581.867 1852.97 580.396 1847.93 578.556C1843.25 577.084 1837.48 575.613 1831 574.141C1824.52 572.67 1816.96 572.302 1808.32 572.302C1798.96 572.302 1792.11 573.405 1788.51 575.613C1784.91 577.82 1783.11 580.763 1783.11 584.442C1783.11 588.122 1784.91 590.697 1788.15 592.168C1791.39 593.64 1796.43 595.112 1803.28 596.215L1832.08 600.262C1839.28 601.366 1846.13 602.838 1852.61 605.045C1859.09 607.253 1865.21 610.196 1870.25 613.875C1875.29 617.922 1879.61 622.705 1882.49 628.591C1885.38 634.478 1887.18 641.836 1887.18 650.666C1887.18 668.693 1880.33 682.673 1867.01 692.975C1853.69 702.908 1834.96 708.059 1811.2 708.059C1798.96 708.059 1787.79 707.323 1778.07 705.484C1768.35 703.644 1760.43 701.805 1753.22 699.597C1746.38 697.39 1740.62 694.814 1736.3 692.607C1731.98 690.032 1729.1 688.192 1727.3 687.088L1745.66 653.977Z" fill="#00B3FF"/>
</svg>
