<svg width="160" height="50" viewBox="0 0 160 50" fill="none" xmlns="http://www.w3.org/2000/svg">
<rect x="55.0205" y="14.8544" width="13.5472" height="2.97087" fill="black"/>
<rect x="101.96" y="14.8544" width="13.5472" height="2.97087" fill="black"/>
<rect x="80.0947" y="7.96193" width="3.20854" height="24.7176" fill="black"/>
<rect x="72.9648" y="14.8543" width="3.20854" height="17.8252" fill="black"/>
<rect width="3.20854" height="3.20854" transform="matrix(1 0 0 -1 72.9648 11.1705)" fill="black"/>
<rect x="54.6641" y="29.7087" width="14.2602" height="2.97087" fill="black"/>
<path d="M54.6641 29.7087L64.7663 17.8252L68.5677 17.8252L58.4656 29.7087L54.6641 29.7087Z" fill="black"/>
<path d="M101.604 29.7087L111.706 17.8252L115.508 17.8252L105.405 29.7087L101.604 29.7087Z" fill="black"/>
<rect x="87.2246" y="7.96193" width="3.20855" height="24.7176" fill="black"/>
<rect x="101.604" y="29.7087" width="14.2602" height="2.97087" fill="black"/>
<rect x="94.355" y="14.8543" width="3.20854" height="17.8252" fill="black"/>
<rect width="3.20854" height="3.20854" transform="matrix(1 0 0 -1 94.355 11.1705)" fill="black"/>
<path d="M22.2815 32.3162V47.5339H25.2524V29.3107L33.1523 42.9936C34.0462 42.5564 34.9052 42.0588 35.7238 41.5059L27.076 26.5275L36.5995 29.9938C37.0292 29.1099 37.3702 28.1749 37.6111 27.2004L32.2589 25.2524H47.5339V22.2815H29.3106L42.9937 14.3816C42.5565 13.4877 42.0588 12.6287 41.5059 11.8101L26.6162 20.4066L30.0532 10.9636C29.1712 10.5297 28.2378 10.1843 27.2646 9.93893L25.2524 15.4675V0H22.2815V18.2232L14.3816 4.54022C13.4877 4.9774 12.6287 5.4751 11.8101 6.02797L20.422 20.9441L10.9549 17.4984C10.5223 18.381 10.1782 19.3148 9.93411 20.2884L15.4103 22.2815H0V25.2524H18.2232L4.54024 33.1522C4.97743 34.0462 5.47512 34.9051 6.02799 35.7237L21.0328 27.0607L17.5579 36.6081C18.4423 37.0365 19.3778 37.3763 20.3526 37.6158L22.2815 32.3162Z" fill="url(#paint0_linear_307_118)"/>
<path d="M111.447 49.6793C111.288 49.6793 111.146 49.666 111.021 49.6394C110.896 49.6155 110.809 49.5916 110.762 49.5676L111.001 48.7383C111.229 48.7968 111.431 48.818 111.607 48.8021C111.782 48.7861 111.938 48.7077 112.073 48.5668C112.212 48.4286 112.338 48.204 112.452 47.893L112.628 47.4145L110.363 41.258H111.384L113.074 46.1385H113.138L114.829 41.258H115.849L113.25 48.2757C113.133 48.5921 112.988 48.8539 112.815 49.0612C112.642 49.2713 112.442 49.4268 112.213 49.5278C111.987 49.6288 111.732 49.6793 111.447 49.6793Z" fill="black"/>
<path d="M104.214 47.3826V39.2164H105.155V42.2309H105.235C105.304 42.1246 105.4 41.989 105.522 41.8242C105.647 41.6567 105.825 41.5079 106.057 41.3776C106.29 41.2447 106.607 41.1782 107.006 41.1782C107.521 41.1782 107.976 41.3072 108.369 41.565C108.763 41.8229 109.07 42.1884 109.29 42.6615C109.511 43.1347 109.621 43.6929 109.621 44.3362C109.621 44.9848 109.511 45.547 109.29 46.0229C109.07 46.496 108.764 46.8629 108.373 47.1234C107.982 47.3812 107.532 47.5102 107.021 47.5102C106.628 47.5102 106.313 47.445 106.076 47.3148C105.84 47.1819 105.658 47.0317 105.53 46.8642C105.403 46.6941 105.304 46.5532 105.235 46.4415H105.123V47.3826H104.214ZM105.139 44.3203C105.139 44.7828 105.207 45.1908 105.343 45.5444C105.478 45.8953 105.676 46.1704 105.937 46.3698C106.197 46.5665 106.516 46.6648 106.894 46.6648C107.287 46.6648 107.616 46.5612 107.879 46.3538C108.145 46.1438 108.344 45.8621 108.477 45.5085C108.612 45.1523 108.68 44.7562 108.68 44.3203C108.68 43.8896 108.614 43.5015 108.481 43.156C108.351 42.8077 108.153 42.5326 107.887 42.3306C107.624 42.1259 107.293 42.0235 106.894 42.0235C106.511 42.0235 106.189 42.1206 105.929 42.3146C105.668 42.506 105.472 42.7745 105.339 43.1201C105.206 43.463 105.139 43.8631 105.139 44.3203Z" fill="black"/>
<path d="M96.2677 47.5102C95.7573 47.5102 95.3068 47.3812 94.916 47.1234C94.5253 46.8629 94.2196 46.496 93.9989 46.0229C93.7783 45.547 93.668 44.9848 93.668 44.3362C93.668 43.6929 93.7783 43.1347 93.9989 42.6615C94.2196 42.1884 94.5266 41.8229 94.92 41.565C95.3134 41.3072 95.768 41.1782 96.2837 41.1782C96.6824 41.1782 96.9974 41.2447 97.2287 41.3776C97.4626 41.5079 97.6407 41.6567 97.763 41.8242C97.8879 41.989 97.985 42.1246 98.0541 42.2309H98.1338V39.2164H99.0748V47.3826H98.1657V46.4415H98.0541C97.985 46.5532 97.8866 46.6941 97.759 46.8642C97.6314 47.0317 97.4493 47.1819 97.2127 47.3148C96.9762 47.445 96.6611 47.5102 96.2677 47.5102ZM96.3953 46.6648C96.7728 46.6648 97.0918 46.5665 97.3523 46.3698C97.6128 46.1704 97.8108 45.8953 97.9464 45.5444C98.082 45.1908 98.1498 44.7828 98.1498 44.3203C98.1498 43.8631 98.0833 43.463 97.9504 43.1201C97.8175 42.7745 97.6208 42.506 97.3603 42.3146C97.0998 42.1206 96.7781 42.0235 96.3953 42.0235C95.9966 42.0235 95.6643 42.1259 95.3985 42.3306C95.1353 42.5326 94.9373 42.8077 94.8044 43.156C94.6741 43.5015 94.609 43.8896 94.609 44.3203C94.609 44.7562 94.6754 45.1523 94.8084 45.5085C94.9439 45.8621 95.1433 46.1438 95.4065 46.3538C95.6723 46.5612 96.0019 46.6648 96.3953 46.6648Z" fill="black"/>
<path d="M89.9873 47.5102C89.3971 47.5102 88.8881 47.3799 88.4601 47.1194C88.0348 46.8562 87.7065 46.4894 87.4752 46.0189C87.2466 45.5457 87.1323 44.9955 87.1323 44.3681C87.1323 43.7408 87.2466 43.1879 87.4752 42.7094C87.7065 42.2282 88.0282 41.8534 88.4402 41.5849C88.8549 41.3138 89.3387 41.1782 89.8916 41.1782C90.2106 41.1782 90.5256 41.2314 90.8366 41.3377C91.1476 41.4441 91.4307 41.6168 91.6859 41.8561C91.9411 42.0927 92.1444 42.4063 92.296 42.7971C92.4475 43.1879 92.5232 43.669 92.5232 44.2405V44.6393H87.8022V43.8258H91.5663C91.5663 43.4803 91.4972 43.1719 91.3589 42.9008C91.2234 42.6296 91.0293 42.4156 90.7768 42.2588C90.5269 42.102 90.2318 42.0236 89.8916 42.0236C89.5168 42.0236 89.1925 42.1166 88.9187 42.3027C88.6475 42.4861 88.4388 42.7253 88.2926 43.0204C88.1464 43.3155 88.0733 43.6318 88.0733 43.9694V44.5117C88.0733 44.9742 88.1531 45.3663 88.3126 45.6879C88.4747 46.0069 88.6994 46.2502 88.9864 46.4176C89.2735 46.5824 89.6071 46.6648 89.9873 46.6648C90.2345 46.6648 90.4578 46.6303 90.6572 46.5612C90.8592 46.4894 91.0333 46.3831 91.1795 46.2422C91.3257 46.0986 91.4387 45.9205 91.5184 45.7079L92.4275 45.9631C92.3318 46.2714 92.171 46.5426 91.9451 46.7765C91.7191 47.0078 91.44 47.1885 91.1077 47.3188C90.7754 47.4464 90.402 47.5102 89.9873 47.5102Z" fill="black"/>
<path d="M83.4282 47.3826V41.258H84.3373V42.183H84.4011C84.5128 41.88 84.7148 41.6341 85.0072 41.4454C85.2996 41.2566 85.6292 41.1623 85.9961 41.1623C86.0652 41.1623 86.1516 41.1636 86.2553 41.1663C86.3589 41.1689 86.4374 41.1729 86.4905 41.1782V42.1352C86.4586 42.1272 86.3855 42.1153 86.2712 42.0993C86.1596 42.0807 86.0413 42.0714 85.9163 42.0714C85.6186 42.0714 85.3528 42.1339 85.1189 42.2588C84.8876 42.3811 84.7042 42.5512 84.5686 42.7692C84.4357 42.9845 84.3692 43.2304 84.3692 43.5068V47.3826H83.4282Z" fill="black"/>
<path d="M79.4609 47.5102C78.8708 47.5102 78.3617 47.3799 77.9337 47.1194C77.5084 46.8562 77.1801 46.4894 76.9489 46.0189C76.7203 45.5457 76.606 44.9955 76.606 44.3681C76.606 43.7408 76.7203 43.1879 76.9489 42.7094C77.1801 42.2282 77.5018 41.8534 77.9138 41.5849C78.3285 41.3138 78.8123 41.1782 79.3652 41.1782C79.6842 41.1782 79.9992 41.2314 80.3102 41.3377C80.6212 41.4441 80.9043 41.6168 81.1595 41.8561C81.4147 42.0927 81.6181 42.4063 81.7696 42.7971C81.9211 43.1879 81.9969 43.669 81.9969 44.2405V44.6393H77.2758V43.8258H81.0399C81.0399 43.4803 80.9708 43.1719 80.8326 42.9008C80.697 42.6296 80.5029 42.4156 80.2504 42.2588C80.0005 42.102 79.7055 42.0236 79.3652 42.0236C78.9904 42.0236 78.6661 42.1166 78.3923 42.3027C78.1212 42.4861 77.9125 42.7253 77.7663 43.0204C77.6201 43.3155 77.547 43.6318 77.547 43.9694V44.5117C77.547 44.9742 77.6267 45.3663 77.7862 45.6879C77.9484 46.0069 78.173 46.2502 78.4601 46.4176C78.7472 46.5824 79.0808 46.6648 79.4609 46.6648C79.7081 46.6648 79.9314 46.6303 80.1308 46.5612C80.3328 46.4894 80.5069 46.3831 80.6531 46.2422C80.7993 46.0986 80.9123 45.9205 80.9921 45.7079L81.9012 45.9631C81.8055 46.2714 81.6447 46.5426 81.4187 46.7765C81.1928 47.0078 80.9136 47.1885 80.5814 47.3188C80.2491 47.4464 79.8756 47.5102 79.4609 47.5102Z" fill="black"/>
<path d="M69.3661 47.3826L67.5 41.258H68.4889L69.8127 45.9471H69.8765L71.1843 41.258H72.1891L73.481 45.9312H73.5448L74.8686 41.258H75.8575L73.9914 47.3826H73.0664L71.7266 42.6775H71.6309L70.2912 47.3826H69.3661Z" fill="black"/>
<path d="M63.9749 47.5102C63.422 47.5102 62.9369 47.3786 62.5195 47.1154C62.1048 46.8522 61.7805 46.4841 61.5466 46.0109C61.3153 45.5377 61.1997 44.9848 61.1997 44.3522C61.1997 43.7142 61.3153 43.1573 61.5466 42.6815C61.7805 42.2056 62.1048 41.8361 62.5195 41.573C62.9369 41.3098 63.422 41.1782 63.9749 41.1782C64.5278 41.1782 65.0116 41.3098 65.4263 41.573C65.8437 41.8361 66.168 42.2056 66.3992 42.6815C66.6332 43.1573 66.7501 43.7142 66.7501 44.3522C66.7501 44.9848 66.6332 45.5377 66.3992 46.0109C66.168 46.4841 65.8437 46.8522 65.4263 47.1154C65.0116 47.3786 64.5278 47.5102 63.9749 47.5102ZM63.9749 46.6648C64.3949 46.6648 64.7405 46.5572 65.0116 46.3419C65.2828 46.1265 65.4835 45.8434 65.6137 45.4926C65.744 45.1417 65.8091 44.7615 65.8091 44.3522C65.8091 43.9428 65.744 43.5613 65.6137 43.2078C65.4835 42.8543 65.2828 42.5685 65.0116 42.3505C64.7405 42.1325 64.3949 42.0236 63.9749 42.0236C63.5549 42.0236 63.2093 42.1325 62.9382 42.3505C62.6671 42.5685 62.4664 42.8543 62.3361 43.2078C62.2059 43.5613 62.1407 43.9428 62.1407 44.3522C62.1407 44.7615 62.2059 45.1417 62.3361 45.4926C62.4664 45.8434 62.6671 46.1265 62.9382 46.3419C63.2093 46.5572 63.5549 46.6648 63.9749 46.6648Z" fill="black"/>
<path d="M54.6445 49.6793V41.258H55.5536V42.2309H55.6653C55.7344 42.1246 55.8301 41.989 55.9524 41.8242C56.0773 41.6567 56.2554 41.5079 56.4867 41.3776C56.7206 41.2447 57.0369 41.1782 57.4357 41.1782C57.9514 41.1782 58.4059 41.3072 58.7994 41.565C59.1928 41.8229 59.4998 42.1884 59.7204 42.6615C59.9411 43.1347 60.0514 43.6929 60.0514 44.3362C60.0514 44.9848 59.9411 45.5471 59.7204 46.0229C59.4998 46.496 59.1941 46.8629 58.8034 47.1234C58.4126 47.3812 57.962 47.5102 57.4516 47.5102C57.0582 47.5102 56.7432 47.445 56.5066 47.3148C56.27 47.1819 56.088 47.0317 55.9604 46.8642C55.8328 46.6941 55.7344 46.5532 55.6653 46.4415H55.5855V49.6793H54.6445ZM55.5696 44.3203C55.5696 44.7828 55.6374 45.1908 55.773 45.5444C55.9085 45.8953 56.1066 46.1704 56.3671 46.3698C56.6276 46.5665 56.9466 46.6648 57.324 46.6648C57.7175 46.6648 58.0458 46.5612 58.3089 46.3538C58.5747 46.1438 58.7741 45.8621 58.907 45.5085C59.0426 45.1523 59.1104 44.7562 59.1104 44.3203C59.1104 43.8896 59.0439 43.5015 58.911 43.156C58.7808 42.8077 58.5827 42.5326 58.3169 42.3306C58.0537 42.1259 57.7228 42.0236 57.324 42.0236C56.9413 42.0236 56.6196 42.1206 56.3591 42.3146C56.0986 42.506 55.9019 42.7745 55.769 43.1201C55.6361 43.463 55.5696 43.8631 55.5696 44.3203Z" fill="black"/>
<path d="M130.464 39.4642C130.464 39.1574 130.56 38.8925 130.764 38.6833C130.969 38.4741 131.214 38.3626 131.528 38.3626C131.827 38.3626 132.086 38.4741 132.291 38.6833C132.495 38.8925 132.604 39.1574 132.604 39.4642C132.604 39.771 132.495 40.0359 132.291 40.2451C132.086 40.4542 131.827 40.5519 131.528 40.5519C131.228 40.5519 130.969 40.4542 130.764 40.2451C130.573 40.022 130.464 39.771 130.464 39.4642Z" fill="black"/>
<path d="M130.573 42.0021C130.573 41.6814 130.669 41.4583 130.846 41.3328C131.023 41.2072 131.269 41.1375 131.568 41.1375C131.787 41.1375 131.977 41.1654 132.155 41.2212C132.332 41.277 132.441 41.3049 132.495 41.3188V47.3707H130.573V42.0021Z" fill="black"/>
<path d="M119.095 43.3685C119.095 42.9642 119.163 42.6155 119.3 42.3227C119.436 42.0299 119.627 41.7789 119.872 41.5697C120.118 41.3605 120.404 41.2071 120.731 41.1095C121.058 41.0119 121.426 40.9561 121.808 40.9561C122.285 40.9561 122.708 41.0398 123.089 41.2071C123.457 41.3745 123.771 41.5976 124.003 41.8904C124.234 41.5976 124.534 41.3745 124.902 41.2071C125.27 41.0398 125.693 40.9561 126.17 40.9561C126.552 40.9561 126.906 41.0119 127.233 41.1095C127.561 41.2071 127.847 41.3605 128.092 41.5697C128.338 41.7789 128.529 42.0299 128.665 42.3227C128.801 42.6155 128.869 42.9642 128.869 43.3685V47.3567H126.947V43.9263C126.947 43.508 126.865 43.2152 126.702 43.0339C126.538 42.8526 126.307 42.7689 125.993 42.7689C125.679 42.7689 125.434 42.8805 125.23 43.0897C125.039 43.2988 124.943 43.6335 124.943 44.1076V47.3706H123.021V44.1076C123.021 43.6474 122.926 43.3128 122.735 43.0897C122.544 42.8805 122.299 42.7689 121.985 42.7689C121.685 42.7689 121.44 42.8526 121.276 43.0339C121.099 43.2152 121.017 43.508 121.017 43.9263V47.3567H119.095V43.3685Z" fill="black"/>
<path d="M134.54 38.5578C134.363 38.6833 134.268 38.9064 134.268 39.2271V47.3568H136.19V38.5438C136.135 38.5299 136.026 38.502 135.849 38.4462C135.672 38.3905 135.481 38.3626 135.263 38.3626C134.963 38.3626 134.718 38.4323 134.54 38.5578Z" fill="black"/>
<path d="M139.706 47.3568C139.461 46.9105 139.216 46.4504 138.984 45.9763C138.752 45.5023 138.534 45.0558 138.343 44.6515C138.152 44.2471 137.989 43.8846 137.866 43.6057C137.743 43.3129 137.662 43.1316 137.621 43.0479C137.553 42.8806 137.484 42.6993 137.416 42.5041C137.335 42.2949 137.307 42.1136 137.307 41.9602C137.307 41.7371 137.389 41.5419 137.553 41.3746C137.716 41.2212 137.948 41.1375 138.275 41.1375C138.534 41.1375 138.739 41.1654 138.902 41.2212C139.065 41.2768 139.148 41.3049 139.175 41.3188C139.311 41.7232 139.447 42.1276 139.611 42.532C139.731 42.8567 139.852 43.1635 139.965 43.4523L139.966 43.4534C139.993 43.5239 140.021 43.5932 140.047 43.6615C140.184 44.0101 140.306 44.3169 140.429 44.5818C140.538 44.8468 140.62 45.028 140.674 45.1396C140.705 45.0776 140.739 44.9941 140.783 44.889C140.817 44.8051 140.858 44.7071 140.906 44.5958C140.979 44.4285 141.051 44.2427 141.128 44.0465C141.166 43.9485 141.206 43.8473 141.247 43.7451C141.308 43.5918 141.37 43.4349 141.431 43.2781C141.492 43.1212 141.554 42.9642 141.615 42.8109C141.738 42.5041 141.847 42.2252 141.929 42.016C141.941 41.9882 141.952 41.9611 141.963 41.9345C142.003 41.8411 142.039 41.7542 142.092 41.6674C142.147 41.5558 142.228 41.4722 142.31 41.3885C142.392 41.3048 142.501 41.2491 142.61 41.2072C142.733 41.1654 142.883 41.1515 143.046 41.1515C143.21 41.1515 143.346 41.1654 143.483 41.2072C143.605 41.2351 143.728 41.277 143.823 41.3188C143.919 41.3606 144.001 41.4025 144.055 41.4303C144.086 41.4544 144.113 41.4692 144.133 41.4801C144.148 41.4882 144.158 41.4941 144.164 41.5001C144.137 41.6535 144.055 41.8626 143.932 42.1694C143.888 42.2756 143.842 42.3891 143.793 42.5086L143.792 42.5102C143.707 42.7199 143.614 42.948 143.51 43.1874C143.346 43.5639 143.169 43.9683 142.978 44.3866C142.888 44.5842 142.798 44.7787 142.709 44.9701L142.708 44.9719C142.61 45.1849 142.512 45.3945 142.419 45.5998C142.242 45.9902 142.065 46.3388 141.901 46.6595C141.738 46.9663 141.615 47.2173 141.533 47.3846L139.706 47.3847V47.3568Z" fill="black"/>
<path d="M148.199 45.7253C147.45 45.7253 147.082 45.3069 147.082 44.4563V41.3188C147.027 41.3048 146.918 41.277 146.741 41.2212C146.564 41.1654 146.373 41.1375 146.155 41.1375C145.855 41.1375 145.609 41.2072 145.432 41.3327C145.255 41.4582 145.159 41.6813 145.159 42.0021V44.8189C145.159 45.2651 145.241 45.6695 145.391 46.0042C145.555 46.3388 145.759 46.6177 146.032 46.8408C146.305 47.0639 146.632 47.2313 147 47.3428C147.368 47.4544 147.763 47.5102 148.199 47.5102C148.622 47.5102 149.031 47.4544 149.399 47.3428C149.781 47.2313 150.094 47.0639 150.367 46.8408C150.639 46.6177 150.858 46.3388 151.008 46.0042C151.158 45.6695 151.239 45.279 151.239 44.8189V41.3188C151.185 41.3048 151.076 41.277 150.898 41.2212C150.721 41.1654 150.53 41.1375 150.312 41.1375C150.012 41.1375 149.767 41.2072 149.59 41.3327C149.413 41.4582 149.317 41.6813 149.317 42.0021V44.4563C149.317 45.3069 148.949 45.7253 148.199 45.7253Z" fill="black"/>
<path d="M153.189 45.4602C153.257 45.516 153.352 45.5718 153.502 45.6415C153.652 45.7112 153.829 45.7809 154.034 45.8367C154.238 45.8925 154.47 45.9483 154.729 45.9901C154.988 46.032 155.261 46.0598 155.547 46.0598C155.874 46.0598 156.12 46.032 156.283 45.9622C156.447 45.9064 156.529 45.7949 156.529 45.6415C156.529 45.4742 156.46 45.3626 156.324 45.3068C156.188 45.2511 155.97 45.1953 155.67 45.1534L155.043 45.0837C154.729 45.0419 154.429 44.9861 154.143 44.9024C153.857 44.8188 153.598 44.7072 153.38 44.5538C153.161 44.4004 152.984 44.2052 152.862 43.9682C152.739 43.7311 152.671 43.4383 152.671 43.0757C152.671 42.7689 152.725 42.49 152.834 42.239C152.943 41.988 153.107 41.7649 153.339 41.5697C153.57 41.3745 153.87 41.2211 154.225 41.1235C154.579 41.0119 155.015 40.9561 155.506 40.9561C156.011 40.9561 156.433 40.984 156.801 41.0538C157.169 41.1235 157.469 41.2211 157.742 41.3605C157.892 41.4442 158.014 41.5418 158.11 41.6534C158.205 41.7649 158.246 41.9183 158.246 42.0856C158.246 42.2112 158.219 42.3367 158.164 42.4343C158.11 42.5319 158.055 42.6295 157.987 42.6992C157.919 42.7689 157.851 42.8247 157.796 42.8665C157.742 42.9084 157.701 42.9363 157.687 42.9363C157.67 42.919 157.638 42.8965 157.593 42.8653C157.565 42.846 157.533 42.8234 157.496 42.7968C157.387 42.7271 157.251 42.6713 157.06 42.6016C156.883 42.5458 156.665 42.49 156.42 42.4343C156.174 42.3785 155.888 42.3645 155.561 42.3645C155.206 42.3645 154.947 42.4064 154.811 42.49C154.675 42.5737 154.606 42.6853 154.606 42.8247C154.606 42.9642 154.675 43.0618 154.797 43.1175C154.92 43.1733 155.111 43.2291 155.37 43.2709L156.46 43.4243C156.733 43.4662 156.992 43.5219 157.237 43.6056C157.483 43.6893 157.715 43.8008 157.905 43.9403C158.096 44.0937 158.26 44.2749 158.369 44.4981C158.478 44.7212 158.546 45.0001 158.546 45.3347C158.546 46.018 158.287 46.5479 157.783 46.9383C157.278 47.3148 156.569 47.5101 155.67 47.5101C155.206 47.5101 154.784 47.4822 154.416 47.4125C154.048 47.3427 153.748 47.273 153.475 47.1893C153.216 47.1057 152.998 47.0081 152.834 46.9244C152.717 46.8542 152.627 46.7984 152.561 46.7571C152.535 46.7409 152.513 46.727 152.494 46.7152L153.189 45.4602Z" fill="black"/>
<defs>
<linearGradient id="paint0_linear_307_118" x1="10.101" y1="5.05048" x2="34.6998" y2="44.9196" gradientUnits="userSpaceOnUse">
<stop stop-color="#9D41FF"/>
<stop offset="0.468794" stop-color="#2858FF"/>
<stop offset="0.770884" stop-color="#29B8FF"/>
<stop offset="1" stop-color="#00F0FF"/>
</linearGradient>
</defs>
</svg>
