<svg width="50" height="50" viewBox="0 0 50 50" fill="none" xmlns="http://www.w3.org/2000/svg">
<path d="M22.2815 32.3162V47.5339H25.2524V29.3107L33.1523 42.9936C34.0462 42.5564 34.9052 42.0588 35.7238 41.5059L27.076 26.5275L36.5995 29.9938C37.0292 29.1099 37.3702 28.1749 37.6111 27.2004L32.2589 25.2524H47.5339V22.2815H29.3106L42.9937 14.3816C42.5565 13.4877 42.0588 12.6287 41.5059 11.8101L26.6162 20.4066L30.0532 10.9636C29.1712 10.5297 28.2378 10.1843 27.2646 9.93893L25.2524 15.4675V0H22.2815V18.2232L14.3816 4.54022C13.4877 4.9774 12.6287 5.4751 11.8101 6.02797L20.422 20.9441L10.9549 17.4984C10.5223 18.381 10.1782 19.3148 9.93411 20.2884L15.4103 22.2815H0V25.2524H18.2232L4.54024 33.1522C4.97743 34.0462 5.47512 34.9051 6.02799 35.7237L21.0328 27.0607L17.5579 36.6081C18.4423 37.0365 19.3778 37.3763 20.3526 37.6158L22.2815 32.3162Z" fill="currentColor"/>
</svg>